<?xml version="1.0" encoding="UTF-8" standalone="no"?>
<!-- Created with Inkscape (http://www.inkscape.org/) -->

<svg
   xmlns:dc="http://purl.org/dc/elements/1.1/"
   xmlns:cc="http://creativecommons.org/ns#"
   xmlns:rdf="http://www.w3.org/1999/02/22-rdf-syntax-ns#"
   xmlns:svg="http://www.w3.org/2000/svg"
   xmlns="http://www.w3.org/2000/svg"
   xmlns:sodipodi="http://sodipodi.sourceforge.net/DTD/sodipodi-0.dtd"
   xmlns:inkscape="http://www.inkscape.org/namespaces/inkscape"
   width="150mm"
   height="105mm"
   viewBox="0 0 531.49607 372.04703"
   id="svg2"
   version="1.1"
   inkscape:version="0.91 r13725"
   sodipodi:docname="chromatin.svg">
  <defs
     id="defs4" />
  <sodipodi:namedview
     id="base"
     pagecolor="#ffffff"
     bordercolor="#666666"
     borderopacity="1.0"
     inkscape:pageopacity="0.0"
     inkscape:pageshadow="2"
     inkscape:zoom="0.89726538"
     inkscape:cx="315.58697"
     inkscape:cy="220.27877"
     inkscape:document-units="px"
     inkscape:current-layer="layer1"
     showgrid="false"
     inkscape:window-width="1280"
     inkscape:window-height="691"
     inkscape:window-x="0"
     inkscape:window-y="1"
     inkscape:window-maximized="1"
     units="mm"
     width="209mm" />
  <metadata
     id="metadata7">
    <rdf:RDF>
      <cc:Work
         rdf:about="">
        <dc:format>image/svg+xml</dc:format>
        <dc:type
           rdf:resource="http://purl.org/dc/dcmitype/StillImage" />
        <dc:title></dc:title>
      </cc:Work>
    </rdf:RDF>
  </metadata>
  <g
     inkscape:label="Layer 1"
     inkscape:groupmode="layer"
     id="layer1"
     transform="translate(0,-680.31532)">
    <path
       style="fill:none;fill-rule:evenodd;stroke:#0000ed;stroke-width:2.59539604px;stroke-linecap:butt;stroke-linejoin:miter;stroke-opacity:1"
       d="m 295.79597,892.83263 c -0.96419,4.82095 -1.92838,9.64187 -2.89257,14.46282 0,-0.96419 -0.68179,-2.21078 0,-2.89257 0.68178,-0.68178 1.92838,0 2.89257,0 9.64187,0 19.28374,0 28.92561,0 5.78511,0 11.57025,0 17.35536,0 0.96419,0 2.31405,0.77136 2.89257,0 7.07873,-9.43828 5.78513,-10.42396 5.78513,-20.24793 0,-3.85675 0,-7.71351 0,-11.57025 0,-1.92838 0,-3.85675 0,-5.78513 0,-0.96419 0.87777,-2.49358 0,-2.89257 -28.1038,-12.77444 -23.49414,-14.36176 -43.38845,-8.67768 -2.93171,0.83763 -6.14073,1.20128 -8.67768,2.89257 -3.40366,2.2691 -5.5718,6.0155 -8.67768,8.67768 -3.66034,3.13741 -8.89609,4.66641 -11.57025,8.67768 -7.17557,10.76336 -11.88497,22.98843 -17.35536,34.71075 -3.85855,8.26833 -2.89257,14.47631 -2.89257,23.14049 0,1.92838 -1.36357,4.42157 0,5.78514 4.9164,4.91654 10.8998,8.98794 17.35536,11.57036 3.58092,1.43214 7.71352,0 11.57025,0 6.74933,0 13.49863,0 20.24793,0 1.92838,0 3.85676,0 5.78514,0 1.92838,0 4.35824,1.29717 5.78511,0 9.59837,-8.72599 17.30729,-19.32737 26.03307,-28.92574 0.56948,-0.62643 5.76416,-5.70121 5.78513,-5.78512 0.70154,-2.80619 0,-5.78513 0,-8.67768 0,-1.92838 0.46769,-3.91432 0,-5.78514 -1.53136,-6.12536 -5.6237,-8.67768 -11.57025,-8.67768 -1.92837,0 -3.85675,0 -5.78513,0 -0.96419,0 -2.21079,-0.68178 -2.89257,0 -7.5559,7.55593 -5.78511,11.46086 -5.78511,20.24793 0,0.96419 -0.81763,2.38157 0,2.89257 7.3131,4.57068 15.74551,7.13327 23.1405,11.57025 2.3385,1.4031 3.11094,5.25028 5.78511,5.78511 2.98982,0.59798 5.68789,-2.29458 8.6777,-2.89254 1.89093,-0.3782 3.85674,0 5.78512,0 6.74932,0 13.70013,1.63694 20.24793,0 6.4508,-1.6127 1.49411,-5.88078 2.89257,-8.6777 0.60981,-1.21961 2.28275,-1.67295 2.89256,-2.89255 0.4312,-0.8624 0,-1.92838 0,-2.89257 0,-0.96419 0.4312,-2.03017 0,-2.89257 -2.80985,-5.61968 -9.47644,-2.89256 -14.46281,-2.89256 -8.0767,0 -12.16117,-0.70154 -20.24793,2.89256 -5.13757,2.28338 -9.69526,5.69796 -14.46282,8.67769 -18.37393,11.48371 -35.88115,24.4383 -54.95868,34.71087 -6.18037,3.32782 -13.85773,2.88037 -20.24793,5.78514 -12.89011,5.85911 -9.16318,11.35668 -23.14049,14.46259 -0.35321,0.0779 -28.18997,-0.0779 -28.92564,0 -13.56073,1.42746 -26.86019,5.78513 -40.49586,5.78513 -2.15599,0 -1.69663,-3.9912 -2.89256,-5.78513 -2.67417,-4.01119 -5.66607,-7.80566 -8.67769,-11.57002 -3.92151,-4.90192 -4.98152,-1.92708 -5.78513,-11.57028 -0.72064,-8.64785 0.72066,-17.38546 0,-26.03317 -3.50236,-10.50709 -2.89255,-5.62866 -2.89255,-14.46282 0,-0.96419 -0.57851,-2.12121 0,-2.89256 12.61059,-16.81412 32.92663,-20.05196 52.06611,-26.03305 3.7945,-1.18578 7.63478,-2.33035 11.57025,-2.89257 2.8635,-0.40906 5.78514,0 8.67768,0 4.82095,0 9.64187,0 14.46282,0 16.39119,0 32.78236,0 49.17356,0 14.58332,0 -28.44355,-0.96418 2.89257,11.57025 4.82092,1.92838 9.47026,-4.35868 14.46279,-5.78513 16.56649,-4.73328 0.87654,0.43828 5.78514,2.89257 1.72479,0.86239 4.42154,-1.36357 5.78511,0 0.96419,0.96418 -3.85673,1.92837 -2.89257,2.89256 1.36357,1.36357 3.99468,-0.71617 5.78514,0 7.16383,-1.60361 7.25826,6.52169 11.57025,8.67768 0.86239,0.4312 2.89256,-0.96418 2.89256,0 0,0.96419 -2.89256,-0.96418 -2.89256,0 0,2.156 5.10335,4.93793 5.78511,2.89257 0.91472,-2.74413 -0.47553,-5.82448 0,-8.67768 1.00252,-6.01509 4.92274,-11.31862 5.78514,-17.35538 0.54542,-3.81799 -0.63406,-7.76597 0,-11.57025 0.35445,-2.12665 2.89256,-3.62915 2.89256,-5.78512 0,-3.04904 -2.0903,-5.73611 -2.89256,-8.6777 -2.09202,-7.67072 -2.22937,-16.02899 -5.78514,-23.1405 -0.86237,-1.72477 -3.85673,0 -5.78511,0 -2.89257,0 -5.78514,0 -8.67768,0 -3.85676,0 -7.91142,-1.2196 -11.57025,0 -5.33362,1.7779 -9.64187,5.78514 -14.46282,8.67771 -37.66945,22.60166 -5.85319,2.25822 -72.31406,60.74379 -4.63475,4.07861 -10.39731,6.92399 -14.46279,11.57025 -2.83947,3.2451 -3.56664,7.87277 -5.78514,11.57025 -4.35476,7.25794 -4.67552,-3.10431 -8.67768,11.57024 -2.04535,7.49974 -2.03411,15.41466 -2.89257,23.14063 -0.10641,0.95822 0,1.92838 0,2.89257 0,0.96419 -0.86239,2.46122 0,2.89257 1.7248,0.86219 3.85676,0 5.78514,0 1.92836,0 3.9557,0.60966 5.78511,0 18.52145,-6.17393 37.34604,-11.82462 54.95867,-20.24798 4.92048,-2.35325 7.71352,-7.7136 11.57025,-11.57033 25.02234,-25.02234 0.90668,1.53253 17.35539,-23.1405 1.51272,-2.26913 5.03592,-3.16293 5.78511,-5.78514 3.22244,-11.27852 3.14757,-23.28127 5.78514,-34.71074 0.30659,-1.32864 2.56183,-1.5697 2.89254,-2.89257 0.70156,-2.8062 0,-5.78511 0,-8.67768 0,-0.96419 0.80226,-2.35771 0,-2.89257 -2.53692,-1.69129 -5.78511,-1.92836 -8.67768,-2.89255 -2.89254,-0.96418 -5.6554,-2.4896 -8.67768,-2.89256 -22.89529,-3.05271 -25.38202,-2.89257 -40.49586,-2.89257 -1.92837,0 -4.06033,-0.8624 -5.78513,0 -11.3097,5.65485 -13.24347,30.89699 -14.46282,37.60331 -0.34495,1.89727 -0.71617,3.99468 0,5.78512 4.08851,10.22124 7.74687,9.65856 17.35539,14.46281 3.85672,1.92838 7.3278,5.01379 11.57024,5.78514 69.4331,12.62419 61.69542,11.57025 107.02479,11.57025 6.74932,0 13.70016,1.63694 20.24795,0 2.09161,-0.52292 0.96419,-4.82095 2.89255,-5.78514 4.39738,-2.19869 10.00766,-0.81347 14.46281,-2.89256 5.74533,-2.68113 34.71075,-13.64076 34.71075,-28.92562 0,-2.15599 -2.36965,-3.6935 -2.89257,-5.78513 -0.75718,-3.02873 0.9638,-10.903 0,-11.57025 -11.70476,-8.1033 -24.48283,-14.72353 -37.60329,-20.24793 -10.25801,-4.31916 -34.65637,-2.89257 -43.38845,-2.89257 -3.85674,0 -7.71349,0 -11.57025,0 -5.78511,0 -12.01526,-2.22503 -17.35536,0 -6.95128,2.89638 -11.92294,9.24768 -17.35539,14.46282 -29.2566,28.08633 -57.08794,46.88372 -69.42146,83.88431 -1.25716,3.77145 -1.49671,7.84804 -2.89257,11.57036 -1.51405,4.03739 -5.49829,7.26762 -5.78514,11.57027 -0.70841,10.62607 2.07578,21.19972 2.89257,31.81795 0.14794,1.9227 -1.6045,4.7156 0,5.7852 2.40677,1.60449 5.87149,-0.7015 8.67768,0 9.50228,2.37559 -8.35987,9.30079 11.57024,0 11.72234,-5.4703 23.94741,-10.17968 34.71075,-17.35543 6.8778,-4.58502 14.14312,-23.57164 17.35539,-28.92543 2.48034,-4.13394 6.88722,-7.09425 8.67768,-11.57027 2.17818,-5.44553 2.06313,-11.54949 2.89257,-17.35547 1.92838,-14.46281 3.85673,-28.92561 5.78511,-43.38843 0.96419,-1.92837 2.46975,-3.671 2.89257,-5.78513 0.56727,-2.83638 0,-5.78511 0,-8.67768 0,-0.96419 0.89523,-2.53446 0,-2.89257 -7.75518,-3.10205 -26.48002,-3.88025 -34.71075,-2.89255 -117.33232,14.07987 -25.58391,-2.67183 -72.31406,17.35537 -16.26584,6.97107 9.90705,-18.5847 -17.35536,8.67768 -3.40892,3.40892 -5.54026,7.90993 -8.67768,11.57025 -2.6622,3.10591 -7.15844,4.87957 -8.6777,8.6777 -4.42933,11.07331 -6.4798,22.98867 -8.67768,34.71083 -0.71075,3.79058 0,7.71352 0,11.57027 0,1.92838 0,3.85676 0,5.78514 0,2.89257 -2.04536,6.63228 0,8.67745 3.67152,3.67171 9.32268,5.0509 14.46281,5.78514 15.30176,2.1861 30.84138,2.15755 46.281,2.89257 4.81547,0.22839 9.64187,0 14.46281,0 1.92835,0 4.06031,0.86245 5.78511,0 4.31199,-2.156 7.3845,-6.28579 11.57025,-8.67771 20.38704,-11.6497 4.00628,18.752 31.81818,-28.92551 1.53632,-2.63368 -2.89254,-5.62866 -2.89254,-8.67768 0,-1.36357 2.46134,-1.59897 2.89254,-2.89257 0.60981,-1.82941 0,-3.85676 0,-5.78513 0,-22.91844 2.91624,-17.63634 -37.60329,-31.81818 -6.3704,-2.22963 -13.52634,0.61106 -20.24795,0 -3.95912,-0.35991 -7.62548,-2.39947 -11.57025,-2.89257 -5.74044,-0.71755 -11.64894,0.95108 -17.35536,0 -8.33682,-1.38947 -20.46737,-7.12169 -28.92563,-2.89255 -2.58717,1.2936 -1.17478,6.03443 0,8.67768 2.82384,6.35361 7.39854,11.79309 11.57025,17.35537 1.63629,2.18171 3.25304,4.77231 5.78513,5.78513 2.68567,1.07426 5.78512,0 8.67768,0 1.92838,0 3.85676,0 5.78514,0 0.96417,0 2.21076,0.68179 2.89254,0 14.9527,-14.95267 30.35581,-29.62818 43.38845,-46.28099 4.52556,-5.78268 5.78511,-13.49863 8.67768,-20.24794 2.89257,-6.74932 6.16824,-13.347 8.67768,-20.24795 1.35858,-3.7361 1.92838,-7.71349 2.89257,-11.57022 0.96419,-3.85676 2.03017,-7.68949 2.89257,-11.57025 2.99472,-13.47634 6.72534,-26.82957 8.67768,-40.49589 0.13626,-0.95451 -1.92838,0 -2.89257,0 -2.89257,0 -5.78511,0 -8.67768,0 -13.51215,0 -15.66265,-1.01566 -31.81818,8.67768 -2.98101,1.78862 -4.23043,5.56829 -5.78513,8.67768 -0.4312,0.8624 0.96419,2.89257 0,2.89257 -2.15599,0 -3.62914,-2.89257 -5.78511,-2.89257 -1.36357,0 -2.28278,1.67297 -2.89257,2.89257 -0.66598,1.33196 0,14.35744 0,17.35539 0,0.96419 0,-3.85676 0,-2.89257 0,3.85676 0,7.71349 0,11.57025 0,0.96419 0,1.92838 0,2.89257 0,0.96419 0.96419,2.89257 0,2.89257 -0.96419,0 -0.68178,-2.21079 0,-2.89257 0.68179,-0.68179 1.92838,0 2.89257,0 0.96416,0 1.92835,0 2.89254,0 3.85676,0 7.71352,0 11.57024,0 0.96419,0 3.73542,-0.46827 2.89257,0 -9.42335,5.2352 -19.53008,9.17781 -28.9256,14.46279 -55.84843,31.41475 10.51076,-2.36282 -28.92564,17.35539 -12.46096,6.23048 -7.38943,2.56687 -20.24793,23.1405 -0.51103,0.81762 0,1.92837 0,2.89256 0,0.96419 -0.80226,2.35771 0,2.89255 8.2597,5.50647 16.61555,11.32366 26.03307,14.46282 2.89255,0.96418 5.62864,-2.89257 8.67768,-2.89257 3.04902,0 5.65929,2.46137 8.67768,2.89257 3.81799,0.54542 7.71349,0 11.57025,0 4.82095,0 10.10074,2.05275 14.46282,0 12.58213,-5.92101 23.27758,-15.22522 34.71074,-23.1405 1.1211,-0.77616 2.28275,-1.67294 2.89257,-2.89257 1.36354,-2.72712 1.32383,-6.06316 2.89254,-8.67768 1.4031,-2.33851 3.51601,-4.27239 5.78514,-5.78512 0.80223,-0.53483 2.89257,0.96419 2.89257,0 -7.56003,-22.67999 -1.64523,3.6883 2.89254,-14.46281 1.63697,-6.5479 -9.18132,-7.88139 -11.57025,-8.67768 -2.89254,-0.96419 -5.62866,-2.89257 -8.67768,-2.89257 -3.97545,0 -7.59857,2.71987 -11.57025,2.89257 -18.30225,0.79574 -36.655,-0.76266 -54.95867,0 -4.91215,0.20477 -10.46217,0.035 -14.46282,2.89254 -3.50879,2.50629 -2.73609,8.52123 -5.78511,11.57025 -2.15599,2.15599 -5.78514,1.92838 -8.6777,2.89257 -5.78512,16.39119 -12.36066,32.52449 -17.35537,49.17356 -0.83117,2.77056 0,5.78512 0,8.67768 0,1.92838 0,3.85676 0,5.78514 0,1.92838 -1.4413,4.50398 0,5.78511 7.79494,6.92886 17.02448,12.10036 26.03307,17.35539 2.63368,1.53632 5.62864,2.89254 8.67768,2.89254 3.04902,0 5.62866,-2.89254 8.67768,-2.89254 3.97545,0 7.63478,2.33033 11.57025,2.89254 2.8635,0.40909 5.78514,0 8.67768,0 4.82095,0 10.34479,2.50664 14.46282,0 18.78113,-11.43199 36.88472,-24.59155 52.06613,-40.49586 24.57969,-25.75019 -0.32061,-15.68538 11.57022,-34.71074 2.89078,-4.62521 9.42173,-6.55699 11.57025,-11.57025 1.20107,-2.80251 -3.45445,-5.68088 -2.89254,-8.67768 12.35865,-65.91289 17.40978,-21.55817 8.67768,-43.38846 -1.13237,-2.83093 -0.45334,-6.84826 -2.89257,-8.67768 -2.31406,-1.73554 -5.99202,1.07429 -8.67768,0 -2.53207,-1.01283 -3.15009,-5.08243 -5.78514,-5.78511 -63.17076,-16.84555 -20.1497,-7.24778 -46.28097,-2.89257 -2.85323,0.47553 -5.78514,0 -8.67771,0 -1.92838,0 -4.0603,-0.8624 -5.7851,0 -2.43923,1.2196 -3.4173,4.43208 -5.78514,5.78511 -4.50817,2.57611 -11.13876,1.7963 -14.46279,5.78514 -2.46905,2.96282 1.72477,8.12065 0,11.57025 -6.21883,12.43765 -17.49286,22.00356 -23.1405,34.71075 -2.75483,6.19835 1.83653,21.57942 0,28.92561 -1.04581,4.18323 -5.17532,7.30162 -5.78514,11.57025 -0.43119,3.01839 2.68974,5.63543 2.89257,8.6777 0.76964,11.54461 0,23.1405 0,34.71075 0,1.92836 -1.06966,4.18061 0,5.78511 1.1867,1.78006 14.0997,5.7125 14.46282,5.78514 1.89093,0.37818 3.91433,-0.46771 5.78511,0 29.76994,7.44248 -66.95859,24.81593 54.95867,-2.89257 18.02889,-4.09748 9.90606,-5.98327 17.35539,-11.57025 2.78112,-2.08586 5.96305,-3.61341 8.67768,-5.78513 2.12952,-1.70362 3.60342,-4.14885 5.78511,-5.78512 1.7248,-1.29359 4.75274,-0.99982 5.78514,-2.89257 11.92833,-21.86862 11.57025,-19.27935 11.57025,-31.81817 0,-3.85676 0,-7.7135 0,-11.57025 0,-0.96419 0.60231,-2.13967 0,-2.89257 -3.40727,-4.25907 -6.85896,-8.82199 -11.57025,-11.57025 -18.62298,-10.8634 -38.41451,-19.596 -57.85125,-28.92561 -4.68098,-2.24689 -9.45346,-4.41895 -14.46281,-5.78514 -5.65825,-1.54315 -11.73778,-1.20728 -17.35536,-2.89254 -4.13013,-1.23905 -7.3016,-5.17533 -11.57025,-5.78514 -3.01839,-0.4312 -5.66598,2.41704 -8.67768,2.89257 -15.35683,2.42475 -31.24584,1.82851 -46.281,5.78511 -3.95603,1.04106 -5.78513,5.78514 -8.6777,8.67771 -2.89255,2.89254 -6.50962,5.20877 -8.67768,8.67768 -2.75193,4.40306 -3.46307,9.81866 -5.78512,14.46279 -0.60981,1.21963 -1.92837,1.92838 -2.89256,2.89257 -0.96419,3.85676 -1.80043,7.74777 -2.89257,11.57025 -9.50886,33.28102 -8.67768,18.40382 -8.67768,37.60331 0,1.60419 -0.16819,11.33472 0,11.57025 24.95865,34.94208 4.26514,8.42435 23.1405,11.57025 3.42911,0.57151 5.89653,3.69927 8.67768,5.78512 1.09084,0.81814 1.529,2.89256 2.89257,2.89256 3.97544,0 7.64889,-3.54611 11.57024,-2.89256 2.69003,0.44835 3.09509,5.3368 5.78512,5.78513 3.92135,0.65355 7.63477,-2.33035 11.57025,-2.89257 4.54692,-0.64955 20.70466,1.0826 23.1405,0 4.98417,-2.21519 6.89326,-8.76405 11.57024,-11.57025 5.22905,-3.13741 12.12634,-2.64769 17.35539,-5.78511 4.67698,-2.80619 7.71349,-7.71351 11.57025,-11.57025 1.92838,-1.92838 3.92942,-3.78671 5.7851,-5.78513 10.68026,-11.50181 21.6796,-22.72877 31.81821,-34.71075 0.62279,-0.73606 -0.18921,-1.9471 0,-2.89257 0.77963,-3.89824 1.4161,-7.87913 2.89254,-11.57025 0.50641,-1.26604 2.56186,-1.5697 2.89257,-2.89254 0.70156,-2.8062 0,-5.78514 0,-8.67771 0,-12.85051 0.52777,-29.53797 -11.57025,-37.60329 -0.80226,-0.53484 -1.92838,0 -2.89257,0 -1.92838,0 -4.06032,0.8624 -5.78511,0 -19.81699,-9.9085 22.44745,-15.31152 -34.71074,-5.78514 -2.69002,0.44835 -4.03926,3.69008 -5.78514,5.78514 -3.08629,3.70355 -5.59139,7.86669 -8.67768,11.57025 -1.74587,2.09503 -4.38201,3.4466 -5.78511,5.78511 -1.56873,2.61452 -2.23116,5.70128 -2.89257,8.67771 -8.54822,38.4669 -12.49994,31.45679 -5.78513,54.95867 0.83763,2.93171 0.73657,6.52169 2.89256,8.67768 2.156,2.156 6.14074,1.20126 8.67768,2.89257 40.20026,26.80017 -81.16966,-1.27662 78.0992,8.67768 17.2851,1.08031 21.57578,9.3468 37.60329,5.78512 4.20929,-0.93538 7.95491,-3.43514 11.57025,-5.78512 15.69661,-10.20281 31.8296,-19.91701 46.281,-31.81818 2.35363,-1.93829 1.06315,-6.23847 2.89256,-8.6777 1.2936,-1.72477 3.85676,-1.92836 5.78512,-2.89255 0.96419,-2.89256 1.76019,-5.84675 2.89256,-8.6777 5.40318,-13.50792 1.75846,3.91217 5.78514,-20.24793 0.15858,-0.95106 0,-1.92838 0,-2.89254 0,-0.96419 0.68179,-2.21079 0,-2.89257 -1.52453,-1.52451 -4.26063,-1.36806 -5.78514,-2.89257 -2.4582,-2.45821 -4.68578,-11.97573 -5.78511,-8.67768 -4.61401,13.84205 -3.81372,28.93142 -5.78513,43.38843 -0.96419,6.7493 -1.92838,13.49862 -2.89257,20.24793 0,3.85675 0.42593,7.73708 0,11.57025 -0.54291,4.88635 -2.34962,9.57646 -2.89255,14.46281 -0.4259,3.83317 0.42591,7.73709 0,11.57025 -0.54293,4.88633 -2.25669,9.58771 -2.89257,14.46282 -10.34348,79.30001 3.03223,30.78091 -11.57025,63.63628 -2.10878,4.74491 -3.73978,9.69043 -5.78513,14.46283 -0.84927,1.9819 -1.16778,4.49159 -2.89255,5.78519 -10.05718,7.543 -20.26319,15.2959 -31.8182,20.2479 -2.80248,1.2012 -5.65929,-2.4614 -8.67768,-2.8925 -3.81799,-0.5453 -7.71349,0 -11.57025,0 -2.89257,0 -5.78511,0 -8.67768,0 -3.85676,0 -8.22165,1.9136 -11.57025,0 -4.18575,-2.3919 -4.56406,-9.0564 -8.67768,-11.5703 -13.61851,-8.3224 -29.85427,-11.78909 -43.38842,-20.24798 -2.58558,-1.61589 -1.529,-5.95046 -2.89257,-8.6777 -1.92838,-2.89257 -3.85676,-5.78514 -5.78514,-8.67771 -1.92838,0 -4.42154,1.36362 -5.78511,0 -2.15599,-2.156 -1.92838,-5.78488 -2.89257,-8.67745 -1.92838,-5.78514 -4.10986,-11.49215 -5.78511,-17.35541 -0.26488,-0.92708 0,-1.92838 0,-2.89257 0,-9.87592 -1.36357,-4.42165 8.67768,-14.4629 2.89257,-2.89257 5.40512,-6.22326 8.67768,-8.67768 19.90621,-14.92968 40.28539,-29.22494 60.74381,-43.38845 2.63136,-1.82171 21.34435,-13.12318 26.03304,-14.4628 2.78128,-0.79465 5.8142,0.40906 8.67771,0 24.68748,-3.5268 2.19518,-8.9341 46.28099,-5.78513 2.72019,0.19439 4.38202,3.44663 5.78512,5.78513 1.5687,2.61453 1.529,5.95055 2.89256,8.67769 0.60982,1.2196 2.46137,1.59897 2.89257,2.89256 0.60979,1.82942 0.17467,3.86468 0,5.78512 -0.79048,8.69522 0.46554,17.97361 -2.89257,26.03306 -1.8542,4.4501 -7.48211,6.12259 -11.57025,8.67768 -3.65654,2.28535 -7.9137,3.49979 -11.57024,5.78514 -4.08814,2.55509 -7.35601,6.33643 -11.57025,8.67768 -4.53891,2.52161 -9.38189,4.71545 -14.46282,5.78511 -78.88893,16.60828 -69.48862,17.3555 -118.59503,17.3555 -3.85676,0 -7.71352,0 -11.57025,0 -2.89257,0 -6.94216,2.31405 -8.6777,0 -4.94281,-6.59049 -5.86241,-15.39857 -8.67769,-23.14061 -1.04197,-2.86544 -4.02494,-5.84672 -2.89256,-8.67768 1.29113,-3.22779 5.78513,-3.85676 8.6777,-5.78514 2.89255,-1.92837 5.63873,-4.0968 8.67768,-5.78511 28.14305,-15.63503 31.69371,-12.99579 75.2066,-20.24795 3.80428,-0.63403 7.8619,-1.05952 11.57025,0 3.34266,0.95505 5.20128,5.78513 8.67771,5.78513 17.50921,0 12.36394,-16.98141 28.92561,2.89257 1.85176,2.22213 0,5.78511 0,8.67768 0,3.85676 1.05952,7.8619 0,11.57025 -2.50692,8.77423 -11.25844,12.02055 -17.35539,17.35536 -4.10475,3.59167 -6.91621,8.72606 -11.57022,11.57036 -12.87768,7.8695 -26.85675,13.78726 -40.49589,20.24798 -4.69248,2.2227 -9.39413,4.65874 -14.46281,5.78488 -3.7649,0.83675 -7.71349,0 -11.57025,0 -2.89254,0 -5.78511,0 -8.67768,0 -1.92838,0 -4.36815,1.30808 -5.78511,0 -13.56759,-12.52383 -30.61308,-27.64019 -37.60332,-46.2809 -1.39588,-3.72231 -1.80042,-7.74775 -2.89256,-11.57025 -0.83764,-2.9317 -1.76018,-5.84672 -2.89257,-8.67768 -0.80071,-2.00177 -2.67804,-3.63983 -2.89255,-5.78513 -0.76753,-7.67521 0,-15.42699 0,-23.1405 0,-2.91609 -0.48541,-11.24663 0,-11.57025 2.53695,-1.69129 5.87518,-1.69147 8.67768,-2.89255 10.70832,-4.58928 21.24018,-9.58064 31.81818,-14.46281 10.00305,-4.6168 4.80984,-3.53166 20.24793,-8.67768 14.65216,-4.88407 7.00734,-2.15343 17.35539,-2.89257 43.85886,-3.13278 21.53939,-2.89257 43.38842,-2.89257 5.78514,0 11.57025,0 17.35536,0 2.89257,0 5.87151,-0.70154 8.67771,0 5.03727,1.25934 9.32268,5.05082 14.46279,5.78514 11.37982,1.62567 2.41159,-9.16536 2.89257,-11.57025 0.53483,-2.6742 5.31119,-3.0995 5.78513,-5.78514 2.51899,-14.27434 2.08852,-28.91583 2.89255,-43.38843 0.16039,-2.88811 0,-5.78514 0,-8.67768 0,-4.09411 1.2936,-11.1139 -2.89255,-14.46282 -3.36708,-2.69368 -7.60692,-4.08656 -11.57024,-5.78511 -19.94677,-8.54861 -36.96309,-2.86244 -60.74382,5.78511 -5.80211,2.10985 -7.20472,10.09726 -11.57025,14.46282 -5.3249,5.32489 -11.78322,9.3972 -17.35535,14.46279 -5.0448,4.58619 -9.6419,9.6419 -14.46282,14.46282 -4.82095,4.82095 -10.23819,9.1116 -14.46282,14.46282 -9.64187,13.49863 -19.28374,26.99725 -28.92561,40.49586 -0.96419,1.92838 -1.69663,3.99125 -2.89257,5.78514 -4.43018,6.64527 -1.65222,-1.24034 -8.67768,5.78511 -0.0932,0.0929 0,7.97617 0,8.6777 0,0.96419 -0.80226,2.35771 0,2.89255 2.53695,1.69131 5.84673,1.76019 8.67768,2.89257 2.00178,0.80073 3.78334,2.09186 5.78512,2.89256 10.31145,4.12458 41.16604,13.61031 46.28099,14.46282 2.12667,0.35443 3.62915,-2.89257 5.78514,-2.89257 2.39335,0 4.16338,8.91163 8.67768,2.89257 3.82798,-5.10395 2.89257,-17.49792 2.89257,-23.1405 0,-2.89256 0,-5.78513 0,-8.6777 0,-4.82092 1.95797,-10.05737 0,-14.4628 -2.21519,-4.98417 -7.50549,-7.93337 -11.57025,-11.57024 -14.26287,-12.76152 -27.24195,-27.32828 -43.38843,-37.60332 -5.75194,-3.66034 -13.52287,-1.77172 -20.24795,-2.89257 -24.1627,-4.02712 -4.80769,-2.89257 -31.81818,-2.89257 -34.79072,0 -20.59823,-2.80949 -69.421499,28.92564 -4.802131,3.12138 -10.263935,20.20129 -11.570249,23.1405 -1.751244,3.94033 -4.421543,7.47954 -5.785112,11.57025 -0.609814,1.82941 0.120167,3.86049 0,5.78511 -0.844179,13.50667 -3.792782,26.99284 -2.892569,40.49588 0.143525,2.15122 4.260602,1.36804 5.785112,2.89257 1.524535,1.52451 1.598971,4.06032 2.892569,5.78511 1.636293,2.18172 3.856758,3.85676 5.785137,5.78514 1.92838,1.92836 3.516009,4.27239 5.785112,5.78511 15.666382,10.44427 20.685462,5.65062 43.388429,8.67768 30.46359,4.06183 -9.64504,2.89257 26.03307,2.89257 4.82094,0 9.78581,1.16926 14.46282,0 3.37263,-0.84316 5.91615,-3.67336 8.67768,-5.78511 13.63665,-10.42801 27.36474,-20.76039 40.49588,-31.8182 5.21504,-4.3916 9.64187,-9.64187 14.46279,-14.4628 0.96419,-0.96419 2.56187,-1.56972 2.89257,-2.89257 0.70157,-2.80619 -0.47552,-5.82448 0,-8.67768 0.50125,-3.00754 2.29459,-5.68788 2.89257,-8.6777 0.37818,-1.89093 -0.46771,-3.91433 0,-5.78511 1.93225,-7.72896 9.86085,-8.92448 2.89257,-20.24793 -7.46464,-12.13006 -25.39003,-27.50225 -40.49589,-31.81818 -1.31109,-0.37462 -1.52899,2.89254 -2.89256,2.89254 -3.97545,0 -7.6191,-2.45353 -11.57025,-2.89254 -16.64303,-1.84925 -26.19996,1.46652 -40.49586,14.46279 -4.32996,3.93633 -6.77038,20.31113 -8.67768,26.03307 -14.63952,43.91851 -2.89257,-6.09765 -2.89257,23.1405 0,4.9164 -2.40337,9.5708 -2.89257,14.46281 -1.45501,14.55008 2.04945,34.68158 8.67768,46.281 2.78937,4.88137 9.88791,5.40987 14.46282,8.67768 2.21916,1.58509 3.3459,4.56564 5.78513,5.78522 10.58883,5.29435 10.35068,1.65534 20.24793,2.89257 29.19146,3.64886 0.95903,2.89257 26.03307,2.89257 7.15003,0 17.88355,1.72464 23.1405,-5.78514 11.38541,-16.26499 20.92972,-33.89369 28.92561,-52.06622 2.7458,-6.24047 1.85587,-13.50937 2.89257,-20.24793 10.15497,-60.9299 -1.46624,14.6623 2.89256,-28.92563 0.58357,-5.8358 4.37298,-11.68038 2.89254,-17.35536 -4.4745,-17.15235 -11.70525,-33.64145 -20.24792,-49.17357 -3.4525,-6.27725 -20.31105,-12.82795 -26.03306,-14.46282 -1.85418,-0.52975 -3.88298,0.31703 -5.78512,0 -18.05318,-3.00884 -22.09696,-10.28994 -46.28099,-8.67768 -5.59513,0.37301 -18.77032,24.49275 -20.24794,28.92561 -0.60981,1.82942 0.52975,3.93096 0,5.78514 -12.60622,44.12173 -2.89256,-36.28823 -2.89256,60.74381 0,2.15597 -2.36965,3.69351 -2.89257,5.78512 -0.46769,1.87081 0,3.85676 0,5.78513 0,22.05443 -1.74224,24.76735 11.57025,49.17355 3.97716,7.29145 10.15339,-0.71823 14.46282,0 15.55662,2.59277 3.96633,4.87573 11.57024,8.6777 6.56781,3.2839 13.0475,7.2376 20.24793,8.67768 2.98982,0.59796 5.62867,-2.89257 8.67769,-2.89257 0.96419,0 -0.8624,2.46137 0,2.89257 1.72479,0.8624 3.85675,0 5.78513,0 0.96419,0 -3.85676,0 -2.89257,0 5.78514,0 11.62839,0.81815 17.35539,0 1.34984,-0.19284 1.67294,-2.28275 2.89254,-2.89257 2.72714,-1.36357 5.68789,-2.29459 8.67771,-2.89256 1.89093,-0.37818 4.06032,0.86239 5.78511,0 2.43923,-1.21961 3.85676,-3.85674 5.78514,-5.78512 0.96416,-0.96419 1.53458,-2.7691 2.89254,-2.89257 9.60228,-0.87293 19.28376,0 28.92563,0 0.96419,0 1.95716,0.23385 2.89257,0 2.95797,-0.7395 5.68786,-2.29459 8.67768,-2.89256 1.89092,-0.37818 3.85673,0 5.78511,0 3.85676,0 7.79911,0.8081 11.57025,0 88.27336,-18.91572 1.20413,0.0968 37.60332,-14.4628 1.79046,-0.7162 3.91432,0.46769 5.78511,0 2.09163,-0.52292 3.671,-2.46975 5.78514,-2.89257 2.83637,-0.56727 5.99201,1.07426 8.67768,0 2.53209,-1.01282 3.85675,-3.85675 5.78513,-5.78513 0.96419,-0.96417 -3.85675,3.85675 -2.89256,2.89257 1.92837,-1.92838 4.5655,-3.34591 5.78511,-5.78512 0.4312,-0.86239 -3.57433,0.68179 -2.89255,0 1.52451,-1.52451 5.26222,-0.80096 5.78512,-2.89257 0.7395,-2.95799 -2.29459,-5.68786 -2.89257,-8.67768 -0.62648,-3.13246 0,-17.15588 0,-20.24795 0,-7.71349 0,-15.42698 0,-23.1405 0,-1.92835 0.7162,-3.99465 0,-5.78511 -1.29111,-3.22779 -3.85674,-5.78511 -5.78511,-8.67768 -1.92838,-2.89257 -3.32691,-6.21948 -5.78514,-8.67768 -1.52451,-1.52454 -4.49152,-1.16778 -5.78511,-2.89257 -1.82942,-2.43923 -0.27805,-7.10897 -2.89257,-8.67771 -3.30713,-1.98426 -7.8619,1.05954 -11.57025,0 -3.34267,-0.95503 -5.23619,-5.29347 -8.67768,-5.78511 -3.93551,-0.56222 -7.63475,3.45478 -11.57025,2.89257 -3.4415,-0.49165 -5.22812,-5.35394 -8.67768,-5.78514 -4.87847,-0.60979 -9.56661,2.44746 -14.46282,2.89257 -35.15731,3.19612 -6.51995,-10.18838 -63.63635,11.57025 -5.76936,2.19786 -9.84846,7.46859 -14.46282,11.57025 -9.5454,8.48479 -22.38508,21.94277 -26.03307,34.71075 -0.79465,2.78127 0,5.78511 0,8.67768 0,4.82094 -0.28307,9.6502 0,14.46282 0.68179,11.59031 -2.01729,24.18963 2.89257,34.71074 2.73521,5.86116 11.70135,5.53655 17.35537,8.67768 13.51433,7.50797 20.5192,18.69485 37.60331,20.24793 25.94391,2.35854 52.06021,2.10352 78.09917,2.89257 17.26802,0.52329 28.31278,0.36772 43.38843,-8.67768 5.96204,-3.57721 12.43898,-6.65384 17.35538,-11.57025 3.04902,-3.04902 2.97892,-8.29636 5.78512,-11.57025 3.13744,-3.66034 9.8775,-4.16371 11.57025,-8.67768 4.45292,-11.87445 3.70023,-25.09397 5.78513,-37.60331 2.4445,-14.667 7.21126,-17.78586 -5.78513,-28.92564 -3.27389,-2.8062 -7.55146,-4.22224 -11.57025,-5.78511 -13.35905,-5.19518 -27.13682,-9.26762 -40.49586,-14.46282 -4.01879,-1.56285 -7.30161,-5.17533 -11.57025,-5.78511 -3.0184,-0.4312 -5.67014,3.39381 -8.67768,2.89257 -3.42915,-0.57154 -5.26879,-5.10336 -8.67771,-5.78514 -2.11411,-0.42282 -3.67098,2.46972 -5.78511,2.89257 -21.5073,4.30145 4.34578,-15.18943 -37.60332,5.78511 -3.85673,1.92838 -3.39327,7.98248 -5.78511,11.57025 -1.51275,2.26913 -4.56551,3.3459 -5.78514,5.78514 -1.77787,3.55574 -1.92838,7.71349 -2.89254,11.57025 -0.96419,3.85673 -2.23903,7.64889 -2.89257,11.57024 -0.31703,1.90214 -0.11316,3.86009 0,5.78512 0.85116,14.4699 -1.43092,29.55333 2.89257,43.38843 1.18576,3.79449 8.33529,0.58188 11.57025,2.89256 3.92294,2.80212 4.36569,9.41426 8.67768,11.57025 6.09804,3.04905 13.91773,0.36048 20.24793,2.89257 3.79813,1.51924 4.79691,7.38409 8.67768,8.67768 5.48825,1.82942 11.5873,-0.44368 17.35539,0 19.32282,1.48639 38.48959,4.94333 57.85124,5.78514 3.04614,0.13237 6.19659,-1.12035 8.67768,-2.89257 7.94246,-5.6732 12.42385,-12.35748 17.35537,-20.24793 2.97972,-4.76756 7.41351,-8.98466 8.6777,-14.46282 4.59915,-19.9297 6.33321,-40.42511 8.67768,-60.74381 0.6862,-5.94702 0.24579,-23.4337 -2.89257,-28.92561 -1.72479,-3.0184 -6.95288,-2.76675 -8.67768,-5.78514 -2.43923,-4.26862 0.094,-10.55742 -2.89257,-14.46282 -9.93958,-12.9979 -23.61218,-22.68729 -34.71074,-34.71072 -0.65399,-0.70849 0.75289,-2.29026 0,-2.89257 -23.57282,-18.85825 -5.60653,-5.78514 -23.1405,-5.78514 -35.68828,0 54.17341,-51.73356 -57.85125,14.46282 -7.14074,4.21954 -8.59787,14.38301 -14.46279,20.24793 -3.97548,3.97545 -10.48738,4.70223 -14.46282,8.67768 -4.91641,4.91643 -7.22686,11.92613 -11.57025,17.35539 -3.40726,4.25907 -8.29769,7.20684 -11.57024,11.57025 -2.58719,3.44959 -3.85676,7.71349 -5.78514,11.57025 -2.89254,5.78511 -5.78511,11.57025 -8.67768,17.35536 -1.92838,3.85676 -4.42157,7.47957 -5.78511,11.57025 -1.42902,4.28705 -5.20234,28.61284 -5.78514,31.8182 -0.87947,4.8371 -2.89257,9.54639 -2.89257,14.4628 0,4.91643 2.40337,9.5708 2.89257,14.46281 0.47971,4.79702 0,9.64187 0,14.46282 0,4.82093 0,9.64187 0,14.4629 0,4.82095 -0.59795,9.67901 0,14.46284 0.37818,3.02546 1.82197,5.82277 2.89257,8.67771 1.82314,4.8617 2.76716,10.23754 5.78511,14.46259 2.02065,2.82898 5.78514,3.85675 8.67771,5.78513 14.46278,9.64186 28.34545,20.21655 43.38842,28.92565 10.73375,6.2144 14.60504,1.039 26.03304,0 5.76139,-0.5237 11.57025,0 17.35539,0 4.82094,0 10.15082,2.156 14.46281,0 15.54705,-7.7734 29.29709,-18.74859 43.38843,-28.92565 3.31625,-2.39503 6.50962,-5.2087 8.67769,-8.6777 2.75192,-4.40309 3.73978,-9.69017 5.78513,-14.46259 0.84927,-1.98184 2.30025,-3.71219 2.89255,-5.78514 1.35064,-4.72725 1.82604,-9.66369 2.89256,-14.46284 0.8624,-3.88087 2.57555,-7.60755 2.89257,-11.57033 3.16774,-39.59666 2.89257,-48.15729 2.89257,-78.0992 0,-5.78511 1.58929,-11.79283 0,-17.35536 -0.74921,-2.62221 -3.85676,-3.85676 -5.78514,-5.78514 -5.78511,-5.78511 -10.89736,-12.33247 -17.35536,-17.35536 -5.1672,-4.01892 -14.36969,-2.89257 -20.24795,-2.89257 -0.96417,0 -2.12119,-0.57852 -2.89255,0 -3.27256,2.45444 -7.62366,4.72512 -8.6777,8.67771 -2.99153,11.21831 -1.25059,23.21706 -2.89255,34.71072 -0.3049,2.13432 -2.46975,3.671 -2.89256,5.78514 -0.56728,2.83637 0,5.78511 0,8.67768 0,10.393 -2.38852,18.91908 8.67768,26.03306 81.78596,52.57673 8.41557,5.29703 40.49588,14.46282 27.72249,7.92071 -2.01345,6.60279 20.24793,2.89255 2.8532,-0.47553 6.57131,1.98246 8.67768,0 36.88878,-34.71885 39.26287,-30.63185 43.38843,-63.63636 0.2393,-1.91349 -0.23929,-3.87163 0,-5.78514 0.72747,-5.81963 2.16511,-11.53573 2.89257,-17.35536 0.2393,-1.91348 1.17577,-4.25666 0,-5.78511 -8.7394,-11.36122 -17.21547,-23.55221 -28.92561,-31.81821 -5.56995,-3.93171 -13.4768,-2.09596 -20.24796,-2.89257 -9.62357,-1.13216 -19.25236,-2.32353 -28.92561,-2.89254 -6.73767,-0.39635 -13.49862,0 -20.24793,0 -3.85675,0 -8.20521,-1.88444 -11.57025,0 -21.23244,11.89016 -41.57988,25.498 -60.74381,40.49586 -2.37886,1.8617 -7.79434,16.2729 -8.67768,20.24793 -1.27229,5.72526 -2.16511,11.53575 -2.89257,17.35539 -0.2393,1.91348 0,3.85675 0,5.78511 0,4.82095 -1.83557,10.00502 0,14.46282 6.29604,15.29041 17.65258,37.7519 34.71075,46.28099 2.58719,1.2936 5.80281,-0.31941 8.67768,0 5.82905,0.64769 11.60435,1.74237 17.35538,2.89257 27.77993,5.55599 -0.3314,5.96422 54.95868,2.89257 1.19607,-0.0664 12.68713,-4.00947 14.46282,-5.78514 10.97204,-10.97203 1.61992,-5.5924 8.67768,-17.35536 10.0377,-16.7295 24.72933,7.84243 -2.89257,-40.49588 -2.57611,-4.50818 -10.20909,-2.80752 -14.46281,-5.78512 -5.58537,-3.90978 -9.05882,-10.3059 -14.4628,-14.46281 -18.06741,-13.89801 -25.54487,-15.73475 -46.281,-23.1405 -32.73897,-11.6925 -65.07036,-24.65035 -98.34713,-34.71075 -8.35747,-2.5267 -17.36936,-1.80962 -26.03303,-2.89257 -65.72194,-9.38885 4.64799,-0.30997 -28.92564,-2.89257 -29.38315,-2.26023 -36.70577,-8.3641 -66.52892,8.67771 -3.45167,1.97237 -2.03017,7.68945 -2.89257,11.57025 -3.64892,16.42018 -2.89257,10.97761 -2.89257,26.03304 0,27.66788 -0.68179,40.44289 8.6777,75.20663 1.60502,5.96152 7.77989,9.5895 11.57025,14.46282 12.98744,16.69816 3.69445,6.58701 17.35537,20.24793 2.89256,2.89265 5.36938,6.2716 8.67768,8.67779 7.71351,4.82095 15.427,9.64189 23.1405,14.46284 0.96419,-0.96419 1.529,-2.89257 2.89256,-2.89257 3.04902,0 6.2968,4.79707 8.67769,2.89257 4.05452,-3.24372 3.962,-9.60115 5.78513,-14.46284 1.07058,-2.85494 2.77069,-5.63123 2.89257,-8.67779 0.84779,-21.19517 1.5113,-42.47814 0,-63.63638 -0.43447,-6.08255 -2.04128,-12.54184 -5.78514,-17.35536 -3.45164,-4.43785 -10.72768,-4.47566 -14.46281,-8.67769 -4.29707,-4.83423 -4.63717,-12.30474 -8.67769,-17.35538 -10.86492,-13.58116 -63.32073,-37.44549 -63.63635,-37.60332 -2.72714,-1.36354 -5.78514,-1.92835 -8.67771,-2.89254 -2.89254,-0.96419 -5.62864,-2.89257 -8.67768,-2.89257 -2.156,0 -3.62914,2.89257 -5.785108,2.89257 -2.155999,0 -3.900469,-3.93961 -5.785142,-2.89257 -7.770693,4.31705 -14.694795,10.41395 -20.24793,17.35539 -2.48343,3.1043 -2.030171,7.68945 -2.892569,11.57025 -1.066526,4.79932 -2.447458,9.56657 -2.892569,14.46279 -0.523751,5.76136 0,11.57025 0,17.35538 0,5.78512 0,11.57025 0,17.35537 0,21.21212 -0.963177,42.44614 0,63.63638 0.04386,0.96318 2.396511,-0.82679 2.892569,0 26.65355,44.42259 -8.315052,-3.61445 11.57025,20.24804 3.086289,3.70337 5.268784,8.16122 8.677681,11.57027 1.524535,1.52428 3.642326,2.65431 5.785137,2.89257 18.351961,2.03894 45.036611,8.26712 63.636361,-2.89257 4.677,-2.8064 7.03204,-8.54482 11.57025,-11.57027 1.60452,-1.06983 3.85675,0 5.78513,0 6.74931,-4.82095 14.76028,-8.2435 20.24793,-14.46293 19.95414,-22.61467 19.81263,-24.72714 26.03307,-43.38843 0.96419,-2.89256 2.89257,-5.62866 2.89257,-8.67768 0,-4.9164 -2.89257,-9.54641 -2.89257,-14.46281 0,-3.97545 2.45353,-7.61913 2.89257,-11.57025 0.53237,-4.79147 0,-9.64187 0,-14.46282 0,-25.06888 1.51654,-50.18365 0,-75.20661 -0.42466,-7.00653 -4.40851,-13.36486 -5.78514,-20.24793 -0.56727,-2.83641 0.40906,-5.81421 0,-8.67771 -0.56221,-3.93548 -1.92838,-7.71349 -2.89257,-11.57025 -3.80004,-15.20022 -3.41006,-26.92824 -31.81818,-23.1405 -7.46448,0.99528 -9.87135,11.3865 -14.46281,17.35539 -5.05708,6.57422 -9.55789,13.55941 -14.4628,20.24793 -5.70185,7.77526 -11.57025,15.42701 -17.35538,23.1405 -2.89257,3.85676 -6.29804,7.37754 -8.67768,11.57025 -66.422234,117.02962 -39.97982,57.62033 -57.85125,115.70249 -1.793341,5.82841 -4.694267,11.35569 -5.785138,17.35537 -0.862372,4.74319 0.479707,9.6658 0,14.46281 -0.48918,4.89201 -2.282754,9.58439 -2.892543,14.46282 -0.358787,2.87033 -0.18038,5.79067 0,8.67779 0.784173,12.54692 -0.346641,25.45616 2.892543,37.60313 0.895749,3.35922 6.219504,3.32704 8.677707,5.78514 0.681785,0.68181 -0.681785,2.21072 0,2.89252 3.408897,3.4091 7.436329,6.19729 11.57025,8.67779 0.826763,0.4962 1.947092,-0.1895 2.892543,0 8.71677,1.7433 17.247078,4.4334 26.033068,5.7851 4.00067,0.6156 22.27761,0.863 26.03307,-2.8926 3.04901,-3.049 3.27884,-8.06129 5.78511,-11.57029 2.37769,-3.32855 7.0302,-4.93328 8.6777,-8.67766 11.85362,-26.93995 24.06158,-54.31203 26.03305,-83.88424 0.51311,-7.69641 0,-15.42698 0,-23.14049 0,-6.74931 0,-13.49863 0,-20.24793 0,-5.78514 2.94307,-12.3748 0,-17.35539 -9.72526,-16.45813 -32.34954,-47.57434 -54.95868,-57.85125 -4.47574,-2.0344 -9.64187,-1.92835 -14.46282,-2.89254 -4.82092,-0.96419 -9.57078,-2.40337 -14.462788,-2.89257 -4.797022,-0.47971 -10.424749,-2.63352 -14.462822,0 -33.066332,21.56499 -53.369674,32.11623 -60.743817,66.52893 -1.212154,5.65671 0,11.57025 0,17.35538 0,7.7135 0.51311,15.44409 0,23.1405 -0.453519,6.80272 -4.978878,13.75716 -2.892569,20.24793 6.862694,21.35061 15.821768,42.544 28.925637,60.74395 5.039013,6.99849 15.213822,8.1729 23.140499,11.57002 15.619664,6.6943 22.91784,7.00367 40.49586,8.6777 12.51484,1.19207 25.0512,2.19519 37.60332,2.89257 4.81352,0.26759 9.9632,1.73061 14.46281,0 33.44267,-12.86252 67.4245,-25.2872 98.3471,-43.38827 14.14792,-8.28181 25.74142,-36.26659 31.81821,-52.06622 2.95727,-7.68891 7.2295,-15.03076 8.67768,-23.14049 3.40679,-19.07814 4.94329,-38.48962 5.78511,-57.85125 0.13236,-3.04614 -0.51166,-6.77297 -2.89257,-8.67768 -3.1043,-2.48346 -7.74775,-1.80043 -11.57022,-2.89257 -11.54194,-3.29769 -16.8951,-8.03846 -31.81821,-2.89257 -14.32936,4.94117 -65.29538,25.35255 -80.99173,46.281 -3.65884,4.87846 -3.52035,11.69348 -5.78512,17.35538 -1.60143,4.00356 -4.1837,7.56667 -5.78513,11.57025 -8.53239,21.33102 -9.61997,30.94164 -2.89255,57.85125 1.05508,4.2204 21.9406,10.54722 26.03305,11.57033 0.9354,0.23358 1.98978,0.33844 2.89256,0 61.15741,-22.93411 31.60464,-1.87024 54.95867,-43.38853 4.06636,-7.22906 10.7535,-12.82933 14.46282,-20.24793 2.19869,-4.39736 1.23899,-9.83282 2.89257,-14.46282 3.19389,-8.94291 9.19735,-16.83815 11.57025,-26.03304 5.38734,-20.87597 7.34201,-42.49518 11.57025,-63.63639 3.80726,-19.03635 2.89257,1.59513 2.89257,-17.35536 0,-0.96419 0.94545,-2.70347 0,-2.89257 -4.72734,-0.94545 -9.6419,0 -14.46282,0 -3.85676,0 -8.72723,-2.60609 -11.57025,0 -61.74176,56.59661 -47.03555,42.09932 -69.42149,89.66943 -7.97352,16.94375 -16.0729,27.04363 -17.35538,46.281 -0.45352,6.80274 1.30146,13.61835 2.89256,20.24793 4.20364,17.51513 7.77314,35.34205 14.46282,52.06626 1.29111,3.22764 5.56827,4.23024 8.67768,5.78488 7.98539,3.99276 29.34475,8.14487 37.60332,5.78514 22.57609,-6.45008 45.52822,-12.6401 66.52892,-23.14029 5.02858,-2.51442 5.55908,-9.78491 8.67768,-14.46293 2.67419,-4.01126 5.50309,-7.94212 8.67768,-11.57025 8.63423,-9.86769 13.90587,-11.72478 20.24795,-23.1405 10.95717,-19.72288 9.6283,-46.13864 11.57025,-66.52892 0.27423,-2.87954 0,-5.78514 0,-8.67768 0,-7.68391 1.21961,-13.39432 -2.89256,-20.24793 -8.959,-14.93168 -50.19743,-17.35539 -52.06614,-17.35539 -5.45425,0 -7.49366,7.94663 -11.57022,11.57025 -4.61438,4.10166 -10.09729,7.20471 -14.46282,11.57025 -17.15949,17.15946 -14.23043,62.13809 -11.57025,78.09918 1.28825,7.72958 17.09307,23.55013 23.1405,28.92563 17.67714,15.71302 11.78494,9.66679 34.71075,20.24793 5.87265,2.71045 11.21932,6.63236 17.35536,8.67779 34.81674,11.60557 70.86934,6.57362 107.02481,0 6.07421,-1.1046 9.68454,-7.66083 14.46282,-11.57036 5.55791,-4.54739 27.45327,-22.06649 31.81818,-28.92561 3.27388,-5.1447 4.5074,-11.3927 5.78511,-17.35538 4.51744,-21.08132 9.00151,-42.23006 11.57025,-63.63636 0.12095,-1.0086 -4.14202,-12.81973 -5.78511,-14.46282 -2.4582,-2.45821 -6.21948,-3.32691 -8.67768,-5.78511 -14.6092,-14.6092 29.6666,0.87488 -23.1405,-20.24796 -2.83095,-1.13237 -5.68789,2.29461 -8.67771,2.89257 -5.50496,1.10099 -9.21962,-2.35063 -14.46279,2.89257 -3.04904,3.04902 -3.49979,7.9137 -5.78514,11.57025 -12.18969,19.50349 -26.69928,37.60087 -37.60331,57.85124 -3.6851,6.84378 -2.89255,24.03978 -2.89255,31.81818 0,7.7135 0,15.42701 0,23.1405 0,3.85676 -2.58003,8.70356 0,11.57025 6.97682,7.75204 17.48905,11.37459 26.03304,17.35547 1.11709,0.78199 1.529,2.89257 2.89257,2.89257 2.156,0 3.62915,-2.89257 5.78514,-2.89257 0.84026,0 9.59464,6.25101 11.57025,2.89257 15.13497,-25.72957 20.87513,-37.53332 26.03304,-60.74392 1.06653,-4.79933 2.89257,-9.54639 2.89257,-14.4628 0,-3.97544 -2.89257,-7.5948 -2.89257,-11.57025 0,-3.04904 3.39382,-5.67016 2.89257,-8.6777 -2.15895,-12.95365 -4.21204,-30.03642 -20.24793,-31.81818 -4.88635,-0.54293 -9.5666,2.44746 -14.46282,2.89257 -5.76136,0.52375 -11.57025,0 -17.35536,0 -3.85676,0 -8.6877,-2.56228 -11.57025,0 -43.03556,38.25382 -40.49588,27.83845 -40.49588,57.85124 0,4.82095 0,9.64187 0,14.46282 0,1.92838 -1.6045,4.71545 0,5.78511 7.90126,5.26752 17.38808,7.64072 26.03306,11.57025 1.96275,0.89217 3.62915,2.89257 5.78512,2.89257 3.04904,0 5.68788,-2.29459 8.6777,-2.89257 1.89093,-0.37817 4.6509,1.55955 5.78511,0 33.17446,-45.61486 14.46282,-17.82715 14.46282,-43.38842 0,-3.85676 2.04408,-8.29974 0,-11.57025 -3.27212,-5.23539 -9.22744,-8.29813 -14.46282,-11.57025 -2.58556,-1.61598 -5.68786,-2.29459 -8.67768,-2.89257 -1.89092,-0.37818 -5.4243,-1.8943 -5.78513,0 -3.80576,19.98034 -4.16312,40.46902 -5.78512,60.74381 -0.3123,3.90389 -0.9727,16.38266 2.89257,20.24793 10.46565,10.46565 5.65488,-1.5114 14.46279,2.89257 16.09455,8.04726 -10.16564,18.00743 31.81821,8.67768 2.82366,-0.62749 -0.79466,-5.8964 0,-8.67768 -5.79118,-10.50805 6.58966,-9.2428 8.67768,-14.46282 9.04262,-22.60654 0,-1.60302 0,-20.24793 0,-11.61034 2.06537,-23.12991 2.89257,-34.71074 0.1373,-1.92348 0.317,-3.883 0,-5.78514 -6.04055,-36.24325 2.38299,-0.50953 -8.67771,-11.57025 -0.96419,-0.96417 3.50239,-1.67294 2.89257,-2.89254 -0.96419,-1.92838 -3.99122,-4.08851 -5.78511,-2.89257 -6.94216,4.62811 -0.77135,12.72727 0,17.35536 0.47553,2.85322 0,5.78514 0,8.6777 0,6.74931 0,13.49863 0,20.24793 0,2.89257 0,5.78512 0,8.67769 0,0.96418 -0.4312,3.75496 0,2.89256 3.2839,-6.5678 6.56768,-13.21458 8.67768,-20.24793 0.83118,-2.77058 -0.35879,-5.80745 0,-8.6777 0.60982,-4.87844 2.34964,-9.57647 2.89257,-14.4628 0.4259,-3.83316 0,-7.71351 0,-11.57024 0,-3.85676 0.34916,-7.72935 0,-11.57025 -0.61726,-6.78985 0.88929,-14.57518 -2.89257,-20.24793 -8.32009,-12.48015 -21.21212,-21.21215 -31.81818,-31.81821 -6.18109,-6.18107 -13.87249,-11.57025 -23.1405,-11.57025 -1.36357,0 -1.67296,2.28275 -2.89257,2.89257 -0.86239,0.4312 -2.39648,-0.82679 -2.89257,0 -5.54623,9.24374 -11.29256,18.62238 -14.46281,28.92561 -0.89666,2.91421 2.39132,5.67016 2.89257,8.67771 0.47552,2.85319 0,5.78511 0,8.67768 0,4.38915 -2.156,15.6201 2.89256,20.24793 10.10173,9.25993 21.29074,17.26019 31.81818,26.03307 3.78046,3.15037 2.67957,4.28559 8.67768,5.78511 1.87082,0.46771 3.85676,0 5.78514,0 1.53331,0 14.3385,0.4973 14.46282,0 2.81593,-11.26368 2.89254,-23.10038 2.89254,-34.71075 0,-4.91641 -1.16629,-9.85942 -2.89254,-14.46279 -1.22067,-3.2551 -3.65081,-5.93357 -5.78514,-8.67768 -4.62331,-5.94427 -9.39723,-11.78323 -14.46282,-17.35539 -26.39247,-29.03174 -27.97128,-21.66437 -80.99174,-46.281 -4.70945,-2.18654 -9.33087,-4.99559 -14.4628,-5.78511 -7.62382,-1.17291 -15.427,0 -23.14049,0 -7.71352,0 -15.42701,0 -23.1405,0 -3.61988,0 -29.32338,-1.32365 -34.71075,2.89254 -18.79943,14.71263 -36.60535,30.98444 -52.06612,49.17357 -1.97469,2.32316 2.39132,5.67013 2.89256,8.67768 0.47553,2.85322 0,5.78514 0,8.67771 0,0.96416 0,1.92835 0,2.89254 0,2.89257 -2.65867,7.53825 0,8.67771 63.55553,27.23808 41.56946,17.10747 83.88431,14.46279 7.69846,-0.48116 15.42698,0 23.1405,0 6.7493,0 13.60132,1.17293 20.24793,0 43.18951,-7.62167 56.55012,-28.06407 95.45456,-60.74382 12.85077,-10.79464 -0.0278,-5.748 8.67768,-17.35536 5.83315,-7.77755 41.05024,2.38291 -8.67768,-26.03307 -7.53436,-4.30532 -17.35539,0 -26.03307,0 -4.82094,0 -9.64187,0 -14.46281,0 -5.78512,0 -11.57025,0 -17.35537,0 -5.78513,0 -11.81888,-1.67771 -17.35538,0 -26.56816,8.05097 -53.10964,16.83392 -78.09918,28.92564 -5.55742,2.68906 -7.46859,9.84844 -11.57025,14.46279 -3.15548,10.06713 -13.96219,11.06965 -20.24792,17.35539 -5.76331,5.76328 -0.84265,9.83899 -2.89257,17.35539 -2.89257,6.7493 -5.78511,13.4986 -8.67768,20.24793 0.96419,0 2.09031,-0.53484 2.89257,0 2.2691,1.51272 3.11095,5.25027 5.78511,5.78511 2.98982,0.59798 5.97446,-1.48218 8.67767,-2.89257 35.32487,-18.43035 53.54123,-17.05866 66.52893,-46.281 1.61459,-3.6328 1.1147,-8.01448 2.89257,-11.57025 13.48972,-26.9794 9.26019,-1.13842 5.78514,-17.35536 -4.86154,-22.68716 3.53158,-32.78398 -14.46282,-40.49586 -3.65401,-1.56601 -7.71349,-1.92838 -11.57025,-2.89257 -3.85676,-0.96419 -7.63475,-2.33035 -11.57025,-2.89257 -2.8635,-0.40906 -5.78511,0 -8.67768,0 -28.43713,0 -29.32559,-1.22689 -69.42149,14.46282 -15.59347,6.10178 -8.14334,9.45601 -14.46282,17.35536 -2.55542,3.19431 -5.78511,5.78514 -8.67768,8.67771 -1.92838,1.92835 -4.38204,3.44661 -5.78513,5.78511 -1.56871,2.61452 -1.69148,5.8752 -2.89255,8.67768 -1.69858,3.96335 -4.1837,7.5667 -5.78513,11.57025 -1.40393,3.50981 3.28909,8.17848 5.78513,8.67768 2.98982,0.59798 5.70969,-2.1942 8.67768,-2.89254 13.43808,-3.16192 27.6295,-3.6741 40.49586,-8.67771 5.08342,-1.97686 7.38017,-8.07851 11.57025,-11.57022 1.65628,-1.38023 4.10159,-1.54574 5.78514,-2.89257 5.32382,-4.25907 9.00853,-10.37211 14.46281,-14.46282 1.72477,-1.2936 4.58918,-1.09868 5.78511,-2.89257 2.88016,-4.32024 4.5258,-9.42552 5.78514,-14.46279 0.3307,-1.32287 -1.529,2.89254 -2.89257,2.89254 -2.156,0 -3.64578,-2.62514 -5.78514,-2.89254 -5.74045,-0.71758 -11.57025,0 -17.35535,0 -5.78514,0 -11.62452,-0.79048 -17.35539,0 -22.29806,3.07559 -44.69181,6.11096 -66.52892,11.57025 -5.45428,1.36354 -9.58143,5.8883 -14.46282,8.67768 -5.06199,2.89257 -13.01651,5.78511 -17.35536,8.67768 -2.26911,1.51275 -3.73275,3.9893 -5.78514,5.78514 -18.83679,16.48219 -17.35536,6.73126 -17.35536,20.24793 0,0.96419 0,1.92838 0,2.89254 0,1.92838 -1.6045,4.71547 0,5.78514 2.40676,1.6045 5.78511,0 8.67768,0 15.42701,0 30.87532,-0.81083 46.281,0 3.04481,0.16013 5.68786,2.29459 8.67768,2.89257 6.54906,1.30982 9.07062,-1.29163 14.46281,-5.78514 3.14256,-2.61881 5.5718,-6.01548 8.67769,-8.67768 3.66033,-3.13742 8.55863,-4.91316 11.57025,-8.67768 1.20465,-1.50582 1.92837,-5.78514 0,-5.78514 -31.84222,0 -23.32166,2.63464 -40.49587,17.35539 -2.63949,2.26243 -6.50598,3.07048 -8.67768,5.78511 -1.90473,2.38089 -1.06315,6.23847 -2.89256,8.67768 -1.2936,1.7248 -4.82095,0.96419 -5.78514,2.89257 -3.35263,6.70528 -14.82898,30.35349 -11.57025,43.38843 0.23384,0.9354 1.94151,-0.15858 2.89257,0 10.63328,1.77221 21.27752,8.04386 31.81818,5.78514 5.49733,-1.178 5.5591,-9.78493 8.6777,-14.46282 25.83995,-34.45329 -4.677,9.35399 11.57025,-23.1405 2.15597,-4.31197 7.96255,-6.80264 8.67768,-11.57025 2.28844,-15.25631 0,-30.85399 0,-46.281 0,-1.92838 1.15703,-4.24241 0,-5.78511 -2.08586,-2.78115 -5.78513,-3.85676 -8.67768,-5.78514 -2.89257,-1.92838 -5.56829,-4.23042 -8.6777,-5.78511 -20.32058,-10.1603 -57.72172,2.0412 -69.4215,5.78511 -5.88008,1.88164 -7.55237,9.7753 -11.57025,14.46282 -1.77478,2.07061 -3.655588,4.08149 -5.785111,5.78514 -5.526039,4.42081 -10.471878,5.58384 -14.462818,11.57022 -2.391839,3.5878 -3.566619,7.87277 -5.785112,11.57025 -0.701561,1.16925 -2.136193,1.75802 -2.892569,2.89257 -5.479737,8.21962 -2.892569,10.98099 -2.892569,23.1405 0,1.92838 -1.363569,4.42157 0,5.78514 1.363569,1.36357 3.914325,-0.46772 5.785138,0 2.091604,0.52289 3.936359,1.78329 5.785112,2.89257 2.98102,1.78859 5.379659,4.68577 8.677681,5.78511 2.744138,0.91472 5.785137,0 8.67771,0 12.534438,0 25.402068,2.87087 37.603288,0 5.3093,-1.24925 7.71351,-7.71349 11.57025,-11.57025 2.89257,-2.89257 6.12225,-5.4834 8.6777,-8.67768 1.34683,-1.68356 1.36804,-4.26063 2.89255,-5.78514 2.4582,-2.4582 7.01299,-2.73319 8.6777,-5.78511 4.3801,-8.03018 6.45919,-17.1591 8.67768,-26.03307 0.70154,-2.8062 0,-5.78511 0,-8.67768 0,-0.96419 0.8624,-2.46137 0,-2.89257 -1.72479,-0.8624 -3.88299,0.31703 -5.78513,0 -22.96775,-3.82795 -0.16741,-2.89257 -23.1405,-2.89257 -7.71349,0 -15.42698,0 -23.1405,0 -3.85673,0 -8.44366,-2.25807 -11.57025,0 -14.933337,10.78519 -26.728011,25.36522 -40.49586,37.60332 -3.603214,3.20285 -9.178384,4.49193 -11.570249,8.67768 -1.913482,3.3486 0.545422,7.75227 0,11.57025 -0.431199,3.01839 -2.153063,5.71971 -2.892569,8.67771 -0.233845,0.93538 0,1.92835 0,2.89254 0,11.57025 -0.82435,23.1699 0,34.71075 0.153647,2.15052 1.043816,4.67589 2.892569,5.78513 3.408923,2.04536 7.648891,2.239 11.570249,2.89255 1.90214,0.31702 4.180612,-1.06967 5.785112,0 1.793912,1.19593 0.736573,5.78514 2.892569,5.78514 12.681909,0 25.572199,-1.77476 37.603319,-5.78514 3.29802,-1.09933 3.85675,-5.78511 5.78511,-8.67768 16.57936,-24.86904 -3.29802,6.59607 8.6777,-17.35536 1.5547,-3.10942 4.49401,-5.44992 5.78512,-8.67771 0.71617,-1.79044 0,-3.85673 0,-5.78511 0,-2.89257 -0.28783,-5.79949 0,-8.67768 0.67841,-6.78401 2.04691,-13.48275 2.89257,-20.24796 0.11964,-0.95674 0.68178,-2.21076 0,-2.89254 -0.0722,-0.0721 -13.37616,0 -14.46282,0 -25.02673,0 -7.58951,-1.61901 -37.603318,49.17354 -5.752514,9.73504 -6.526565,18.17013 -8.677681,28.92564 -0.96419,4.82094 -2.282755,9.58435 -2.892569,14.46281 -0.358762,2.87023 0.475554,5.82449 0,8.67768 -0.501249,3.00755 -2.461344,5.65932 -2.892543,8.67768 -0.743425,5.20393 0,16.93912 0,23.1405 0,0.70154 -0.09292,8.58467 0,8.67768 1.363569,1.36357 5.785112,-1.92835 5.785112,0 0,0.96419 -3.427402,0.80227 -2.892569,0 12.291899,-18.43779 15.125994,-11.09046 17.355387,-28.92561 0.713708,-5.70961 0,-16.63366 0,-23.1405 0,-6.7493 1.854177,-13.75832 0,-20.24793 -0.529772,-1.85417 -3.856758,0 -5.785137,0 -0.964164,0 -1.928354,0 -2.892543,0 -1.92838,0 -3.856759,0 -5.785138,0 -1.928379,0 -4.421543,-1.36356 -5.785112,0 -3.049045,3.04902 -3.691042,7.80091 -5.785138,11.57025 -51.379238,92.48271 -16.610015,12.88319 -23.140499,52.06611 -0.354427,2.12667 -2.469727,3.67101 -2.892569,5.78514 -0.567275,2.83638 0,5.78511 0,8.67768 0,2.89265 -1.293571,6.09044 0,8.67779 8.501142,17.00218 15.629709,17.35541 31.818206,17.35541 2.892543,0 5.785112,0 8.677681,0 0.964189,0 2.128328,0.58786 2.892569,0 11.937783,-9.18303 24.462411,-17.88903 34.710751,-28.92577 7.71349,-8.30685 0,-14.83365 0,-23.1405 0,-5.97164 5.50766,-13.71018 2.89254,-20.24793 -4.80429,-12.01071 -9.8365,-24.18434 -17.35536,-34.71074 -7.12538,-9.97551 -14.319294,-3.57983 -23.1405,-5.78514 -4.183234,-1.04579 -7.291584,-5.25028 -11.57025,-5.78511 -3.944742,-0.4931 -7.648891,2.23899 -11.570249,2.89256 -18.124949,3.02081 4.659618,-17.74931 -34.710749,14.4628 -3.076816,2.5174 -1.326559,7.91624 -2.892569,11.57025 -1.369435,3.19534 -5.213606,5.24856 -5.785112,8.6777 -0.501275,3.00755 2.391294,5.67014 2.892543,8.67768 0.475555,2.8532 -1.159389,6.02766 0,8.67768 5.706082,13.04247 10.983249,26.79451 20.247956,37.60332 3.199553,3.73278 9.735564,1.54201 14.462793,2.89265 2.073046,0.59227 3.693508,2.3696 5.785138,2.89257 12.838334,3.20946 13.601069,2.89257 23.140499,2.89257 15.42701,0 30.88062,0.90579 46.281,0 1.3612,-0.0805 1.92838,-1.92838 2.89256,-2.89257 2.89255,-2.89257 5.16993,-6.57313 8.67769,-8.67779 4.54264,-2.72558 7.85992,3.90979 11.57025,-2.89257 3.85675,-9.64187 7.71349,-19.28374 11.57024,-28.92561 -0.96419,0 -2.65872,0.93541 -2.89256,0 -0.93541,-3.7416 0,-7.71349 0,-11.57025 0,-0.96419 0.80226,-2.35773 0,-2.89256 -13.1195,-8.74633 -14.43235,-8.67769 -26.03307,-8.67769 -1.92836,0 -4.42154,-1.36356 -5.78511,0 -1.36357,1.36357 0.13729,3.86164 0,5.78512 -0.82721,11.58086 -2.06537,23.12991 -2.89257,34.71075 -0.1373,1.92347 0,3.85675 0,5.78513 0,3.85676 -1.21961,7.91142 0,11.57025 0.8624,2.58717 4.14884,3.60353 5.78513,5.78522 1.29358,1.72464 1.36804,4.2606 2.89255,5.78514 7.49703,7.4968 34.78731,16.58717 37.60332,17.35515 1.31552,0.35894 1.55547,-2.62498 2.89256,-2.89231 3.78186,-0.75656 7.7135,0 11.57025,0 0.96419,0 1.97785,0.3047 2.89257,0 2.04533,-0.68181 4.2606,-1.36829 5.78511,-2.89257 0.68179,-0.68181 -0.49605,-2.06593 0,-2.89257 2.48035,-4.13394 6.19734,-7.43633 8.67769,-11.57027 0.49608,-0.8269 0,-1.92838 0,-2.89257 0,-3.58736 0.68178,-7.95923 -5.78512,-8.67779 -6.77613,-0.75289 -13.46395,2.21416 -20.24793,2.89257 -2.87821,0.28791 -5.78513,0 -8.6777,0 -0.96419,0 -2.78608,-0.9583 -2.89255,0 -0.95829,8.62458 -3.52434,18.10323 0,26.0332 1.56638,3.52429 7.95904,-1.35428 11.57025,0 4.51397,1.69272 7.3845,6.28579 11.57025,8.67745 2.64728,1.51285 5.74598,2.05503 8.67768,2.89257 23.27102,6.64888 16.21336,2.27927 54.95867,0 1.92506,-0.1142 4.13156,0.99222 5.78514,0 3.50773,-2.10461 5.53512,-6.0587 8.67768,-8.67771 2.67066,-2.22555 6.50598,-3.07035 8.67768,-5.78488 1.90471,-2.38102 1.25562,-6.10541 2.89257,-8.67771 5.17649,-8.13449 12.67285,-14.7121 17.35536,-23.1406 0.66221,-1.19199 -3.22328,-1.56972 -2.89254,-2.89257 1.92835,-2.89257 3.85673,-5.78513 5.78511,-8.67768 -0.96419,-0.96419 -2.89257,-1.529 -2.89257,-2.89257 0,-1.36357 2.28275,-1.67294 2.89257,-2.89257 0.4312,-0.86239 0,-3.85673 0,-2.89256 0,1.92837 -0.46769,3.91432 0,5.78513 0.52289,2.09161 2.89257,3.62915 2.89257,5.78512 0,1.36356 -3.50239,1.67296 -2.89257,2.89256 0.96419,1.92838 3.85676,1.92838 5.78511,2.89257 1.92838,0.96419 3.78336,2.09184 5.78514,2.89257 5.00184,2.00074 14.90637,5.56334 20.24793,2.89254 3.10941,-1.55469 3.85676,-5.78511 5.78513,-8.67768 3.9753,-5.96292 7.75648,-9.9857 8.67769,-17.35536 1.55928,-12.47441 2.89256,-25.03184 2.89256,-37.60331 0,-2.156 -1.92837,-3.85676 -2.89256,-5.78514 -0.96419,-1.92836 -1.36806,-4.2606 -2.89257,-5.78511 -3.98072,-3.98072 -13.02775,-4.03141 -17.35536,-2.89257 -14.7432,3.87978 -29.91498,7.32981 -43.38843,14.46282 -3.8109,2.01753 -3.56665,7.87277 -5.78514,11.57024 -3.57721,5.96202 -6.99176,12.12281 -11.57025,17.35537 -2.28924,2.61628 -7.38658,2.55734 -8.67768,5.78513 -1.1324,2.83096 3.32374,5.65932 2.89257,8.67768 -0.60982,4.26865 -4.08656,7.60693 -5.78514,11.57025 -1.20107,2.80251 -2.29459,5.68787 -2.89257,8.67768 -0.75638,3.78186 0,7.7136 0,11.57036 0,1.92838 -1.72477,4.92269 0,5.78514 15.42633,7.71299 32.74212,5.78513 49.17357,5.78513 6.93217,0 17.16442,0.5671 23.1405,-2.89257 28.9852,-16.78102 31.02318,-19.45306 46.28099,-34.71085 1.92838,-1.92838 3.85676,-3.85676 5.78512,-5.78514 1.92838,-1.92837 5.1237,-3.13941 5.78513,-5.78511 0.5229,-2.09163 -1.92837,-3.85676 -2.89256,-5.78514 1.92837,-4.82092 4.14318,-9.53693 5.78513,-14.46281 0.30491,-0.9147 0,-1.92836 0,-2.89255 0,-0.96419 0.8624,-2.46137 0,-2.89257 -1.72479,-0.86239 -4.18063,1.06967 -5.78513,0 -1.79389,-1.19593 -1.92838,-3.85675 -2.89257,-5.78513 -7.71349,0.96419 -15.36695,2.89257 -23.1405,2.89257 -1.36355,0 -1.67294,-2.28276 -2.89255,-2.89257 -0.86239,-0.43118 -1.92837,0 -2.89256,0 -0.96419,0 -2.03018,-0.43118 -2.89257,0 -2.89257,1.92838 -5.78512,3.85676 -8.67768,5.78513 0.96419,0.96419 3.26716,1.58146 2.89256,2.89257 -1.77688,6.21909 -6.90079,11.13628 -8.6777,17.35536 -0.3746,1.31112 2.28278,1.67297 2.89257,2.89257 0.4312,0.8624 0,1.92838 0,2.89257 0,0.96419 0.96419,2.89255 0,2.89255 -0.96419,0 -0.96419,-2.89255 0,-2.89255 1.36357,0 1.59897,2.46135 2.89257,2.89255 4.6641,1.55472 9.54641,2.89256 14.46281,2.89256 4.66292,0 5.7417,-3.58312 8.67769,-5.78511 2.78114,-2.08587 5.96305,-3.61341 8.67768,-5.78514 13.97221,-11.17777 18.31475,-32.55952 26.03306,-46.28099 1.33702,-2.37689 4.56551,-3.34591 5.78512,-5.78512 1.77787,-3.55574 1.80042,-7.74777 2.89256,-11.57024 0.83764,-2.93174 2.89257,-5.62867 2.89257,-8.67771 0,-1.36354 -3.22327,-1.5697 -2.89257,-2.89254 0.84317,-3.37264 5.10336,-5.26879 5.78514,-8.67768 0.42282,-2.11414 -2.21078,-3.73979 -2.89257,-5.78514 -0.3049,-0.9147 -0.11964,-3.84931 0,-2.89257 1.08296,8.66366 0.99853,17.50989 2.89257,26.03307 0.20919,0.94122 2.12119,-0.57852 2.89255,0 3.27256,2.45441 5.48339,6.12225 8.6777,8.67768 1.68353,1.34683 3.99123,1.69663 5.78511,2.89257 1.13456,0.75637 1.67297,2.28275 2.89257,2.89256 0.8624,0.4312 1.93583,-0.11964 2.89257,0 6.76519,0.84564 13.43009,2.89255 20.24793,2.89255 1.36357,0 -3.50238,-1.67294 -2.89257,-2.89255 0.96419,-1.92837 4.2606,-1.36805 5.78514,-2.89256 0.68179,-0.68179 -0.4312,-2.03017 0,-2.89257 0.60979,-1.21961 1.92835,-1.92838 2.89254,-2.89257 -0.96419,-9.64187 -2.89254,-19.23565 -2.89254,-28.92561 0,-0.96419 2.89254,0.96419 2.89254,0 -0.96419,-3.85676 -1.92835,-7.71349 -2.89254,-11.57025 -0.96419,0 -2.21078,0.68178 -2.89257,0 -3.40892,-3.40893 -6.28584,-7.3845 -8.67768,-11.57025 -1.51275,-2.64731 -0.45334,-6.84827 -2.89257,-8.67768 -2.31405,-1.73554 -5.8413,0.56727 -8.67768,0 -4.22826,-0.84566 -7.25828,-5.78514 -11.57025,-5.78514 -1.36357,0 -1.59897,2.46137 -2.89257,2.89257 -1.82941,0.60981 -3.85676,0 -5.78513,0 -3.85674,0 -8.2631,-1.98429 -11.57025,0 -7.58578,4.55147 -4.58986,11.22363 -8.67768,17.35536 -0.53484,0.80226 -2.89257,-0.96416 -2.89257,0 0,3.04905 2.15306,5.71971 2.89257,8.67771 0.59361,2.37447 -0.85033,9.86959 0,11.57025 6.01908,12.03814 -0.19959,-3.09226 5.78513,2.89257 1.52451,1.5245 0.80094,5.26221 2.89255,5.78511 2.95799,0.7395 5.68788,-2.29459 8.6777,-2.89257 7.64874,-1.52975 9.2224,2.52942 17.35536,-2.89254 0.80227,-0.53486 -0.23384,-1.95719 0,-2.89257 0.73951,-2.958 1.7602,-5.84676 2.89257,-8.67768 0.80071,-2.00181 2.36965,-3.69354 2.89257,-5.78514 0.46769,-1.87079 0,-3.85676 0,-5.78514 0,-0.96416 -0.53483,-2.09031 0,-2.89254 1.51273,-2.26913 5.25028,-3.11095 5.78511,-5.78514 0.59798,-2.98982 -2.29459,-5.68786 -2.89257,-8.67768 -1.45292,-7.26467 3.17931,-17.06865 -2.89254,-23.1405 -1.52453,-1.52451 -4.26063,-1.36806 -5.78514,-2.89257 -2.4582,-2.4582 -3.00399,-6.59181 -5.78511,-8.67768 -1.5427,-1.15703 -3.883,0.31703 -5.78514,0 -3.92135,-0.65355 -8.16132,-0.84722 -11.57025,-2.89257 -1.84875,-1.10925 -1.04381,-4.67586 -2.89256,-5.78511 -20.04555,-12.02733 -4.55246,0 -17.35537,0 -3.97544,0 -7.64889,-2.239 -11.57025,-2.89257 -3.80427,-0.63405 -7.71349,0 -11.57024,0 -1.92838,0 -3.85676,0 -5.78514,0 -3.85674,0 -8.12066,-1.7248 -11.57025,0 -1.72477,0.8624 1.36357,4.42157 0,5.78514 -2.15597,2.15597 -6.23845,1.06312 -8.67768,2.89254 -1.7248,1.2936 -1.92838,3.85676 -2.89257,5.78514 -0.96417,1.92838 -2.21076,3.73976 -2.89254,5.78511 -0.30491,0.91472 0.15857,1.94151 0,2.89257 -0.80826,4.84952 -2.89257,9.54641 -2.89257,14.46282 0,6.81678 6.35288,14.22495 11.57025,17.35536 1.65357,0.99214 3.86049,-0.12017 5.78511,0 8.17557,0.51098 42.53156,9.53458 54.9587,-2.89257 17.4346,-17.4346 -7.97905,-0.69863 5.78511,-14.46279 1.52451,-1.52451 5.04834,-0.8664 5.78514,-2.89257 3.36029,-9.24083 3.40031,-19.38639 5.78511,-28.92561 0.52292,-2.09163 2.21079,-3.73979 2.89257,-5.78514 0.30491,-0.9147 0,-1.92838 0,-2.89257 0,-1.92838 0,-3.85673 0,-5.78511 0,-0.96419 0.8624,-2.46137 0,-2.89257 -1.72479,-0.8624 -3.99467,0.71617 -5.78513,0 -30.50785,-12.20314 35.41327,-5.78511 -43.38843,-5.78511 -9.64187,0 -19.28374,0 -28.92562,0 -2.89256,0 -6.23735,-1.55296 -8.6777,0 -8.64706,5.50268 -15.05005,13.95537 -23.1405,20.24793 -1.52215,1.18389 -4.42154,-1.36357 -5.78511,0 -1.52451,1.52451 -1.36806,4.2606 -2.89257,5.78511 -0.68179,0.68179 0,-3.85673 0,-2.89254 0,2.89254 0,5.78511 0,8.67768 0,0.96419 -0.93538,-2.65872 0,-2.89257 3.7416,-0.93541 7.82865,-0.93541 11.57025,0 0.9354,0.23385 0,1.92838 0,2.89257 4.82095,0 9.64187,0 14.46282,0 0.96419,0 1.92838,0 2.89257,0 1.92837,0 6.39492,1.82942 5.78511,0 -1.2936,-3.88079 -5.78511,-5.78514 -8.67768,-8.67768 -1.92838,-1.92838 -3.34591,-4.56554 -5.78514,-5.78514 -1.72477,-0.8624 -3.85673,0 -5.78511,0 -3.85676,0 -7.71349,0 -11.57025,0 -24.04378,0 -44.42374,-0.532 -69.42149,8.67768 -3.73033,1.37434 -0.68739,8.2625 -2.89257,11.57025 -1.92838,2.89257 -6.7493,2.89257 -8.67768,5.78514 -2.20517,3.30775 -1.63541,7.7988 -2.89257,11.57025 -0.68178,2.04535 -2.69736,3.63799 -2.89254,5.78511 -0.78565,8.64205 0,17.35539 0,26.03307 0,0.96419 -0.4312,2.03017 0,2.89257 1.78104,3.5621 8.9053,5.78511 11.57025,5.78511 1.36354,0 1.54268,-2.69973 2.89254,-2.89254 15.47575,-2.21084 13.68501,3.4111 23.14049,-2.89257 4.32733,-2.88489 4.07407,-6.43708 5.78514,-11.57025 0.96419,-2.89257 2.15306,-5.71971 2.89257,-8.67771 0.23384,-0.93538 0,-1.92835 0,-2.89254 0,-9.64187 2.16806,-19.53067 0,-28.92564 -1.42163,-6.1603 -13.52958,-10.637 -17.35538,-14.46279 -1.52451,-1.52454 -0.89076,-4.98443 -2.89257,-5.78514 -3.58089,-1.43237 -7.86189,1.05952 -11.57025,0 -3.34266,-0.95505 -5.33501,-4.83008 -8.67768,-5.78511 -3.70835,-1.05955 -7.71349,0 -11.57025,0 -1.92838,0 -3.85675,0 -5.78511,0 -21.07698,0 -43.53309,-0.56331 -63.63638,5.78511 -4.11184,1.29848 -3.02465,8.25769 -5.78512,11.57025 -2.22555,2.67066 -5.69668,3.99652 -8.6777,5.78514 -1.84873,1.10924 -3.99123,1.69661 -5.78511,2.89254 -1.13456,0.75638 -2.21606,1.70865 -2.89257,2.89257 -9.54008,16.69514 -8.67768,11.59849 -8.67768,23.1405 0,0.96419 0,-3.85676 0,-2.89257 0,2.89257 -2.5872,7.38411 0,8.67768 3.55574,1.7779 7.64889,-2.239 11.57025,-2.89254 1.90214,-0.31703 3.85675,0 5.78511,0 9.8719,0 13.6666,0.79621 23.1405,-8.67771 1.36357,-1.36354 -1.06967,-4.18061 0,-5.78511 1.19593,-1.79389 4.82095,-0.96419 5.78514,-2.89257 0.60981,-1.2196 -2.89257,-1.529 -2.89257,-2.89254 0,-1.36357 2.56186,-1.56972 2.89257,-2.89257 2.41047,-9.64187 2.08906,-8.67768 -2.89257,-8.67768 -2.89257,0 -5.78512,0 -8.67768,0 -3.85676,0 -8.02533,-1.51927 -11.57025,0 -10.3351,4.42933 -20.28754,10.15695 -28.92564,17.35536 -2.614188,2.1785 -7.62792,16.04889 -8.67768,20.24793 -0.233845,0.93541 0.189205,1.94709 0,2.89257 -0.779657,3.89823 -2.562408,7.60853 -2.892568,11.57025 -0.64057,7.68686 0,15.42701 0,23.1405 0,0.96419 -0.534834,2.0903 0,2.89257 12.490008,18.73499 -0.718873,-2.40765 11.570248,5.78511 1.79391,1.19593 0.84721,5.10335 2.89257,5.78514 2.04535,0.68178 3.64578,-3.16 5.78514,-2.89257 6.05095,0.75637 11.3186,4.92274 17.35536,5.78511 1.34986,0.19284 1.92838,-1.92836 2.89257,-2.89254 0.96419,-0.96419 2.46137,-1.59898 2.89256,-2.89257 0.60979,-1.82942 -1.06966,-4.18062 0,-5.78514 1.19591,-1.79389 5.26222,-0.80094 5.78512,-2.89254 0.7395,-2.958 -1.27657,-6.09213 -2.89257,-8.67768 -5.65231,-9.04374 -10.98852,-15.61827 -20.24793,-20.24796 -3.29673,-1.64836 -17.65295,-5.41441 -20.247931,-5.78511 -2.8635,-0.40909 -5.785137,0 -8.67768,0 -15.427008,0 -31.314621,-3.7416 -46.280999,0 -5.989473,1.49736 -7.204715,10.09726 -11.570249,14.46282 -0.681785,0.68175 -1.928379,0 -2.892569,0 -2.892569,1.92835 -6.505983,3.07048 -8.677681,5.78511 -1.904709,2.38088 -2.194225,5.70971 -2.892569,8.67768 -3.161893,13.4381 -6.1335696,26.92726 -8.6776804,40.49588 -0.3553876,1.89534 -0.3782011,3.89419 0,5.78512 0.5979533,2.98981 0.7365734,6.52171 2.8925428,8.67768 2.1559956,2.15599 5.7851376,1.92838 8.6777066,2.89257 8.677681,2.89256 17.436675,5.55173 26.033042,8.67768 2.0262,0.7368 3.671006,2.46975 5.785138,2.89257 3.054522,0.6109 16.064723,0 20.24793,0 7.713517,0 15.610685,1.6733 23.140499,0 2.104659,-0.4677 1.696637,-3.99123 2.892569,-5.78512 0.756377,-1.13455 1.92838,-1.92838 2.892573,-2.89257 0.964188,-0.96418 1.928378,-1.92837 2.892538,-2.89256 0.96419,-0.96419 2.28275,-1.67294 2.89257,-2.89257 0.4312,-0.86238 -0.0872,-1.93233 0,-2.89255 0.87729,-9.65017 2.14938,-19.26419 2.89257,-28.92563 0.2219,-2.88403 0,-5.78511 0,-8.67768 0,-3.85676 1.43234,-7.98936 0,-11.57025 -0.80071,-2.00178 -4.58921,-1.09869 -5.78514,-2.89257 -1.06967,-1.6045 1.7248,-4.92272 0,-5.78511 -3.449566,-1.7248 -7.788393,0.75637 -11.570248,0 -3.359974,-0.672 -1.680571,-4.94486 -5.785112,-2.89257 -2.404557,1.20226 -5.46484,6.75599 -5.785138,8.67768 -3.092492,18.55508 -2.892543,36.39856 -2.892543,54.95868 0,1.92838 0,3.85676 0,5.78513 0,0.96419 -0.681785,2.21079 0,2.89257 6.285738,6.28574 12.851519,12.42442 20.24793,17.35536 1.6045,1.06967 3.856761,0 5.785111,0 2.89257,0 5.78514,0 8.67771,0 0.96419,0 1.92835,0 2.89254,0 2.89257,0 6.36365,1.73555 8.67771,0 2.4392,-1.82941 1.61482,-5.90927 2.89254,-8.67768 4.51744,-9.78775 10.3167,-18.97491 14.46282,-28.92563 0.74168,-1.78003 0,-3.85674 0,-5.78511 0,-5.78514 0,-11.57025 0,-17.35539 0,-0.96417 0,-1.92836 0,-2.89254 0,-1.92838 1.68571,-4.84865 0,-5.78514 -18.97988,-10.54437 -30.06699,-8.67768 -49.173568,-8.67768 -7.053975,0 -14.938892,-1.2936 -20.247931,5.78511 -9.328216,12.43766 -16.18764,26.59017 -23.140499,40.49589 -4.061795,8.12361 -2.892569,17.44614 -2.892569,26.03306 0,1.70653 -0.360111,22.27621 0,23.1405 3.818061,9.16331 8.261535,18.28143 14.462819,26.03315 1.904709,2.38075 5.950568,1.52895 8.67768,2.89257 9.875846,4.93774 -8.945888,2.89257 11.57025,2.89257 7.713517,0 15.427008,0 23.140498,0 1.92838,0 4.92274,1.72464 5.78514,0 0.96419,-1.92838 -3.57436,-3.73997 -2.89257,-5.78514 0.0208,-0.0623 8.67768,-3.54402 8.67768,-5.78522 0,-2.15599 -2.89254,-3.62914 -2.89254,-5.78514 0,-6.81782 2.13964,-13.47179 2.89254,-20.24793 0.21308,-1.91657 0,-3.85673 0,-5.78511 0,-0.96419 0.68178,-2.21078 0,-2.89257 -1.52451,-1.52451 -3.73976,-2.21078 -5.78511,-2.89257 -0.91472,-0.3049 -1.92838,0 -2.89257,0 -6.749301,0 -14.044337,-2.65867 -20.24793,0 -2.658698,1.13944 0,5.78514 0,8.67769 0,10.40086 -0.213082,22.50164 2.892569,31.81828 2.040422,6.12124 9.320482,8.99902 14.462791,11.57027 3.85676,1.92838 8.12068,3.19779 11.57025,5.78514 0.77135,0.57852 -0.93162,2.64393 0,2.89257 32.64494,8.70522 35.96609,8.67745 60.74382,8.67745 1.43354,0 22.60465,0.35738 23.14049,0 5.78514,-5.78488 11.57025,-11.57002 17.35539,-17.35516 0,-0.96418 -0.4312,-2.03037 0,-2.89256 0.60979,-1.21958 2.28276,-1.673 2.89254,-2.89257 0.4312,-0.86245 0,-1.92838 0,-2.89257 0,-0.96419 0.4312,-2.03012 0,-2.89257 -0.60978,-1.21958 -1.55547,-2.62524 -2.89254,-2.89265 -8.56153,-1.71231 -17.33213,-2.16749 -26.03307,-2.89257 -2.88257,-0.24033 -5.78513,0 -8.67768,0 -0.96419,0 -2.46137,-0.86239 -2.89257,0 -1.77787,3.55577 -2.11291,7.67207 -2.89256,11.57036 -0.18921,0.9455 -0.4312,2.03012 0,2.89257 2.39173,4.78331 2.36523,2.03738 5.78513,2.89256 15.22909,3.80719 2.01676,2.89257 17.35536,2.89257 8.67769,0 17.35539,0 26.03307,0 3.85673,0 7.71349,0 11.57025,0 0.96419,0 2.03017,0.4311 2.89257,0 3.10939,-1.5549 5.69666,-3.99665 8.67768,-5.78513 1.84875,-1.10928 4.58917,-1.09889 5.7851,-2.89257 2.88019,-4.3203 2.90495,-10.14266 5.78514,-14.46293 8.50407,-12.75611 7.11084,1.32573 2.89257,-2.89254 -0.68179,-0.68178 0.86237,-2.46137 0,-2.89257 -1.7248,-0.8624 -3.85676,0 -5.78514,0 -0.96419,0 -1.92838,0 -2.89257,0 -0.96419,0 -2.21078,-0.68178 -2.89254,0 -0.68179,0.68179 0,1.92838 0,2.89257 0,1.92836 0.86237,4.06032 0,5.78511 -0.4312,0.8624 -2.46136,-0.86239 -2.89256,0 -0.8624,1.7248 -0.3782,3.89421 0,5.78522 1.55929,7.79631 1.37476,16.52489 5.7851,23.14055 2.20518,3.30757 7.79883,1.63536 11.57025,2.89231 2.04535,0.68181 3.73978,2.21102 5.78514,2.89257 3.77142,1.25721 7.68304,2.0597 11.57025,2.89257 23.95711,5.13369 23.21117,5.78514 40.49586,5.78514 1.92838,0 3.85676,0 5.78514,0 1.92837,0 4.60122,1.52219 5.78511,0 6.09453,-7.83577 9.7093,-17.31804 14.46282,-26.03287 1.03239,-1.89282 2.89256,-3.62914 2.89256,-5.78513 0,-2.156 -2.89256,-3.62915 -2.89256,-5.78514 0,-2.156 2.21078,-3.73986 2.89256,-5.78522 0.30491,-0.91469 0,-1.92838 0,-2.89257 0,-3.85673 1.43235,-7.98933 0,-11.57024 -0.80073,-2.00178 -3.671,-2.46973 -5.78513,-2.89255 -2.83638,-0.56727 -5.78512,0 -8.67768,0 -10.68637,0 -16.06179,-1.2936 -26.03307,8.67768 -2.81105,2.81108 -1.63541,7.7988 -2.89257,11.57025 -1.36354,4.09068 -4.42154,7.47949 -5.78511,11.57036 -0.30491,0.91461 0.4312,2.03011 0,2.89256 -1.5547,3.10929 -5.10336,5.26866 -5.78511,8.67771 -0.42285,2.11395 2.36964,3.69351 2.89254,5.78488 1.42246,5.68989 0.26969,12.10986 2.89257,17.35541 0.8624,1.7249 3.95569,-0.60966 5.78511,0 1.2936,0.43136 1.92838,1.92838 2.89257,2.89257 3.85676,-0.96419 7.60651,-2.58761 11.57025,-2.89257 8.65214,-0.66546 17.49535,1.55231 26.03307,0 2.68314,-0.48767 3.60342,-4.14874 5.78511,-5.78513 1.34366,-1.00754 11.25348,-5.25698 11.57025,-5.78514 2.04535,-3.4088 0.50729,-8.38988 2.89257,-11.57002 1.15702,-1.5427 4.42156,1.36336 5.78513,0 9.17374,-9.17395 8.67768,-9.88976 8.67768,-17.35541 0,-0.96419 0,-1.92838 0,-2.89257 0,-0.96419 0.57852,-2.12122 0,-2.89265 -9.12904,-12.17207 -9.50527,-8.67768 -23.14049,-8.67768 -29.31685,0 -23.87407,-2.28358 -60.74382,20.24804 -34.68461,21.19608 -0.59686,3.48925 -14.46279,17.35515 -2.45823,2.45836 -6.21951,3.32704 -8.67771,5.78514 -1.52451,1.52453 -2.04328,3.80355 -2.89254,5.78514 -2.04536,4.77267 -4.93154,9.34134 -5.78514,14.46279 -0.22424,1.3452 2.28275,1.673 2.89257,2.8926 3.57105,7.14229 -11.67739,-1.1783 8.67768,2.8926 2.11413,0.42279 3.62914,2.89259 5.78514,2.89259 3.04902,0 5.66408,-2.4288 8.67768,-2.89259 22.1041,-3.4005 44.62858,-4.1464 66.52893,-8.67772 6.33383,-1.31041 11.48273,-5.96707 17.35536,-8.67771 6.66718,-3.0771 13.87241,-5.03455 20.24795,-8.6777 9.49518,-5.42568 22.1426,-16.36761 31.81818,-23.14029 5.69599,-3.98731 12.18736,-6.91907 17.35536,-11.57036 8.84062,-7.95655 12.59704,-15.83664 17.35539,-26.03307 4.92674,-10.55731 11.26223,-20.61611 14.46282,-31.81818 0.83761,-2.9317 -2.89257,-5.62866 -2.89257,-8.67768 0,-1.36357 2.28276,-1.67296 2.89257,-2.89256 0.4312,-0.8624 0,-1.92838 0,-2.89257 0,-0.96419 0.94122,-2.68341 0,-2.89257 -8.52318,-1.89402 -17.42079,-1.45716 -26.03307,-2.89255 -1.16951,-0.19491 -11.53428,-4.98438 -14.46282,-2.89256 -5.54789,3.96278 -9.97322,9.33187 -14.46282,14.46281 -2.28924,2.61627 -2.95623,6.65704 -5.78511,8.67768 -4.22515,3.01798 -10.79129,2.11362 -14.46282,5.78512 -3.67152,3.67152 -3.67632,9.71802 -5.78511,14.46281 -1.75127,3.94034 -3.85676,7.71352 -5.78513,11.57025 -2.89257,3.85676 -6.52169,7.25829 -8.67769,11.57025 -0.86239,1.7248 0.37818,3.89421 0,5.78514 -0.59795,2.98982 -1.92837,5.78511 -2.89256,8.67768 0,8.67779 0.86346,17.39858 0,26.0332 -0.10278,1.02674 -5.3474,3.33015 -2.89257,5.78488 0.68178,0.68181 1.92838,0 2.89257,0 2.36053,0 4.89154,0.68181 5.78513,-2.89257 0.70154,-2.80614 -1.29359,-6.09036 0,-8.67745 1.82942,-3.65899 6.57303,-5.17003 8.67768,-8.6777 0.99215,-1.65379 -0.27272,-3.87623 0,-5.78514 6.10214,-42.71513 5.78512,-21.97782 5.78512,-40.49597 0,-7.71349 0,-15.427 0,-23.1405 0,-0.96418 0.62748,-2.16048 0,-2.89256 -5.32438,-6.21177 -11.96787,-11.19823 -17.35537,-17.35537 -1.41973,-1.62256 -1.36805,-4.26062 -2.89256,-5.78513 -6.99782,-6.99781 -4.26497,-2.20635 -8.67769,0 -2.31405,1.15702 -6.36365,-1.15703 -8.67768,0 -0.86239,0.4312 0.68179,2.21078 0,2.89257 -1.52451,1.52451 -5.36229,0.77843 -5.78513,2.89256 -0.77966,3.89824 2.89257,7.59481 2.89257,11.57025 0,2.15597 -2.36965,3.69351 -2.89257,5.78512 -0.46769,1.87081 0,3.85675 0,5.78513 0,13.51966 -1.15703,13.77912 17.35538,28.92561 8.82708,7.22216 12.4986,1.34271 20.24793,2.89257 2.98982,0.59796 5.62867,2.89257 8.67768,2.89257 3.04905,0 5.65932,-2.46137 8.67769,-2.89257 21.08977,-3.01281 12.05073,9.60263 43.38845,-8.67768 3.43389,-2.00312 1.4161,-7.87915 2.89254,-11.57025 1.92101,-4.80252 9.64927,-3.87518 11.57025,-8.6777 1.1324,-2.83093 -3.39381,-5.67014 -2.89254,-8.67768 0.57151,-3.42912 5.4012,-5.22251 5.78511,-8.67768 0.64768,-5.82906 -2.89257,-11.49045 -2.89257,-17.35539 0,-3.04902 2.89257,-5.62864 2.89257,-8.67768 0,-0.96419 -2.21078,0.68178 -2.89257,0 -1.52451,-1.52451 -2.21076,-3.73976 -2.89254,-5.78511 -0.30491,-0.91473 0.68178,-2.21079 0,-2.89257 -7.78196,-7.78196 -9.15565,-5.78514 -14.46282,-5.78514 -0.96419,0 3.85676,0 2.89257,0 -1.92838,0 -3.91432,-0.46769 -5.78514,0 -0.0208,0.005 -8.67768,3.57988 -8.67768,5.78514 0,3.04902 3.85676,5.78511 2.89257,8.67768 -0.60981,1.82941 -4.92274,-1.7248 -5.78514,0 -0.96419,1.92838 2.36968,3.69351 2.89257,5.78513 0.46769,1.87079 0,3.85674 0,5.78512 0,5.78513 0,11.57025 0,17.35538 0,0.96419 0,1.92838 0,2.89255 0,0.96419 -0.96419,2.89257 0,2.89257 2.156,0 4.2606,-4.41708 5.78511,-2.89257 13.98877,13.98877 -15.47941,2.89257 0,2.89257 0.96419,0 -0.86239,2.46137 0,2.89256 1.7248,0.8624 4.92274,1.7248 5.78514,0 0.96419,-1.92837 -3.11826,-3.64097 -2.89257,-5.78513 1.74242,-16.553 6.08177,-32.73277 8.67768,-49.17354 0.30076,-1.90479 -0.37817,-3.89421 0,-5.78514 0.59798,-2.98982 2.39132,-5.67014 2.89257,-8.67768 0.47553,-2.8532 0,-5.78511 0,-8.67768 0,-6.74933 0,-13.49863 0,-20.24796 0,-1.92835 1.50583,-4.58046 0,-5.78511 -9.07355,-7.25886 -18.6263,-5.78514 -28.92561,-5.78514 -1.92838,0 -3.85676,0 -5.78514,0 -0.96419,0 -2.21078,-0.68176 -2.89257,0 -1.5245,1.52454 -2.04327,3.80348 -2.89254,5.78514 -2.04535,4.77249 -5.05082,9.32269 -5.78514,14.46282 -0.3049,2.13432 2.21079,3.73976 2.89257,5.78511 0.30491,0.91472 0,1.92838 0,2.89257 0,2.89257 -0.70156,5.87148 0,8.67768 1.56124,6.24501 2.95247,1.00413 5.78511,2.89257 2.26913,1.51275 3.19795,4.92274 5.78514,5.78514 1.2936,0.43117 1.53575,-2.75691 2.89257,-2.89257 31.60544,-57.45776 19.23565,2.89257 28.92561,2.89257 3.3355,0 3.83906,-7.67812 5.78514,-11.57025 0.60979,-1.21963 2.28275,-1.67297 2.89254,-2.89257 0.4312,-0.8624 -0.4312,-2.03017 0,-2.89257 1.55472,-3.10942 5.49643,-5.21327 5.78514,-8.67768 0.72508,-8.70094 -2.10209,-17.33785 -2.89257,-26.03307 -0.17467,-1.92046 1.6045,-4.71545 0,-5.78511 -2.40676,-1.60453 -6.36362,1.73551 -8.67768,0 -2.43923,-1.82945 -0.73657,-6.52171 -2.89257,-8.67771 -1.36357,-1.36357 -3.91432,0.46772 -5.78511,0 -5.23538,1.74343 -5.37966,-4.68578 -8.67771,-5.78511 -1.82941,-0.60982 -4.06031,0.8624 -5.78511,0 -2.43923,-1.21963 -3.13941,-5.1237 -5.78514,-5.78514 -2.0916,-0.52289 -3.62911,2.89257 -5.78511,2.89257 -4.9164,0 -9.61329,-2.08431 -14.46282,-2.89257 -0.95105,-0.15858 -2.35773,-0.80224 -2.89256,0 -1.69129,2.53695 -1.76018,5.84675 -2.89255,8.67771 -0.80073,2.00177 -2.89257,3.62911 -2.89257,5.78511 0,1.36357 2.76911,1.53461 2.89257,2.89257 0.87294,9.60226 0,19.28374 0,28.92561 0,0.96419 0,1.92838 0,2.89257 0,1.92838 -1.15703,4.24243 0,5.78511 2.08584,2.78115 6.21948,3.32693 8.67768,5.78514 0.68179,0.68178 0,1.92838 0,2.89257 2.89257,0.96419 6.09212,1.27657 8.67768,2.89257 5.23538,3.27209 8.94081,8.80921 14.46282,11.57025 1.2196,0.60978 1.529,-2.89257 2.89257,-2.89257 1.36357,0 2.89254,1.529 2.89254,2.89257 0,0.96416 -3.85673,0 -2.89254,0 12.97599,0 4.73896,1.90899 2.89254,-20.24796 -0.40034,-4.80429 2.156,-10.15083 0,-14.46282 -1.36357,-2.72711 -6.77297,-0.51166 -8.67768,-2.89254 -2.48343,-3.1043 -0.84721,-8.16133 -2.89257,-11.57025 -1.10924,-1.84875 -4.10158,-1.54574 -5.78511,-2.89257 -8.00347,-6.40279 -15.89303,-13.00047 -23.1405,-20.24793 -1.52451,-1.52451 -0.96419,-4.82095 -2.89257,-5.78514 -5.17436,-2.58717 -11.984,2.14855 -17.35536,0 -2.53209,-1.01283 -3.85676,-3.85673 -5.78513,-5.78511 -11.57025,0.96419 -23.1004,2.89257 -34.71075,2.89257 -2.156,0 -3.69351,-3.41549 -5.78512,-2.89257 -2.64572,0.66141 -3.85675,3.85673 -5.78513,5.78511 -3.64025,3.64025 -6.49719,6.11901 -8.67768,11.57025 -0.71618,1.79046 0,3.85676 0,5.78514 0,0.96419 0,1.92838 0,2.89257 0,1.92835 1.79046,6.50128 0,5.78511 -13.90442,-5.56178 -12.88121,-11.03952 -20.24793,-20.24793 -1.68649,-2.10811 -7.79141,-8.67768 -11.57025,-8.67768 -1.36357,0 -1.54271,3.08538 -2.89257,2.89254 -12.73457,-1.81922 -24.83877,-7.08211 -37.60332,-8.67768 -4.8777,-0.60971 -14.23368,6.44792 -17.35535,8.67768 -12.98746,9.27678 -9.73564,6.8431 -20.24793,17.35539 -3.85676,3.85673 -8.80483,6.86903 -11.57025,11.57025 -6.99944,11.89906 -10.50616,25.61715 -17.35539,37.60332 -1.06966,1.8719 -4.82092,0.96416 -5.78511,2.89254 -1.23712,2.47422 0.38931,15.68655 2.89255,17.35539 1.79391,1.19593 3.73978,-2.21079 5.78513,-2.89257 2.50077,-0.83359 12.62222,0.9203 14.46282,0 1.2196,-0.60982 2.46135,-1.59897 2.89255,-2.89257 0.91472,-2.74411 0,-5.78511 0,-8.67768 0,-0.96419 0.43119,-2.03017 0,-2.89257 -0.60979,-1.2196 -1.529,-2.89254 -2.89255,-2.89254 -3.97544,0 -7.64889,3.54611 -11.57025,2.89254 -2.69005,-0.44833 -3.09511,-5.33678 -5.78514,-5.78511 -19.1597,-3.1933 -40.78348,-2.89257 -60.74381,-2.89257 -8.77771,0 -29.780923,-1.57738 -37.603291,2.89257 -3.551722,2.02954 -5.894171,5.68005 -8.677707,8.67768 -29.616479,31.89469 -22.629621,19.2262 -31.81818,37.60331 -0.964189,1.92838 -2.538115,3.65848 -2.892569,5.78512 -0.792556,4.75533 -0.532367,9.67135 0,14.46282 0.858453,7.72597 -0.264548,16.03695 2.892569,23.14049 1.238341,2.78624 6.063183,1.32386 8.677681,2.89257 2.338504,1.4031 3.345907,4.56551 5.785138,5.78511 1.724796,0.8624 3.856758,0 5.785111,0 2.892569,0 5.818775,-0.43984 8.677707,0 9.718486,1.49516 19.126771,4.96855 28.925611,5.78514 6.0896,0.50745 6.44483,-5.3284 8.67768,-8.6777 0.75637,-1.13456 1.92838,-1.92836 2.89257,-2.89255 0.96419,-0.96419 1.67296,-2.28275 2.89257,-2.89257 0.86239,-0.43119 2.89257,-0.96419 2.89257,0 0,2.156 -1.92838,3.85676 -2.89257,5.78512 -1.92838,3.85675 -3.85676,7.71351 -5.78514,11.57025 -0.96419,1.92837 -2.21076,3.73978 -2.89254,5.78513 -0.30491,0.9147 0,1.92838 0,2.89257 0,1.92836 0,3.85673 0,5.78511 0,12.07402 -4.05591,18.39285 8.67768,26.03318 3.61569,2.16923 5.42354,-1.08488 8.67768,0 2.04535,0.68181 3.63983,2.67793 5.78513,2.89256 10.70876,1.07087 23.47329,0 34.71075,0 1.90017,0 10.89005,0.34 11.57025,0 0.86238,-0.43135 0.9147,-2.58786 0,-2.89256 -0.0633,-0.026 -19.25301,-0.39814 -20.24795,0 -10.11224,4.04492 -6.87414,5.87857 -14.4628,11.57027 -1.72479,1.29355 -4.26062,1.36803 -5.78513,2.89257 -0.20919,0.21023 -15.57098,16.00295 -17.35536,23.14029 -0.46772,1.87076 0,3.85676 0,5.78509 0,8.57289 -1.36321,15.99239 5.78511,23.14059 2.15599,2.156 6.06318,1.3239 8.67768,2.8926 2.3385,1.403 3.13941,5.1238 5.78514,5.7851 2.0916,0.523 3.73978,-2.2108 5.78511,-2.8926 0.91472,-0.3049 1.92838,0 2.89257,0 6.94411,0 8.14056,0.3582 17.35538,-5.7851 0.3141,-0.2102 5.0169,-10.4179 5.78512,-11.5703 1.51275,-2.2691 4.92273,-3.1978 5.78513,-5.78509 0.60979,-1.8292 -0.60981,-3.9557 0,-5.7852 0.4312,-1.2935 2.28276,-1.67294 2.89255,-2.89252 0.4312,-0.86245 0,-1.92838 0,-2.89257 0,-3.85676 0,-7.71352 0,-11.57027 0,-0.96419 0.68178,-2.21076 0,-2.89257 -0.68179,-0.68155 -1.94149,0.15832 -2.89255,0 -4.84952,-0.80821 -9.61329,-2.08411 -14.46282,-2.89257 -0.95108,-0.15832 -1.92837,0 -2.89256,0 -0.96419,0 -2.21079,-0.68155 -2.89257,0 -0.68179,0.68181 0.4312,2.03038 0,2.89257 -4.9379,9.876 -2.89255,-8.94581 -2.89255,11.57027 0,1.92838 0,3.85676 0,5.78514 0,0.96419 -0.86239,2.46152 0,2.89252 3.55575,1.7779 7.68305,2.0598 11.57025,2.8926 9.61454,2.0602 19.20713,4.28989 28.92561,5.78519 2.85894,0.4399 5.78514,0 8.67769,0 2.89256,0 5.78513,0 8.6777,0 2.89254,0 5.78511,0 8.67768,0 1.92838,0 4.09222,0.9234 5.78511,0 9.15583,-4.99409 17.88916,-10.84022 26.03306,-17.35545 1.68355,-1.34675 2.89257,-3.62914 2.89257,-5.78513 0,-1.36337 -2.89257,4.25618 -2.89257,2.89256 0,-4.21518 6.63217,-6.02469 0,-8.6777 -9.51071,-3.80407 -19.01588,-2.89257 -28.9256,-2.89257 -11.86467,0 -5.49071,0 -17.35539,0 -4.82094,0 -9.64187,0 -14.46281,0 -1.92836,0 -3.9557,-0.60966 -5.78512,0 -5.28586,1.76201 -5.78513,12.36291 -5.78513,17.35541 0,0.96419 -0.9147,2.58787 0,2.89257 2.74413,0.91488 5.8413,-0.56709 8.6777,0 2.11411,0.42279 3.6639,2.50692 5.78511,2.89252 14.68888,2.6707 26.37873,2.8926 40.49589,2.8926 3.85673,0 7.71349,0 11.57024,0 1.92835,0 4.42154,1.3636 5.78511,0 1.36357,-1.3636 0,-3.85674 0,-5.78512 0,-9.54742 -2.44364,-7.41427 -8.67767,-11.57027 -5.36152,-3.57412 -0.26527,-2.89257 -5.78514,-2.89257 -0.96419,0 -9.64187,0 -8.67768,0 2.89257,0 5.78514,0 8.67768,0 0.96419,0 -3.75494,-0.4311 -2.89254,0 6.88979,3.44512 19.81168,4.89647 26.03303,5.78513 2.8635,0.40904 5.78514,0 8.67771,0 10.69627,0 18.48334,0.74151 28.92561,-5.78513 2.948,-1.84248 4.68578,-5.37948 5.78511,-8.67771 0.30491,-0.91462 -3.85673,0 -2.89254,0 1.92838,0 3.85673,0 5.78511,0 0.96419,0 -2.89257,0.96419 -2.89257,0 0,-1.36336 2.89257,-1.52895 2.89257,-2.89231 0,-0.96419 -2.46137,-0.86245 -2.89257,0 -0.86237,1.72464 0,3.8565 0,5.78488 0,0.96419 0,1.92838 0,2.89257 0,0.96419 -0.43117,2.03038 0,2.89257 1.96926,3.93851 8.48453,4.94371 11.57025,5.78513 15.69361,4.28007 17.70107,5.78514 28.92564,5.78514 3.85675,0 7.71349,0 11.57025,0 1.92837,0 4.06034,0.86245 5.78511,0 0.7096,-0.35479 13.88023,-13.68604 14.46282,-14.46284 1.29359,-1.72464 1.16777,-4.49134 2.89256,-5.78514 2.43924,-1.82924 6.72574,-0.55022 8.67769,-2.89231 3.32402,-3.98886 3.73978,-9.69043 5.78513,-14.46284 0.84927,-1.98185 2.21076,-3.73997 2.89255,-5.78514 0.54399,-1.63199 0,-6.77705 0,-8.67779 0,-7.71349 0,-15.427 0,-23.1405 0,-0.96419 -0.68179,-2.21078 0,-2.89256 0.68178,-0.68179 2.10798,-0.56043 2.89256,0 6.12786,4.37705 10.9695,10.47164 17.35539,14.46281 11.57025,7.23143 1.44629,-3.61569 8.67768,0 1.21961,0.60982 3.85676,1.92838 2.89257,2.89257 -0.96419,0.96419 -3.85676,-1.92838 -2.89257,-2.89257 1.36357,-1.36357 3.85676,0 5.78511,0 0.96419,0 -2.89254,0.96419 -2.89254,0 0,-4.9164 2.08431,-9.61329 2.89254,-14.46281 0.29928,-1.79566 0.34859,-13.41706 0,-14.4628 -0.43119,-1.29359 -2.13619,-1.75801 -2.89254,-2.89257 -3.1186,-4.67789 -6.16339,-9.43423 -8.67771,-14.46281 -0.43119,-0.8624 0.8624,-2.46137 0,-2.89257 -1.72477,-0.86238 -3.85673,0 -5.78511,0 -0.96419,0 3.32377,0.8624 2.89257,0 -1.21963,-2.43921 -3.85676,-3.85674 -5.78514,-5.78511 -0.96419,-0.96419 2.89257,1.52899 2.89257,2.89256 0,0.96419 -2.46137,-0.86239 -2.89257,0 -3.01029,6.0206 6.36872,15.70609 8.67768,17.35537 3.23496,2.31068 8.01451,1.11469 11.57025,2.89256 0.8624,0.4312 0,1.92838 0,2.89257 2.89257,-0.96419 5.62867,-2.89257 8.67771,-2.89257 1.36357,0 1.75799,2.1362 2.89254,2.89257 6.27754,4.185 16.19221,6.36669 23.1405,2.89255 2.5872,-1.29358 -1.29357,-6.09049 0,-8.67768 0.96419,-1.92838 4.06034,-1.59898 5.78514,-2.89257 2.18172,-1.63627 4.14885,-3.6034 5.78511,-5.78512 5.48901,-7.31865 4.01892,-18.0851 5.78514,-26.03306 0.46769,-2.10464 2.36965,-3.69351 2.89257,-5.78512 0.46769,-1.87081 0,-3.85675 0,-5.78513 0,-7.49647 1.09871,-20.04614 -2.89257,-26.03304 -1.69129,-2.53695 -5.62866,-2.89257 -8.67768,-2.89257 -1.36357,0 3.85673,1.92838 2.89254,2.89257 -1.36357,1.36354 -3.85673,0 -5.78511,0 -0.96419,0 3.85676,0 2.89257,0 -1.92838,0 -4.92274,-1.7248 -5.78514,0 -0.96419,1.92835 2.21079,3.73975 2.89257,5.78511 0.30491,0.91472 0,1.92838 0,2.89257 0,6.7493 -1.63694,13.70013 0,20.24793 -5.03063,15.26165 7.12299,2.67572 8.67768,5.78511 0.8624,1.72479 -1.06967,4.18064 0,5.78514 14.17346,7.08672 2.41943,-0.94629 5.78514,5.78511 0.60979,1.21963 1.52897,2.89257 2.89254,2.89257 0.96419,0 -0.68178,-2.21079 0,-2.89257 0.68179,-0.68176 1.92838,0 2.89257,0 0.96419,0 2.89257,-0.96417 2.89257,0 0,0.96419 -2.77297,0.95676 -2.89257,0 -1.19593,-9.56741 0,-19.28374 0,-28.92561 0,-16.71007 1.33743,-33.14783 -5.78511,-49.17357 -0.78319,-1.76217 -4.06034,0.8624 -5.78514,0 -0.8624,-0.4312 0,-1.92838 0,-2.89257 -1.92838,0 -3.85676,0 -5.78511,0 -0.96419,0 3.57433,0.68179 2.89254,0 -2.98034,-2.98034 -8.67768,-3.56773 -8.67768,-2.89254 0,1.36357 2.56187,1.56969 2.89257,2.89254 0.76105,3.04422 0,13.20338 0,17.35539 0,9.64187 -2.53695,19.6235 0,28.92561 0.80224,2.94159 6.84826,0.45336 8.67768,2.89257 1.73554,2.31405 -0.56727,5.8413 0,8.67768 0.42282,2.11413 1.92838,3.85676 2.89257,5.78514 0.96419,1.92838 1.16777,4.49154 2.89257,5.78511 2.4392,1.82941 6.33533,0.94062 8.67768,2.89257 26.20514,34.9402 0.54265,8.67768 11.57025,8.67768 0.96419,0 -0.8624,2.46137 0,2.89257 1.7248,0.86239 3.85673,0 5.78511,0 0.96419,0 -3.32374,0.86239 -2.89254,0 1.2196,-2.43921 5.12367,-3.13942 5.78511,-5.78512 0.52289,-2.09163 -2.46973,-3.671 -2.89257,-5.78513 -0.94545,-4.72731 0,-9.64187 0,-14.46282 0,-14.46279 1.20107,-28.97557 0,-43.38843 -0.0799,-0.96084 -1.97785,0.30491 -2.89254,0 -2.04536,-0.68179 -4.26063,-1.36803 -5.78514,-2.89257 -0.68178,-0.68176 0,-1.92835 0,-2.89254 -1.92838,0 -4.18061,1.06966 -5.78511,0 -1.79391,-1.19594 -0.84722,-5.10336 -2.89257,-5.78514 -0.0208,-0.008 -8.67768,6.63653 -8.67768,0 0,-0.96419 2.89254,-0.96419 2.89254,0 0,10.64979 -2.00813,21.20519 -2.89254,31.81821 -0.24033,2.88255 0,5.78511 0,8.67768 0,11.95935 -1.07429,9.4217 5.78511,23.14049 0.4312,0.8624 -0.96419,-2.89256 0,-2.89256 0.53172,0 8.15967,10.27519 2.89257,-2.89257 -13.19974,-32.99937 1.18096,6.84816 -11.57025,-11.57025 -6.74933,-11.57025 -13.49863,-23.1405 -20.24793,-34.71075 0,-0.96419 0.23385,-1.95716 0,-2.89257 -0.73951,-2.95797 -1.529,-5.95054 -2.89257,-8.67768 -0.60981,-1.2196 -2.04076,-1.82778 -2.89257,-2.89257 -3.01162,-3.76452 -5.26876,-8.16133 -8.67768,-11.57025 -1.52451,-1.52451 -4.5892,-1.09866 -5.78514,-2.89254 -1.06966,-1.6045 1.36357,-4.42157 0,-5.78514 -2.15597,-2.15597 -5.90195,-1.63087 -8.67768,-2.89254 -27.35181,-12.43265 -13.96053,-11.57025 -28.92561,-11.57025 -2.89257,0 -6.27094,-1.60453 -8.6777,0 -1.6045,1.06966 1.06969,4.18061 0,5.78511 -1.19591,1.79389 -4.49152,1.16777 -5.78512,2.89257 -1.82941,2.4392 -1.92838,5.78511 -2.89256,8.67768 -6.53498,19.60495 0,-4.31197 0,28.92561 0,1.36357 -3.32377,1.59897 -2.89257,2.89257 6.50826,19.5248 3.97728,1.32575 8.6777,2.89257 2.58717,0.8624 3.34588,4.56551 5.78511,5.78514 0.8624,0.43117 0,-1.92838 0,-2.89257 0,-0.96419 0,-1.92838 0,-2.89257 0,-2.89257 1.516,-6.21421 0,-8.67768 -6.47136,-10.51598 -14.4094,-20.19455 -23.14049,-28.92564 -3.04902,-3.04902 -7.8264,-3.64578 -11.57025,-5.78511 -19.25221,-11.00126 4.26908,-1.46954 -26.03307,-11.57025 -2.89255,-0.96419 -5.6473,-2.55587 -8.67768,-2.89257 -5.74974,-0.63886 -11.57526,0.24085 -17.35536,0 -17.36707,-0.72362 -34.70193,-3.68185 -52.06614,-2.89257 -20.10047,0.91366 -6.10326,6.10326 -14.46279,14.46282 -2.15599,2.156 -6.23847,1.06315 -8.6777,2.89257 -1.72477,1.2936 -2.09183,3.78333 -2.89254,5.78511 -3.05953,7.64881 -5.33193,15.6125 -8.67771,23.1405 -0.55378,1.24605 -2.56183,1.56972 -2.89254,2.89257 -0.70156,2.80619 0,5.78511 0,8.67768 0,0.96419 -0.77135,2.31405 0,2.89257 6.69716,5.02287 15.158,7.0812 23.14049,8.67768 0.63792,0.12769 8.50072,0.35388 8.67768,0 4.79899,-9.59798 2.89257,-21.54711 2.89257,-31.81818 0,-7.61336 0.86237,-0.63304 -11.57025,-8.67768 -12.79937,-8.28196 -23.80922,-19.54173 -37.60331,-26.03307 -3.59706,-1.69274 -7.61912,3.33158 -11.57025,2.89257 -5.16055,-0.5734 -9.39414,-4.65876 -14.46282,-5.78514 -3.7649,-0.83665 -7.71349,0 -11.57024,0 -5.78512,0 -11.594,-0.52375 -17.35537,0 -15.48322,1.40756 -31.03587,2.73609 -46.28099,5.78514 -11.660758,2.33214 -10.00671,5.69129 -17.35539,11.57025 -3.459896,7.34972 -12.180998,4.79689 -17.355361,8.67768 -1.724796,1.2936 -1.368059,4.2606 -2.892569,5.78511 -1.52451,1.52454 -4.675891,1.04384 -5.785138,2.89257 -2.045327,3.40892 -1.635411,7.79883 -2.892543,11.57025 -0.304907,0.91472 0,-3.85673 0,-2.89257 0,1.92838 0,3.85676 0,5.78514 0,0.96419 -0.958298,-2.78608 0,-2.89257 8.624605,-0.95827 17.355362,0 26.033043,0 2.184518,0 13.521808,0.62736 14.462818,0 1.79388,-1.19593 1.16777,-4.49152 2.89257,-5.78511 2.43923,-1.82942 6.14073,-1.20128 8.67768,-2.89257 0.80226,-0.53483 0,-1.92838 0,-2.89257 0,-0.96419 0.96419,-2.89257 0,-2.89257 -3.04902,0 -5.63541,2.68977 -8.67768,2.89257 -11.544634,0.76964 -23.1405,0 -34.71075,0 -4.820948,0 -9.64187,0 -14.462818,0 -2.892569,0 -5.841302,-0.56728 -8.677681,0 -8.853934,1.77079 -10.782132,10.60746 -14.462818,17.35539 -3.722369,6.82433 -7.795091,13.45264 -11.57025,20.24793 -1.047035,1.88467 -2.369648,3.69351 -2.892569,5.78514 -0.46769,1.87078 0,3.85673 0,5.78511 0,4.82094 0,9.64187 0,14.46282 0,1.92837 0,3.85673 0,5.78511 0,1.92838 -0.862372,4.06034 0,5.78513 1.219629,2.43921 3.732751,3.98928 5.785138,5.78512 5.667307,4.95889 11.688055,9.50392 17.355361,14.46282 2.052388,1.79583 3.603422,4.14884 5.785138,5.78511 10.284672,7.71351 1.285578,0 11.57025,0 22.867152,0 -28.322493,17.59629 23.140499,2.89257 2.07302,-0.5923 1.696636,-3.99123 2.892569,-5.78512 1.512726,-2.26912 4.922713,-3.19794 5.785111,-5.78513 0.609815,-1.82942 -0.554117,-3.93808 0,-5.78512 2.367183,-7.8906 6.89062,-15.09866 8.67768,-23.14049 0.2958,-1.33111 -2.561838,-1.56973 -2.892538,-2.89257 -0.701565,-2.8062 0,-5.78514 0,-8.67768 0,-10.3174 1.507788,-19.80947 -5.785142,-28.92564 -0.41695,-0.52118 -13.707091,0 -14.462818,0 -0.964164,0 -2.160486,-0.62749 -2.892543,0 -14.383633,12.32883 -16.869763,14.29391 -23.140499,28.92564 -1.201071,2.80248 -2.892569,5.62866 -2.892569,8.67768 0,3.04902 3.393818,5.67013 2.892569,8.67768 -0.571532,3.42914 -3.856759,5.78513 -5.785138,8.67768 0,11.57025 0,23.1405 0,34.71075 0,3.85675 -1.432347,7.98935 0,11.57025 0.800732,2.0018 4.491541,1.16777 5.785138,2.89256 1.829417,2.43924 1.529,5.95057 2.892543,8.67769 1.298009,2.59599 11.322,8.55356 11.570249,8.6777 0.862399,0.4312 2.055424,-0.47838 2.892569,0 6.036762,3.44957 10.964692,8.83138 17.355388,11.57025 1.253316,0.53712 1.67294,-2.28275 2.892543,-2.89257 2.314055,-1.15702 6.363651,1.15703 8.67771,0 3.574318,-1.78716 2.892538,-2.79272 2.892538,-5.78513 0,-5.05436 0.53483,-6.83028 -5.785111,-11.57025 -1.542703,-1.15701 -3.914324,0.46771 -5.785137,0 -2.091604,-0.5229 -3.629117,-2.89255 -5.785112,-2.89255 -1.363569,0 -1.672941,2.28276 -2.892569,2.89255 -0.862398,0.43119 -2.35771,-0.80224 -2.892569,0 -1.69129,2.53694 -1.760172,5.84675 -2.892543,8.6777 -0.800732,2.00178 -2.369674,3.69351 -2.892569,5.78511 -0.46769,1.87082 0,3.85676 0,5.78514 0,1.92836 0,3.85673 0,5.78511 0,1.92838 0,3.85684 0,5.78522 0,7.25205 -2.045354,10.54743 5.785112,14.46284 0.862398,0.4311 -0.964164,-2.89257 0,-2.89257 1.363569,0 1.672966,2.28266 2.892569,2.89257 1.270057,0.63484 16.236823,0 20.247929,0"
       id="path4220"
       inkscape:connector-curvature="0" />
  </g>
</svg>
