<?xml version="1.0" encoding="UTF-8" standalone="no"?>
<!-- Created with Inkscape (http://www.inkscape.org/) -->

<svg
   xmlns:dc="http://purl.org/dc/elements/1.1/"
   xmlns:cc="http://creativecommons.org/ns#"
   xmlns:rdf="http://www.w3.org/1999/02/22-rdf-syntax-ns#"
   xmlns:svg="http://www.w3.org/2000/svg"
   xmlns="http://www.w3.org/2000/svg"
   xmlns:sodipodi="http://sodipodi.sourceforge.net/DTD/sodipodi-0.dtd"
   xmlns:inkscape="http://www.inkscape.org/namespaces/inkscape"
   width="150mm"
   height="105mm"
   viewBox="0 0 531.49607 372.04703"
   id="svg2"
   version="1.1"
   inkscape:version="0.91 r13725"
   sodipodi:docname="chromatin.svg">
  <defs
     id="defs4" />
  <sodipodi:namedview
     id="base"
     pagecolor="#ffffff"
     bordercolor="#666666"
     borderopacity="1.0"
     inkscape:pageopacity="0.0"
     inkscape:pageshadow="2"
     inkscape:zoom="0.44863269"
     inkscape:cx="583.06636"
     inkscape:cy="220.27877"
     inkscape:document-units="px"
     inkscape:current-layer="layer1"
     showgrid="false"
     inkscape:window-width="1280"
     inkscape:window-height="691"
     inkscape:window-x="0"
     inkscape:window-y="1"
     inkscape:window-maximized="1"
     units="mm"
     width="209mm" />
  <metadata
     id="metadata7">
    <rdf:RDF>
      <cc:Work
         rdf:about="">
        <dc:format>image/svg+xml</dc:format>
        <dc:type
           rdf:resource="http://purl.org/dc/dcmitype/StillImage" />
        <dc:title></dc:title>
      </cc:Work>
    </rdf:RDF>
  </metadata>
  <g
     inkscape:label="Layer 1"
     inkscape:groupmode="layer"
     id="layer1"
     transform="translate(0,-680.31532)">
    <path
       style="fill:none;fill-rule:evenodd;stroke:#0000ae;stroke-width:3.64668489px;stroke-linecap:butt;stroke-linejoin:miter;stroke-opacity:1"
       d="m 163.69737,923.31885 c -22.70095,0 -45.40186,0 -68.102767,0 -2.588422,0 -15.069347,0.9658 -16.024181,0 -1.888457,-1.91024 0,-5.40293 0,-8.1044 0,-1.35078 0,5.40293 0,4.05218 0,-10.80587 0,-21.61172 0,-32.41759 0,-9.45513 0,-18.91026 0,-28.36538 0,-1.35076 0,5.40293 0,4.05217 0,-2.70147 -2.634327,-7.66028 0,-8.10442 15.806163,-2.6647 32.073018,0.89914 48.072548,0 8.1101,-0.45572 15.94699,-3.3083 24.03625,-4.05217 6.6493,-0.61146 13.35348,0 20.03021,0 9.34745,0 18.69486,0 28.04229,0 8.01208,0 16.26344,-1.9656 24.03628,0 29.90842,7.56326 59.18844,17.63014 88.13298,28.3654 11.21361,4.15906 21.02332,11.56214 32.04832,16.2088 5.08222,2.14202 10.83229,2.19866 16.02415,4.05219 17.53891,6.26154 34.10733,15.41346 52.07859,20.261 2.88508,0.77823 5.06676,-3.55567 8.01204,-4.05218 4.12054,-0.69469 33.90831,0.8683 36.05438,0 2.47972,-1.00334 -1.88841,-6.19421 0,-8.1044 1.88849,-1.91022 6.81777,2.41627 8.01213,0 2.38871,-4.83256 -0.87816,-10.87938 0,-16.20881 4.22436,-25.63819 4.17548,-3.82372 4.00603,-4.0522 -19.31658,-26.05221 -0.91899,-20.26099 -32.04834,-20.26099 -26.70692,0 -53.41392,0 -80.12089,0 -4.00601,0 -8.01206,0 -12.01809,0 -5.3414,0 -10.73648,-0.76412 -16.02421,0 -4.18027,0.60406 -8.06421,2.55238 -12.0181,4.05218 -17.41501,6.60589 -34.88023,13.09775 -52.07856,20.26101 -5.52203,2.29996 -10.68277,5.40293 -16.02415,8.10439 -5.34139,2.70147 -11.09556,4.69334 -16.02419,8.10442 -20.49973,14.18772 -39.95426,29.86367 -60.09066,44.57419 -15.61075,11.40433 -10.88827,5.80128 -28.04232,20.261 -10.90483,9.19208 -21.43888,18.82621 -32.04832,28.36536 -2.67321,2.4036 -9.35935,10.8119 -12.018121,12.1565 -11.98585,6.0621 -7.737,-36.90441 -8.012101,-40.52186 -0.307105,-4.04027 0,-8.10439 0,-12.15659 0,-16.20881 0,-32.41761 0,-48.62643 0,-2.70146 -1.481443,-5.85663 0,-8.10439 1.656303,-2.51305 5.680455,-2.16542 8.012101,-4.0522 10.682751,-9.45512 21.365541,-18.91027 32.048321,-28.3654 2.6707,0 5.53241,1.00328 8.01209,0 4.47033,-1.80872 7.71177,-5.92641 12.01814,-8.1044 3.77693,-1.91021 8.01209,-2.70147 12.01815,-4.05217 7.98219,-2.6914 19.99396,-7.08678 28.04229,-8.10442 5.30014,-0.67014 10.68276,0 16.02414,0 18.69489,0 37.41855,1.04894 56.08463,0 3.773,-0.21198 22.26019,-7.56145 28.04229,-4.05221 16.02417,12.15663 32.04835,24.3132 48.07255,36.46979 2.67066,0 5.5324,-1.00329 8.01206,0 14.62073,5.91571 19.44745,20.26101 40.06041,20.26101 16.39565,0 -11.78902,-0.95509 8.01211,4.05222 7.69346,1.94549 35.37714,-1.68359 40.06043,-4.05222 22.0626,-11.15838 -3.80198,-4.25856 4.00605,-12.15659 2.11135,-2.1357 6.35577,-1.53913 8.01204,-4.0522 1.48145,-2.24777 0,-5.40292 0,-8.1044 0,-1.35073 0.59722,-2.84408 0,-4.05222 -3.48212,-7.04453 -6.95084,-14.28103 -12.01809,-20.26101 -3.13335,-3.69765 -8.01211,-5.40293 -12.01812,-8.10438 -4.00608,-2.70148 -7.53086,-6.33921 -12.01812,-8.10436 -19.67811,-7.74078 -39.95701,-13.82979 -60.09066,-20.26104 -5.2502,-1.67708 -10.55206,-3.43717 -16.02419,-4.0522 -6.63588,-0.74582 -13.3535,0 -20.0302,0 -40.99146,0 -42.04491,-9.74026 -64.09668,8.1044 -7.81158,6.32126 -10.51256,11.58856 -16.0242,20.26101 -9.41501,14.81433 -17.59581,30.48507 -28.04231,44.5742 -1.79152,2.41629 -6.2205,1.63592 -8.01208,4.0522 -2.53365,3.41713 -0.8499,9.31882 -4.00601,12.15659 -9.41561,8.46585 -23.14048,11.25049 -32.04834,20.26102 -5.97186,6.04068 -0.67939,20.07479 -8.01209,24.31318 -14.63784,8.46085 -22.18326,8.1044 -36.0544,8.1044 -1.33537,0 -2.6707,0 -4.00607,0 -1.33533,0 -2.9802,0.86471 -4.00602,0 -7.25382,-6.1145 -15.025807,-12.16165 -20.030222,-20.26099 -2.123182,-3.43629 0.900778,-8.20816 0,-12.15659 -3.134871,-13.74094 -6.656045,-27.50472 -12.018146,-40.52203 -1.452666,-3.52657 -6.817697,-4.47998 -8.012051,-8.1044 -0.59722,-1.81219 3.408848,-2.23997 4.006025,-4.05219 0.610771,-1.85343 -0.891311,-14.40566 0,-16.20882 2.153179,-4.35595 5.123297,-8.26044 8.012094,-12.15657 1.133075,-1.52821 2.252634,-3.34275 4.006024,-4.05217 5.111986,-2.06838 10.857881,-2.12691 16.024176,-4.05223 20.24309,-7.54388 40.20804,-15.84511 60.09068,-24.31323 5.50386,-2.34409 10.13355,-7.11131 16.02414,-8.10435 50.46424,-8.50763 58.30211,-8.10442 92.13899,-8.10442 5.34139,0 10.68282,0 16.02417,0 5.34139,0 10.84225,-1.3104 16.0242,0 141.35099,35.7449 16.07229,0.0293 56.08458,24.31319 3.62099,2.1976 8.01211,2.70147 12.01814,4.0522 14.68882,8.10442 30.14474,14.92512 44.06648,24.3132 2.48442,1.67536 1.67438,6.21762 4.00601,8.10438 4.66324,3.77362 10.90333,4.99654 16.0242,8.10442 1.61935,0.98282 2.57221,2.80905 4.00605,4.05222 24.57478,21.30679 15.21045,15.79727 32.04833,24.31319 5.3414,2.70146 10.35878,6.19417 16.02419,8.10439 2.53363,0.85426 5.34138,0 8.01207,0 8.28865,0 11.07386,1.91023 16.02412,-8.10439 1.79159,-3.62441 0,-8.10442 0,-12.1566 0,-8.10441 0,-16.20881 0,-24.31323 0,-29.27388 3.64471,-8.96082 -28.04226,-44.5742 -3.22081,-3.61991 -3.88355,-9.65093 -8.01209,-12.15657 -3.43513,-2.08484 -8.05234,0.57306 -12.0181,0 -5.45047,-0.7876 -10.56886,-3.29975 -16.02422,-4.0522 -23.9624,-3.30526 -48.00809,-6.07286 -72.10873,-8.1044 -13.30734,-1.12174 -26.70695,0 -40.06045,0 -21.36552,0 -42.82735,-2.04898 -64.09669,0 -7.15866,0.68964 -13.29699,5.55034 -20.03019,8.1044 -3.95389,1.49977 -7.92149,3.01623 -12.01813,4.0522 -6.60567,1.67044 -13.7718,1.33912 -20.03019,4.05222 -2.45306,1.06339 -37.85641,20.09825 -48.07256,28.36539 -2.94928,2.38659 -5.18915,5.56622 -8.01206,8.10442 -9.2016,8.2734 -19.33692,15.50747 -28.04235,24.31316 -0.94421,0.95512 0,2.70147 0,4.05222 -1.33533,4.05218 -1.0201,9.13625 -4.00603,12.15659 -8.1226,8.2162 -19.91969,12.0448 -28.0423,20.26099 -1.88845,1.91023 0.84454,5.54157 0,8.10442 -0.59717,1.81217 -2.55528,2.82928 -4.006021,4.05217 -6.568605,5.53693 -13.461644,10.67195 -20.030247,16.20882 -1.450733,1.2229 -2.316926,3.1979 -4.006026,4.0522 -16.845581,8.51981 -10.177635,0.36493 -32.048365,4.0522 -1.86275,0.31395 -2.316918,3.19792 -4.006028,4.05218 -4.959777,2.50848 -11.047039,-6.13987 -12.018118,-8.10438 -2.388753,-4.83252 2.962864,-11.71331 0,-16.20879 -1.656289,-2.51307 -7.521225,-1.07297 -8.01209,-4.05223 -1.119372,-6.79369 2.886655,-13.46728 4.006025,-20.26098 0.219728,-1.33235 0,-2.70149 0,-4.0522 0,-15.72322 -1.244864,-29.5924 8.012092,-44.5742 2.238061,-3.62216 9.380198,-0.71679 12.018119,-4.05217 3.439447,-4.34888 -0.25526,-12.68222 4.006064,-16.20884 93.044155,-77.00414 11.979138,0.022 52.078574,-24.31319 3.238681,-1.96561 4.318971,-7.30391 8.012051,-8.10442 21.28243,-4.61303 45.87959,-4.05218 68.10276,-4.05218 2.67071,0 5.4595,-0.79448 8.01211,0 14.93865,4.64946 29.74706,9.87187 44.06644,16.20882 26.64621,11.79201 12.88621,7.71765 28.04232,20.26097 11.78371,9.75233 24.27065,18.61307 36.05437,28.36541 2.92321,2.41926 5.74592,5.04802 8.01209,8.10442 1.79154,2.41623 1.89467,5.9687 4.00606,8.10439 3.40445,3.44369 9.01041,4.30144 12.01812,8.10437 2.63791,3.33542 1.33202,8.85074 4.00604,12.15662 9.56683,11.82745 23.16241,20.05867 32.04835,32.41759 2.35625,3.27718 -2.06108,8.68188 0,12.15661 2.47709,4.17608 8.25849,5.06204 12.01812,8.10438 9.61352,7.77942 18.42884,16.5338 28.04231,24.31323 4.00604,2.70146 8.01207,5.40293 12.01813,8.10439 0,-1.35076 -1.33537,-4.05222 0,-4.05222 4.22272,0 8.24116,2.142 12.01813,4.05222 1.68909,0.85426 2.11757,4.05218 4.00601,4.05218 13.77079,0 21.01415,0.0716 24.03628,-12.15657 0.64772,-2.62083 -0.84453,-5.54159 0,-8.10442 1.88845,-5.73067 5.91523,-10.55273 8.0121,-16.20881 1.93321,-5.2146 2.58739,-10.82761 4.006,-16.20877 3.923,-14.88072 9.70301,-29.35258 12.01816,-44.57421 0.45403,-2.98523 -3.51516,-5.12519 -4.00603,-8.10441 -0.87816,-5.32944 0,-10.80587 0,-16.20882 0,-4.05217 1.48778,-8.39421 0,-12.15657 -4.33792,-10.96975 -11.13676,-8.1044 -20.03023,-8.1044 -1.33539,0 -2.71057,0.32752 -4.00603,0 -21.09149,-5.33361 -2.79314,-4.05219 -24.03626,-4.05219 -30.71299,0 -61.42598,0 -92.139,0 -12.92226,0 -23.42044,-1.05962 -36.0544,4.05219 -7.22943,2.92509 -12.67603,9.56915 -20.0302,12.15659 -23.56177,8.28983 -48.94665,10.88943 -72.10876,20.26102 -4.47034,1.8087 -4.25248,9.11424 -8.01211,12.15659 -3.29737,2.66831 -8.2412,2.14197 -12.01812,4.05218 -4.30635,2.178 -7.45055,6.56432 -12.01811,8.10442 -3.80049,1.28142 -8.43506,-1.8122 -12.01815,0 -2.67071,1.35074 -2.34974,5.59134 -4.00605,8.10439 -1.04753,1.5894 -2.38672,3.0694 -4.00606,4.0522 -5.12079,3.10791 -10.35875,6.19419 -16.02414,8.10439 -1.79158,0.6041 2.11757,-4.05217 4.00602,-4.05217 1.33537,0 0.94425,3.09709 0,4.05217 -0.94424,0.95512 -2.81167,-0.60405 -4.00602,0 -1.68911,0.8543 -2.38672,3.0694 -4.00606,4.05223 -5.12084,3.10789 -10.68279,5.40293 -16.02419,8.1044 -2.67069,1.3507 -5.90072,1.91648 -8.012051,4.05219 -4.933374,4.99017 12.225661,8.1044 -8.012101,8.1044 -2.985922,0 -5.179385,-5.00732 -8.012078,-4.0522 -2.832701,0.9551 -2.670702,5.40293 -4.006068,8.10438 -4.006026,0 -8.012051,0 -12.018121,0 -1.335332,0 2.670702,0 4.00607,0 5.341351,0 10.682744,0 16.024143,0 18.694876,0 37.607136,-2.87542 56.084596,0 2.95123,0.45926 1.17337,7.14932 4.00606,8.10441 2.83272,0.95512 5.08415,-4.64454 8.01211,-4.05219 4.72116,0.95511 7.29695,7.14927 12.01811,8.1044 2.92796,0.59233 5.02616,-4.05221 8.01209,-4.05221 11.18802,0 17.65208,6.19352 28.04231,8.1044 10.59224,1.94806 21.3196,3.14786 32.04832,4.05222 5.32295,0.44866 11.06485,-2.00661 16.0242,0 2.77236,1.12171 1.17336,7.14929 4.00604,8.10437 2.83272,0.95512 5.03648,-4.30303 8.01208,-4.05217 13.57087,1.14392 26.92234,4.48001 40.06044,8.10439 1.82191,0.50262 2.11756,4.05218 4.00602,4.05218 1.8885,0 2.11757,-4.05218 4.00609,-4.05218 5.50575,0 10.59328,3.13664 16.02411,4.05218 2.63438,0.44412 5.3414,0 8.0121,0 1.33537,0 -5.3414,0 -4.00601,0 5.34138,0 11.24667,2.41629 16.02415,0 2.67066,-1.35071 -1.33534,-9.45511 0,-12.15657 2.1532,-4.35599 6.84436,-7.43188 8.01206,-12.15661 1.61937,-6.55203 0,-13.50733 0,-20.261 0,-4.0522 -2.22212,-8.78495 0,-12.15661 1.48147,-2.24774 7.02027,2.50826 8.01211,0 2.47969,-6.27063 0,-13.50734 0,-20.261 0,-1.35072 -0.94421,-3.0971 0,-4.05219 2.11135,-2.13568 5.90071,-1.91651 8.01209,-4.0522 0.94423,-0.95512 -3.40886,1.20815 -4.00603,0 -1.1944,-2.41628 -1.1944,-5.68814 0,-8.10442 1.18695,-2.4013 24.48132,8.55465 4.00603,-12.15659 -2.11138,-2.1357 -5.06676,4.54875 -8.01209,4.05219 -5.89059,-0.99305 -10.31641,-6.32791 -16.02417,-8.10437 -11.76687,-3.66231 -24.11066,-5.08406 -36.05435,-8.10439 -4.09671,-1.03597 -7.82802,-3.5224 -12.01817,-4.05225 -6.62518,-0.83767 -13.51245,1.4651 -20.0302,0 -5.82968,-1.31038 -10.06553,-7.70256 -16.02418,-8.10438 -14.71673,-0.99238 -29.34976,3.05979 -44.06644,4.05221 -5.32959,0.35943 -10.68282,0 -16.0242,0 -12.01813,0 -24.03628,0 -36.0544,0 -2.67069,0 -5.34139,0 -8.01208,0 -8.01209,0 -16.43533,2.56284 -24.03629,0 -2.53364,-0.85429 0,-5.40294 0,-8.1044 0,-1.35074 0.80124,5.13277 0,4.05219 -4.67181,-6.30085 -8.95093,-13.02176 -12.01811,-20.26101 -1.57805,-3.72454 0,-8.10439 0,-12.15659 0,-10.80586 0,-21.61173 0,-32.41759 0,-2.70149 -1.48142,-5.85663 0,-8.10439 6.82908,-10.36165 15.92921,-18.99345 24.03626,-28.36539 1.24359,-1.43761 3.16151,-2.34367 4.00605,-4.05222 1.88849,-3.82046 0.0377,-10.69686 4.00606,-12.15659 12.61209,-4.63909 26.85679,-1.62389 40.06043,-4.05222 1.85798,-0.34183 2.15424,-3.67757 4.00601,-4.05218 5.23769,-1.05961 10.68279,0 16.02419,0 19.51842,0 26.63687,-0.71084 52.07856,12.15659 3.77692,1.91024 1.30269,8.87523 4.00603,12.15662 4.27434,5.18831 10.5911,8.2311 16.02417,12.15658 3.91787,2.83071 8.01209,5.40293 12.01814,8.10442 13.35346,10.80588 26.3798,22.03887 40.06046,32.41758 2.38869,1.8122 5.62335,2.24 8.01206,4.05222 3.02154,2.29226 4.58278,6.5034 8.01206,8.10435 14.1913,6.62528 29.23874,11.20929 44.06649,16.20881 1.26687,0.42715 2.81169,-0.60404 4.00606,0 35.58184,23.99458 -9.62933,-3.24672 24.03623,8.10442 1.26688,0.42713 0,2.70145 0,4.05223 2.67069,1.3507 5.02617,4.05217 8.01211,4.05217 1.88843,0 -2.11759,-4.05217 -4.00601,-4.05217 -1.33541,0 0,2.70143 0,4.05217 0,5.40293 0,10.80588 0,16.20882 0,10.80586 0.96714,21.65607 0,32.41758 -0.38234,4.25386 -1.02016,9.13624 -4.0061,12.15659 -2.98592,3.02032 -8.82704,1.25473 -12.0181,4.05222 -17.12512,15.01274 -30.48455,34.17153 -48.07251,48.62638 -4.2731,3.51191 -10.68277,2.70146 -16.02418,4.05222 -5.34139,1.35071 -10.67208,2.74539 -16.02419,4.0522 -33.37322,8.1484 -66.23093,18.95213 -100.15108,24.31318 -9.32911,1.47451 -18.62396,-3.37172 -28.04231,-4.05221 -52.5481,-3.79666 -18.4622,11.45204 -100.15108,-12.15658 -5.44741,-1.57434 -6.95083,-9.59376 -12.018117,-12.15659 -3.583107,-1.81222 -8.25328,1.3848 -12.018113,0 -11.224642,-4.12871 -21.607672,-10.34159 -32.048367,-16.20881 -1.65082,-0.9277 -2.117576,-4.05222 -4.006028,-4.05222 -2.985924,0 -5.179391,5.00733 -8.012092,4.05222 -2.8327,-0.95512 -1.894652,-5.96871 -4.006026,-8.1044 -0.944244,-0.95512 -3.061821,0.95512 -4.006065,0 -0.944243,-0.95512 0,-2.70147 0,-4.0522 0,-1.35073 -1.33533,-4.0522 0,-4.0522 1.335369,0 0,2.70147 0,4.0522 0,-5.40293 -0.878112,-10.87939 0,-16.20879 0.981776,-5.95847 6.123636,-10.47813 8.012091,-16.20882 3.074224,-9.32888 5.654271,-18.82551 8.012092,-28.3654 0.647718,-2.62081 -1.194356,-5.68812 0,-8.1044 2.153177,-4.35599 4.607592,-8.71291 8.01209,-12.15659 0.944213,-0.95512 0,5.40293 0,4.05217 0,-15.63789 -1.48145,-1.05516 8.012092,-20.26097 0.597178,-1.20812 -0.944246,-3.0971 0,-4.05219 2.11137,-2.1357 6.355763,-1.53916 8.012094,-4.05223 20.710162,-5.04401 3.664504,-19.57004 8.012051,-28.36538 0.597218,-1.20813 3.061821,0.95512 4.006068,0 5.200421,-5.26035 4.006024,-9.78906 4.006024,-16.2088 0,-1.35073 -1.335332,4.0522 0,4.0522 2.985929,0 5.900717,-1.91652 8.012089,-4.0522 2.111376,-2.13572 1.894696,-5.96872 4.006066,-8.10439 0.236765,-0.2395 6.440461,0.19879 8.012051,0 53.23559,-6.73113 9.68724,-6.14465 40.06045,0 2.61882,0.52978 5.3414,0 8.01211,0 21.36554,0 42.73111,0 64.09671,0 13.35344,0 26.70692,0 40.06039,0 2.67071,0 5.34139,0 8.01209,0 5.34139,0 10.81956,-1.21491 16.02419,0 12.3438,2.88137 23.63217,9.64352 36.05437,12.15659 1.85178,0.37462 2.11761,-4.0522 4.00604,-4.0522 2.98594,0 5.09728,3.39697 8.01211,4.0522 9.21747,2.07192 18.65768,2.99745 28.04227,4.05218 2.65436,0.2982 5.3414,0 8.01211,0 1.33534,0 2.73921,-0.42713 4.00603,0 6.82205,2.30023 13.59835,4.85141 20.03022,8.10442 1.68909,0.85429 2.11757,4.05222 4.00604,4.05222 1.88846,0 2.31692,-3.19793 4.00603,-4.05222 5.65329,-2.85922 17.47365,10.43256 20.0302,12.15657 1.57131,1.05963 -5.34138,-2.70142 -4.00601,-4.05218 8.12031,-8.21388 10.03505,6.76715 12.0181,8.1044 2.2222,1.49851 5.3414,0 8.01211,0 1.33534,0 4.00605,-1.35074 4.00605,0 0,1.35071 -4.60325,-1.20811 -4.00605,0 1.68906,3.41709 5.91704,4.92561 8.01208,8.1044 0.74071,1.12388 1.33532,4.05219 0,4.05219 -1.33539,0 0,-5.40292 0,-4.05219 0,6.75366 0,13.50735 0,20.26101 0,9.45512 0,18.91028 0,28.36539 0,5.40295 0,10.80589 0,16.20881 0,1.35071 -0.94426,3.09708 0,4.0522 5.34143,5.40293 4.00601,-6.75366 4.00601,4.0522"
       id="path4150"
       inkscape:connector-curvature="0" />
  </g>
</svg>
