<?xml version="1.0" encoding="UTF-8" standalone="no"?>
<!-- Created with Inkscape (http://www.inkscape.org/) -->

<svg
   xmlns:dc="http://purl.org/dc/elements/1.1/"
   xmlns:cc="http://creativecommons.org/ns#"
   xmlns:rdf="http://www.w3.org/1999/02/22-rdf-syntax-ns#"
   xmlns:svg="http://www.w3.org/2000/svg"
   xmlns="http://www.w3.org/2000/svg"
   xmlns:sodipodi="http://sodipodi.sourceforge.net/DTD/sodipodi-0.dtd"
   xmlns:inkscape="http://www.inkscape.org/namespaces/inkscape"
   width="210mm"
   height="297mm"
   viewBox="0 0 744.09448819 1052.3622047"
   id="svg2"
   version="1.1"
   inkscape:version="0.91 r13725"
   sodipodi:docname="chromatin.svg">
  <defs
     id="defs4" />
  <sodipodi:namedview
     id="base"
     pagecolor="#ffffff"
     bordercolor="#666666"
     borderopacity="1.0"
     inkscape:pageopacity="0.0"
     inkscape:pageshadow="2"
     inkscape:zoom="2.56"
     inkscape:cx="348.58136"
     inkscape:cy="645.95358"
     inkscape:document-units="px"
     inkscape:current-layer="layer1"
     showgrid="false"
     inkscape:window-width="1280"
     inkscape:window-height="691"
     inkscape:window-x="0"
     inkscape:window-y="1"
     inkscape:window-maximized="1" />
  <metadata
     id="metadata7">
    <rdf:RDF>
      <cc:Work
         rdf:about="">
        <dc:format>image/svg+xml</dc:format>
        <dc:type
           rdf:resource="http://purl.org/dc/dcmitype/StillImage" />
        <dc:title></dc:title>
      </cc:Work>
    </rdf:RDF>
  </metadata>
  <g
     inkscape:label="Layer 1"
     inkscape:groupmode="layer"
     id="layer1">
    <path
       style="fill:none;fill-rule:evenodd;stroke:#0000ae;stroke-width:1px;stroke-linecap:butt;stroke-linejoin:miter;stroke-opacity:1"
       d="m 288.36699,438.06319 c -6.26085,0 -12.52169,0 -18.78253,0 -0.71388,0 -4.15608,0.26333 -4.41942,0 -0.52083,-0.52084 0,-1.47314 0,-2.20971 0,-0.36829 0,1.47314 0,1.10485 0,-2.94628 0,-5.89255 0,-8.83883 0,-2.578 0,-5.15599 0,-7.73398 0,-0.36829 0,1.47314 0,1.10485 0,-0.73657 -0.72654,-2.08862 0,-2.20971 4.35929,-0.72655 8.84564,0.24515 13.25826,0 2.23674,-0.12426 4.39813,-0.90203 6.62912,-1.10485 1.83386,-0.16672 3.68285,0 5.52427,0 2.578,0 5.15599,0 7.73398,0 2.20971,0 4.4854,-0.53593 6.62913,0 8.24865,2.06216 16.32399,4.80695 24.3068,7.73398 3.09269,1.13399 5.79818,3.15248 8.83883,4.41942 1.40167,0.58403 2.98751,0.59947 4.41942,1.10485 4.83717,1.70724 9.40669,4.20256 14.3631,5.52427 0.79571,0.21219 1.39741,-0.96947 2.20971,-1.10485 1.13643,-0.18941 9.35181,0.23675 9.94369,0 0.68389,-0.27356 -0.52083,-1.68888 0,-2.20971 0.52084,-0.52083 1.88031,0.65881 2.20971,0 0.65881,-1.31762 -0.24218,-2.96632 0,-4.41942 1.16507,-6.99039 1.15159,-1.04255 1.10486,-1.10485 -5.32746,-7.10328 -0.25346,-5.52427 -8.83884,-5.52427 -7.36569,0 -14.73139,0 -22.09709,0 -1.10485,0 -2.2097,0 -3.31456,0 -1.47314,0 -2.96108,-0.20834 -4.41942,0 -1.15291,0.1647 -2.22409,0.69592 -3.31456,1.10485 -4.80301,1.80113 -9.61986,3.57117 -14.36311,5.52427 -1.52296,0.6271 -2.94627,1.47314 -4.41941,2.20971 -1.47314,0.73657 -3.06012,1.27966 -4.41942,2.20971 -5.65376,3.86836 -11.01926,8.1425 -16.57282,12.1534 -4.30539,3.10945 -3.00295,1.58175 -7.73398,5.52427 -3.00752,2.50627 -5.91278,5.13305 -8.83883,7.73398 -0.73726,0.65534 -2.58128,2.94792 -3.31456,3.31456 -3.30566,1.65283 -2.13384,-10.06222 -2.20971,-11.04854 -0.0847,-1.1016 0,-2.20971 0,-3.31456 0,-4.41942 0,-8.83884 0,-13.25826 0,-0.73657 -0.40858,-1.59684 0,-2.20971 0.4568,-0.6852 1.56665,-0.59041 2.20971,-1.10485 2.94627,-2.57799 5.89255,-5.15599 8.83883,-7.73398 0.73657,0 1.52582,0.27355 2.20971,0 1.2329,-0.49316 2.12688,-1.61587 3.31456,-2.20971 1.04167,-0.52083 2.20971,-0.73657 3.31457,-1.10485 2.20146,-0.73382 5.51427,-1.93225 7.73398,-2.20971 1.46176,-0.18272 2.94627,0 4.41941,0 5.15599,0 10.31992,0.286 15.46796,0 1.04059,-0.0578 6.1393,-2.06167 7.73398,-1.10486 4.41942,3.31457 8.83884,6.62913 13.25826,9.94369 0.73657,0 1.52582,-0.27355 2.20971,0 4.03235,1.61295 5.36355,5.52427 11.04854,5.52427 4.52186,0 -3.25138,-0.26041 2.20971,1.10486 2.12182,0.53045 9.75691,-0.45904 11.04854,-1.10486 6.0848,-3.04239 -1.04858,-1.16112 1.10486,-3.31456 0.5823,-0.58231 1.7529,-0.41965 2.2097,-1.10485 0.40858,-0.61287 0,-1.47314 0,-2.20971 0,-0.36829 0.16471,-0.77545 0,-1.10486 -0.96037,-1.92073 -1.91702,-3.8938 -3.31456,-5.52427 -0.86417,-1.00819 -2.20971,-1.47314 -3.31456,-2.20971 -1.10486,-0.73657 -2.07698,-1.72842 -3.31457,-2.2097 -5.42715,-2.11056 -11.02001,-3.77076 -16.57281,-5.52428 -1.44799,-0.45726 -2.91023,-0.93716 -4.41942,-1.10485 -1.83016,-0.20335 -3.68285,0 -5.52427,0 -11.30532,0 -11.59586,-2.65574 -17.67767,2.20971 -2.1544,1.72352 -2.89933,3.15968 -4.41942,5.52427 -2.59663,4.03921 -4.85287,8.31192 -7.73398,12.1534 -0.4941,0.65881 -1.7156,0.44604 -2.20971,1.10485 -0.69877,0.9317 -0.2344,2.54083 -1.10485,3.31456 -2.59679,2.30826 -6.38207,3.06751 -8.83883,5.52428 -1.64702,1.64702 -0.18737,5.4735 -2.20971,6.62912 -4.03707,2.3069 -6.11807,2.20971 -9.94369,2.20971 -0.36829,0 -0.73657,0 -1.10486,0 -0.36828,0 -0.82193,0.23577 -1.10485,0 -2.00058,-1.66715 -4.14407,-3.31594 -5.52427,-5.52427 -0.58557,-0.93692 0.24843,-2.238 0,-3.31456 -0.86459,-3.74654 -1.83572,-7.49931 -3.31457,-11.04855 -0.40064,-0.96154 -1.8803,-1.22149 -2.2097,-2.20971 -0.16471,-0.4941 0.94015,-0.61074 1.10485,-1.10485 0.16845,-0.50535 -0.24582,-3.92778 0,-4.41942 0.59384,-1.18768 1.41299,-2.25226 2.20971,-3.31456 0.3125,-0.41667 0.62127,-0.91142 1.10485,-1.10485 1.40987,-0.56395 2.99457,-0.57991 4.41942,-1.10486 5.58298,-2.05688 11.08925,-4.32025 16.57282,-6.62913 1.51795,-0.63913 2.7948,-1.93894 4.41941,-2.2097 13.91788,-2.31965 16.07954,-2.20971 25.41165,-2.20971 1.47314,0 2.94628,0 4.41942,0 1.47314,0 2.99026,-0.35729 4.41942,0 38.98417,9.74604 4.43269,0.008 15.46796,6.62912 0.99865,0.59919 2.20971,0.73657 3.31456,1.10486 4.05113,2.20971 8.31382,4.06941 12.1534,6.62912 0.6852,0.4568 0.4618,1.69527 1.10485,2.20971 1.28611,1.02889 3.00711,1.36233 4.41942,2.20971 0.44661,0.26797 0.70941,0.7659 1.10486,1.10486 6.77764,5.80941 4.195,4.30721 8.83883,6.62912 1.47314,0.73657 2.85692,1.68888 4.41942,2.20971 0.69877,0.23292 1.47314,0 2.20971,0 2.28598,0 3.05414,0.52083 4.41941,-2.20971 0.49411,-0.98821 0,-2.20971 0,-3.31456 0,-2.20971 0,-4.41942 0,-6.62913 0,-7.98169 1.00519,-2.44322 -7.73398,-12.1534 -0.88829,-0.98699 -1.07107,-2.63138 -2.20971,-3.31456 -0.9474,-0.56844 -2.22081,0.15625 -3.31456,0 -1.50321,-0.21474 -2.91486,-0.89969 -4.41942,-1.10485 -6.60876,-0.9012 -13.24049,-1.6558 -19.88737,-2.20971 -3.67013,-0.30585 -7.3657,0 -11.04855,0 -5.89255,0 -11.81165,-0.55867 -17.67767,0 -1.97434,0.18803 -3.66727,1.51333 -5.52427,2.20971 -1.09047,0.40892 -2.18472,0.82239 -3.31456,1.10485 -1.82182,0.45546 -3.79822,0.36512 -5.52427,1.10486 -0.67654,0.28994 -10.44067,5.4799 -13.25826,7.73398 -0.8134,0.65072 -1.43115,1.51766 -2.2097,2.20971 -2.53777,2.25579 -5.33306,4.2282 -7.73399,6.62912 -0.26041,0.26042 0,0.73657 0,1.10486 -0.36828,1.10485 -0.28134,2.49105 -1.10485,3.31456 -2.24019,2.24019 -5.49379,3.28408 -7.73398,5.52427 -0.52083,0.52083 0.23292,1.51094 0,2.20971 -0.1647,0.4941 -0.70474,0.77142 -1.10485,1.10485 -1.8116,1.50967 -3.71268,2.90976 -5.52428,4.41942 -0.40011,0.33343 -0.639,0.87193 -1.10485,1.10486 -4.64596,2.32297 -2.80696,0.0995 -8.83884,1.10485 -0.51374,0.0856 -0.639,0.87193 -1.10485,1.10485 -1.36789,0.68395 -3.04674,-1.67407 -3.31456,-2.2097 -0.65881,-1.31762 0.81715,-3.1937 0,-4.41942 -0.4568,-0.6852 -2.07433,-0.29255 -2.20971,-1.10486 -0.30872,-1.85234 0.79613,-3.67193 1.10485,-5.52427 0.0606,-0.36327 0,-0.73657 0,-1.10485 0,-4.28702 -0.34333,-8.06853 2.20971,-12.1534 0.61725,-0.9876 2.58703,-0.19544 3.31456,-1.10485 0.94859,-1.18574 -0.0704,-3.45787 1.10486,-4.41942 25.66129,-20.9956 3.30381,0.006 14.36311,-6.62913 0.89322,-0.53593 1.19116,-1.99145 2.2097,-2.20971 5.86963,-1.25777 12.65345,-1.10485 18.78253,-1.10485 0.73657,0 1.50571,-0.21662 2.20971,0 4.12004,1.2677 8.20415,2.69162 12.15339,4.41942 7.34895,3.21516 3.55398,2.10426 7.73399,5.52427 3.24991,2.65902 6.69377,5.07495 9.94368,7.73398 0.80621,0.65962 1.58471,1.37637 2.20971,2.20971 0.49411,0.6588 0.52255,1.6274 1.10486,2.20971 0.93894,0.93894 2.48505,1.17281 3.31456,2.2097 0.72753,0.90942 0.36737,2.4132 1.10485,3.31457 2.6385,3.22482 6.38812,5.4691 8.83884,8.83883 0.64984,0.89354 -0.56844,2.36716 0,3.31457 0.68318,1.13863 2.27767,1.38019 3.31456,2.2097 2.65138,2.1211 5.08261,4.50803 7.73398,6.62913 1.10486,0.73657 2.20971,1.47314 3.31457,2.20971 0,-0.36829 -0.36829,-1.10486 0,-1.10486 1.16461,0 2.27289,0.58403 3.31456,1.10486 0.46585,0.23292 0.58402,1.10485 1.10485,1.10485 3.79794,0 5.79563,0.0195 6.62913,-3.31456 0.17864,-0.71458 -0.23292,-1.51094 0,-2.20971 0.52083,-1.5625 1.6314,-2.87726 2.20971,-4.41942 0.53317,-1.42179 0.7136,-2.95221 1.10485,-4.41941 1.08195,-4.05731 2.67606,-8.00314 3.31457,-12.1534 0.12522,-0.81394 -0.96947,-1.39741 -1.10486,-2.20971 -0.24218,-1.4531 0,-2.94628 0,-4.41942 0,-1.10485 0.41033,-2.28873 0,-3.31456 -1.19638,-2.99096 -3.07148,-2.20971 -5.52427,-2.20971 -0.36829,0 -0.74757,0.0893 -1.10485,0 -5.81696,-1.45424 -0.77034,-1.10485 -6.62913,-1.10485 -8.47055,0 -16.9411,0 -25.41165,0 -3.56392,0 -6.45929,-0.28891 -9.94369,1.10485 -1.99386,0.79754 -3.49601,2.60908 -5.52427,3.31456 -6.49826,2.26027 -13.49934,2.96906 -19.88738,5.52428 -1.2329,0.49315 -1.17282,2.48505 -2.20971,3.31456 -0.90941,0.72753 -2.2729,0.58402 -3.31456,1.10485 -1.18768,0.59384 -2.05484,1.7898 -3.31456,2.20971 -1.04816,0.34939 -2.32636,-0.4941 -3.31457,0 -0.73657,0.36829 -0.64805,1.52451 -1.10485,2.20971 -0.28891,0.43336 -0.65825,0.83689 -1.10486,1.10485 -1.4123,0.84739 -2.85691,1.68888 -4.41941,2.20971 -0.49411,0.16471 0.58402,-1.10485 1.10485,-1.10485 0.36829,0 0.26042,0.84444 0,1.10485 -0.26042,0.26042 -0.77545,-0.1647 -1.10485,0 -0.46585,0.23293 -0.65825,0.83689 -1.10486,1.10486 -1.41231,0.84738 -2.94628,1.47314 -4.41942,2.20971 -0.73657,0.36828 -1.6274,0.52254 -2.2097,1.10485 -1.36061,1.3606 3.3718,2.20971 -2.20971,2.20971 -0.82351,0 -1.42846,-1.36527 -2.20971,-1.10485 -0.78125,0.26041 -0.73657,1.47313 -1.10486,2.2097 -1.10485,0 -2.2097,0 -3.31456,0 -0.36828,0 0.73657,0 1.10486,0 1.47313,0 2.94627,0 4.41941,0 5.15599,0 10.37193,-0.784 15.46796,0 0.81394,0.12522 0.32361,1.9493 1.10486,2.20971 0.78125,0.26042 1.40219,-1.26636 2.20971,-1.10485 1.30208,0.26041 2.01248,1.94929 3.31456,2.20971 0.80752,0.1615 1.3862,-1.10486 2.20971,-1.10486 3.08562,0 4.86839,1.6887 7.73398,2.20971 2.92131,0.53115 5.87988,0.85828 8.83883,1.10486 1.46805,0.12233 3.05165,-0.54711 4.41942,0 0.76461,0.30584 0.32361,1.94929 1.10486,2.2097 0.78125,0.26042 1.38904,-1.17324 2.2097,-1.10485 3.74281,0.3119 7.4251,1.2215 11.04855,2.20971 0.50248,0.13704 0.58402,1.10485 1.10485,1.10485 0.52084,0 0.58402,-1.10485 1.10486,-1.10485 1.51847,0 2.9216,0.85522 4.41941,1.10485 0.72655,0.12109 1.47314,0 2.20971,0 0.36829,0 -1.47314,0 -1.10485,0 1.47314,0 3.1018,0.65881 4.41942,0 0.73656,-0.36828 -0.36829,-2.57799 0,-3.31456 0.59384,-1.18768 1.88765,-2.02634 2.2097,-3.31456 0.44661,-1.78645 0,-3.68285 0,-5.52427 0,-1.10486 -0.61286,-2.39527 0,-3.31457 0.40858,-0.61286 1.93616,0.68389 2.20971,0 0.68389,-1.70972 0,-3.68285 0,-5.52427 0,-0.36828 -0.26041,-0.84444 0,-1.10485 0.58231,-0.58231 1.6274,-0.52255 2.20971,-1.10486 0.26042,-0.26042 -0.94015,0.32941 -1.10485,0 -0.32941,-0.65881 -0.32941,-1.5509 0,-2.20971 0.32736,-0.65473 6.75188,2.33247 1.10485,-3.31456 -0.58231,-0.58231 -1.3974,1.24024 -2.20971,1.10485 -1.62461,-0.27076 -2.84523,-1.72534 -4.41941,-2.2097 -3.24527,-0.99855 -6.64965,-1.3862 -9.94369,-2.20971 -1.12985,-0.28246 -2.15894,-0.9604 -3.31457,-1.10486 -1.8272,-0.2284 -3.72669,0.39946 -5.52427,0 -1.6078,-0.35729 -2.77604,-2.10015 -4.41942,-2.20971 -4.05882,-0.27058 -8.09457,0.83427 -12.15339,1.10486 -1.46988,0.098 -2.94628,0 -4.41942,0 -3.31456,0 -6.62913,0 -9.94369,0 -0.73657,0 -1.47314,0 -2.20971,0 -2.20971,0 -4.53281,0.69877 -6.62913,0 -0.69877,-0.23293 0,-1.47314 0,-2.20971 0,-0.36829 0.22098,1.39948 0,1.10485 -1.28847,-1.71796 -2.46864,-3.55045 -3.31456,-5.52427 -0.43522,-1.01552 0,-2.20971 0,-3.31456 0,-2.94628 0,-5.89256 0,-8.83884 0,-0.73657 -0.40857,-1.59684 0,-2.2097 1.88344,-2.82516 4.39323,-5.17867 6.62913,-7.73398 0.34297,-0.39197 0.87193,-0.63901 1.10485,-1.10486 0.52084,-1.04167 0.0104,-2.91656 1.10486,-3.31456 3.47838,-1.26487 7.40702,-0.44276 11.04854,-1.10486 0.51243,-0.0932 0.59414,-1.00271 1.10485,-1.10485 1.44454,-0.28891 2.94628,0 4.41942,0 5.38312,0 7.34637,-0.19381 14.36311,3.31456 1.04166,0.52084 0.35928,2.41988 1.10485,3.31457 1.17885,1.41462 2.92099,2.24425 4.41942,3.31456 1.08053,0.77181 2.20971,1.47314 3.31456,2.20971 3.68285,2.94628 7.27547,6.00902 11.04855,8.83883 0.6588,0.49411 1.5509,0.61075 2.20971,1.10486 0.83333,0.625 1.26391,1.77319 2.2097,2.2097 3.91391,1.80642 8.06395,3.05627 12.1534,4.41942 0.34939,0.11646 0.77545,-0.1647 1.10486,0 9.81336,6.54225 -2.65574,-0.88524 6.62912,2.20971 0.34939,0.11646 0,0.73657 0,1.10486 0.73657,0.36828 1.3862,1.10485 2.20971,1.10485 0.52083,0 -0.58402,-1.10485 -1.10485,-1.10485 -0.36829,0 0,0.73656 0,1.10485 0,1.47314 0,2.94628 0,4.41942 0,2.94628 0.26674,5.90465 0,8.83883 -0.10544,1.15984 -0.28135,2.49105 -1.10486,3.31456 -0.82351,0.82351 -2.43447,0.34211 -3.31456,1.10486 -4.72306,4.09331 -8.40754,9.31705 -13.25825,13.25825 -1.17851,0.95754 -2.94628,0.73657 -4.41942,1.10486 -1.47314,0.36828 -2.94333,0.74855 -4.41942,1.10485 -9.20423,2.22171 -18.26629,5.1674 -27.62136,6.62913 -2.57294,0.40202 -5.13643,-0.91932 -7.73398,-1.10486 -14.49261,-1.03518 -5.09182,3.12245 -27.62136,-3.31456 -1.50238,-0.42925 -1.91702,-2.61579 -3.31456,-3.31456 -0.98821,-0.49411 -2.27623,0.37757 -3.31456,0 -3.09572,-1.12572 -5.95933,-2.81969 -8.83884,-4.41942 -0.45529,-0.25294 -0.58402,-1.10486 -1.10485,-1.10486 -0.82351,0 -1.42846,1.36527 -2.20971,1.10486 -0.78125,-0.26042 -0.52254,-1.6274 -1.10485,-2.20971 -0.26042,-0.26042 -0.84444,0.26042 -1.10486,0 -0.26042,-0.26042 0,-0.73657 0,-1.10485 0,-0.36829 -0.36828,-1.10486 0,-1.10486 0.36829,0 0,0.73657 0,1.10486 0,-1.47314 -0.24218,-2.96633 0,-4.41942 0.27077,-1.62461 1.68888,-2.85692 2.20971,-4.41942 0.84786,-2.54357 1.55943,-5.13288 2.20971,-7.73398 0.17864,-0.71458 -0.3294,-1.5509 0,-2.20971 0.59384,-1.18768 1.27076,-2.37562 2.20971,-3.31456 0.26041,-0.26042 0,1.47314 0,1.10485 0,-4.26376 -0.40858,-0.2877 2.20971,-5.52427 0.1647,-0.3294 -0.26042,-0.84444 0,-1.10485 0.58231,-0.58231 1.7529,-0.41966 2.20971,-1.10486 5.7118,-1.37528 1.01066,-5.33588 2.2097,-7.73398 0.16471,-0.3294 0.84444,0.26042 1.10486,0 1.43426,-1.43426 1.10485,-2.66904 1.10485,-4.41942 0,-0.36828 -0.36828,1.10486 0,1.10486 0.82351,0 1.6274,-0.52255 2.20971,-1.10486 0.58231,-0.58231 0.52255,-1.6274 1.10486,-2.2097 0.0653,-0.0653 1.77626,0.0542 2.2097,0 14.68221,-1.83528 2.67171,-1.67537 11.04855,0 0.72226,0.14445 1.47314,0 2.20971,0 5.89255,0 11.78511,0 17.67767,0 3.68284,0 7.36569,0 11.04854,0 0.73657,0 1.47314,0 2.20971,0 1.47314,0 2.984,-0.33125 4.41942,0 3.40438,0.78562 6.51768,2.62936 9.94368,3.31456 0.51072,0.10214 0.58403,-1.10486 1.10486,-1.10486 0.82351,0 1.40581,0.92621 2.20971,1.10486 2.54215,0.56492 5.14574,0.81727 7.73398,1.10485 0.73206,0.0813 1.47314,0 2.20971,0 0.36828,0 0.75547,-0.11646 1.10485,0 1.8815,0.62717 3.75038,1.32276 5.52427,2.20971 0.46585,0.23293 0.58402,1.10486 1.10486,1.10486 0.52083,0 0.639,-0.87193 1.10485,-1.10486 1.55916,-0.77958 4.81918,2.8445 5.52427,3.31456 0.43336,0.28891 -1.47314,-0.73656 -1.10485,-1.10485 2.23956,-2.23956 2.76764,1.8451 3.31456,2.20971 0.61287,0.40857 1.47314,0 2.20971,0 0.36829,0 1.10486,-0.36829 1.10486,0 0,0.36828 -1.26956,-0.3294 -1.10486,0 0.46585,0.93169 1.6319,1.34299 2.20971,2.20971 0.20429,0.30643 0.36828,1.10485 0,1.10485 -0.36829,0 0,-1.47314 0,-1.10485 0,1.84142 0,3.68285 0,5.52427 0,2.57799 0,5.15599 0,7.73398 0,1.47314 0,2.94628 0,4.41942 0,0.36828 -0.26042,0.84443 0,1.10485 1.47314,1.47314 1.10485,-1.84142 1.10485,1.10486"
       id="path4150"
       inkscape:connector-curvature="0" />
  </g>
</svg>
