<?xml version="1.0" encoding="UTF-8" standalone="no"?>
<!-- Created with Inkscape (http://www.inkscape.org/) -->

<svg
   xmlns:dc="http://purl.org/dc/elements/1.1/"
   xmlns:cc="http://creativecommons.org/ns#"
   xmlns:rdf="http://www.w3.org/1999/02/22-rdf-syntax-ns#"
   xmlns:svg="http://www.w3.org/2000/svg"
   xmlns="http://www.w3.org/2000/svg"
   xmlns:sodipodi="http://sodipodi.sourceforge.net/DTD/sodipodi-0.dtd"
   xmlns:inkscape="http://www.inkscape.org/namespaces/inkscape"
   width="210mm"
   height="297mm"
   viewBox="0 0 744.09448819 1052.3622047"
   id="svg4153"
   version="1.1"
   inkscape:version="0.91 r13725"
   sodipodi:docname="dna.svg">
  <defs
     id="defs4155" />
  <sodipodi:namedview
     id="base"
     pagecolor="#ffffff"
     bordercolor="#666666"
     borderopacity="1.0"
     inkscape:pageopacity="0.0"
     inkscape:pageshadow="2"
     inkscape:zoom="1.3181903"
     inkscape:cx="255.69301"
     inkscape:cy="465.71657"
     inkscape:document-units="px"
     inkscape:current-layer="layer1"
     showgrid="false"
     inkscape:window-width="942"
     inkscape:window-height="701"
     inkscape:window-x="77"
     inkscape:window-y="0"
     inkscape:window-maximized="0" />
  <metadata
     id="metadata4158">
    <rdf:RDF>
      <cc:Work
         rdf:about="">
        <dc:format>image/svg+xml</dc:format>
        <dc:type
           rdf:resource="http://purl.org/dc/dcmitype/StillImage" />
        <dc:title />
      </cc:Work>
    </rdf:RDF>
  </metadata>
  <g
     inkscape:label="Layer 1"
     inkscape:groupmode="layer"
     id="layer1">
    <path
       style="fill:#000080;fill-rule:evenodd;stroke:#000080;stroke-width:0.67972189px;stroke-linecap:butt;stroke-linejoin:miter;stroke-opacity:1"
       d="m 329.48327,403.57774 c 3.63771,13.76759 -9.313,81.11873 -60.01702,69.31286 -40.39635,-9.66628 -44.04528,-66.66509 -44.19094,-69.24527 l -29.64772,0 c -1.73298,84.38011 73.07795,88.71018 73.07795,88.71018 110.23435,0.92374 93.39325,-86.91782 93.07518,-88.52902 0.0338,-0.009 0.0606,-0.0215 0.0606,-0.0405 l 0,-0.0991 c 0,-0.0274 -0.0479,-0.0495 -0.10755,-0.0495 l -19.27366,0 c -2.2042,-0.0135 -4.34947,-0.0158 -6.38869,0 l -6.41023,0 c -0.0595,0 -0.10755,0.0222 -0.10755,0.0495 l 0,0.0901 c -0.016,4.6e-4 -0.0348,6.3e-4 -0.0508,10e-4 z"
       id="path4703"
       inkscape:connector-curvature="0"
       sodipodi:nodetypes="ccccccsssccssccc" />
    <path
       style="fill:none;fill-rule:evenodd;stroke:#000000;stroke-width:0.67972189px;stroke-linecap:butt;stroke-linejoin:miter;stroke-opacity:1"
       d="m 226.01694,411.24739 103.93329,-0.15067 -0.47581,6.56634 -102.20591,-0.28759 z"
       id="path4708"
       inkscape:connector-curvature="0"
       sodipodi:nodetypes="ccccc" />
    <path
       style="fill:none;fill-rule:evenodd;stroke:#000000;stroke-width:0.79632521px;stroke-linecap:butt;stroke-linejoin:miter;stroke-opacity:1"
       d="M 133.2758,427.63115 Z"
       id="path4710"
       inkscape:connector-curvature="0" />
    <path
       style="fill:none;fill-rule:evenodd;stroke:#000000;stroke-width:0.67972189px;stroke-linecap:butt;stroke-linejoin:miter;stroke-opacity:1"
       d="m 229.91441,428.57697 97.45677,-6.2e-4 -2.28281,6.92216 -92.91104,-0.0117 z"
       id="path4712"
       inkscape:connector-curvature="0"
       sodipodi:nodetypes="ccccc" />
    <path
       style="fill:none;fill-rule:evenodd;stroke:#000000;stroke-width:0.70527273px;stroke-linecap:butt;stroke-linejoin:miter;stroke-opacity:1"
       d="m 237.1299,446.39478 83.22368,-0.096 -3.1291,6.15306 -76.25236,0.14256 z"
       id="path4714"
       inkscape:connector-curvature="0"
       sodipodi:nodetypes="ccccc" />
    <path
       style="fill:none;fill-rule:evenodd;stroke:#000000;stroke-width:0.67972189px;stroke-linecap:butt;stroke-linejoin:miter;stroke-opacity:1"
       d="m 248.90865,461.53669 61.46299,-0.0577 -6.30241,5.55394 -48.36653,0.10713 z"
       id="path4718"
       inkscape:connector-curvature="0"
       sodipodi:nodetypes="ccccc" />
    <path
       style="fill:#000080;fill-rule:evenodd;stroke:#000080;stroke-width:0.66527069px;stroke-linecap:butt;stroke-linejoin:miter;stroke-opacity:1"
       d="m 326.80467,595.0438 c 3.638,-13.18731 -9.31377,-77.69971 -60.02199,-66.39143 -40.39971,9.25885 -44.04893,63.85526 -44.19462,66.32668 l -29.65019,0 c -1.7331,-80.82363 73.08405,-84.9712 73.08405,-84.9712 110.24345,-0.8848 93.40096,83.25439 93.08286,84.79768 0.0338,0.008 0.0606,0.0207 0.0606,0.0389 l 0,0.095 c 0,0.0263 -0.0479,0.0474 -0.10756,0.0474 l -19.27525,0 c -2.20436,0.0129 -4.34983,0.0152 -6.38922,0 l -6.41076,0 c -0.0595,0 -0.10755,-0.0211 -0.10755,-0.0474 l 0,-0.0863 c -0.016,-4.4e-4 -0.0348,-6.1e-4 -0.0508,-10e-4 z"
       id="path4703-2"
       inkscape:connector-curvature="0"
       sodipodi:nodetypes="ccccccsssccssccc" />
    <path
       style="fill:none;fill-rule:evenodd;stroke:#000000;stroke-width:0.66527069px;stroke-linecap:butt;stroke-linejoin:miter;stroke-opacity:1"
       d="m 223.32977,587.69741 103.9419,0.14432 -0.47586,-6.28958 -102.21437,0.27547 z"
       id="path4708-9"
       inkscape:connector-curvature="0"
       sodipodi:nodetypes="ccccc" />
    <path
       style="fill:none;fill-rule:evenodd;stroke:#000000;stroke-width:0.66527069px;stroke-linecap:butt;stroke-linejoin:miter;stroke-opacity:1"
       d="m 227.22755,571.09825 97.46485,6e-4 -2.28301,-6.63041 -92.91872,0.0112 z"
       id="path4712-6"
       inkscape:connector-curvature="0"
       sodipodi:nodetypes="ccccc" />
    <path
       style="fill:none;fill-rule:evenodd;stroke:#000000;stroke-width:0.69027829px;stroke-linecap:butt;stroke-linejoin:miter;stroke-opacity:1"
       d="m 234.44365,554.03143 83.23057,0.0919 -3.12937,-5.89372 -76.25866,-0.13654 z"
       id="path4714-5"
       inkscape:connector-curvature="0"
       sodipodi:nodetypes="ccccc" />
    <path
       style="fill:none;fill-rule:evenodd;stroke:#000000;stroke-width:0.66527069px;stroke-linecap:butt;stroke-linejoin:miter;stroke-opacity:1"
       d="m 246.22337,539.52773 61.46808,0.0552 -6.30293,-5.31985 -48.37053,-0.1026 z"
       id="path4718-0"
       inkscape:connector-curvature="0"
       sodipodi:nodetypes="ccccc" />
    <rect
       style="fill:#000080;fill-opacity:0.85350318;fill-rule:evenodd;stroke:#000080;stroke-width:0.98075891;stroke-opacity:1"
       id="rect4264"
       width="91.122971"
       height="20.626308"
       x="470.56448"
       y="208.75734"
       ry="0.10600949"
       transform="matrix(0.78278523,0.62229196,-0.59152895,0.80628376,0,0)" />
    <rect
       style="fill:#000080;fill-opacity:0.85350318;fill-rule:evenodd;stroke:#000080;stroke-width:0.9914059;stroke-opacity:1"
       id="rect4264-6"
       width="92.385109"
       height="20.788631"
       x="32.025108"
       y="555.75598"
       ry="0.10684375"
       transform="matrix(-0.78953975,0.61369943,0.6001739,0.79986954,0,0)" />
  </g>
</svg>
