<?xml version="1.0" encoding="UTF-8" standalone="no"?>
<!-- Created with Inkscape (http://www.inkscape.org/) -->

<svg
   xmlns:dc="http://purl.org/dc/elements/1.1/"
   xmlns:cc="http://creativecommons.org/ns#"
   xmlns:rdf="http://www.w3.org/1999/02/22-rdf-syntax-ns#"
   xmlns:svg="http://www.w3.org/2000/svg"
   xmlns="http://www.w3.org/2000/svg"
   xmlns:sodipodi="http://sodipodi.sourceforge.net/DTD/sodipodi-0.dtd"
   xmlns:inkscape="http://www.inkscape.org/namespaces/inkscape"
   width="210mm"
   height="297mm"
   viewBox="0 0 744.09448819 1052.3622047"
   id="svg4153"
   version="1.1"
   inkscape:version="0.91 r13725"
   sodipodi:docname="dna.svg">
  <defs
     id="defs4155" />
  <sodipodi:namedview
     id="base"
     pagecolor="#ffffff"
     bordercolor="#666666"
     borderopacity="1.0"
     inkscape:pageopacity="0.0"
     inkscape:pageshadow="2"
     inkscape:zoom="0.93210131"
     inkscape:cx="248.25037"
     inkscape:cy="551.17664"
     inkscape:document-units="px"
     inkscape:current-layer="layer1"
     showgrid="false"
     inkscape:window-width="1280"
     inkscape:window-height="691"
     inkscape:window-x="0"
     inkscape:window-y="1"
     inkscape:window-maximized="1" />
  <metadata
     id="metadata4158">
    <rdf:RDF>
      <cc:Work
         rdf:about="">
        <dc:format>image/svg+xml</dc:format>
        <dc:type
           rdf:resource="http://purl.org/dc/dcmitype/StillImage" />
        <dc:title></dc:title>
      </cc:Work>
    </rdf:RDF>
  </metadata>
  <g
     inkscape:label="Layer 1"
     inkscape:groupmode="layer"
     id="layer1">
    <path
       style="fill:#000080;fill-rule:evenodd;stroke:#000080;stroke-width:0.79632521px;stroke-linecap:butt;stroke-linejoin:miter;stroke-opacity:1"
       d="m 329.44969,370.36178 c 3.63528,18.90891 -9.30677,111.41146 -59.97691,95.19684 -40.36935,-13.27602 -44.01584,-91.5603 -44.16141,-95.10401 l -29.62791,0 c -1.73182,115.89077 73.02912,121.83785 73.02912,121.83785 110.16068,1.2687 93.33084,-119.37616 93.01298,-121.58904 0.0338,-0.0117 0.0606,-0.0296 0.0606,-0.0557 l 0,-0.13616 c 0,-0.0377 -0.0479,-0.068 -0.10748,-0.068 l -19.26078,0 c -2.20272,-0.0185 -4.34656,-0.0217 -6.38442,0 l -6.40594,0 c -0.0595,0 -0.10748,0.0305 -0.10748,0.068 l 0,0.12378 c -0.016,6.3e-4 -0.0348,8.6e-4 -0.0508,0.002 z"
       id="path4703"
       inkscape:connector-curvature="0"
       sodipodi:nodetypes="ccccccsssccssccc" />
    <path
       style="fill:none;fill-rule:evenodd;stroke:#000000;stroke-width:0.79632521px;stroke-linecap:butt;stroke-linejoin:miter;stroke-opacity:1"
       d="m 226.05251,380.89556 103.86383,-0.20694 -0.47549,9.01845 -102.13761,-0.39498 z"
       id="path4708"
       inkscape:connector-curvature="0"
       sodipodi:nodetypes="ccccc" />
    <path
       style="fill:none;fill-rule:evenodd;stroke:#000000;stroke-width:0.79632521px;stroke-linecap:butt;stroke-linejoin:miter;stroke-opacity:1"
       d="M 133.2758,427.63115 Z"
       id="path4710"
       inkscape:connector-curvature="0" />
    <path
       style="fill:none;fill-rule:evenodd;stroke:#000000;stroke-width:0.79632521px;stroke-linecap:butt;stroke-linejoin:miter;stroke-opacity:1"
       d="m 229.94737,404.69664 97.39165,-8.5e-4 -2.28129,9.50716 -92.84895,-0.016 z"
       id="path4712"
       inkscape:connector-curvature="0"
       sodipodi:nodetypes="ccccc" />
    <path
       style="fill:none;fill-rule:evenodd;stroke:#000000;stroke-width:0.8262592px;stroke-linecap:butt;stroke-linejoin:miter;stroke-opacity:1"
       d="m 237.15804,429.16829 83.16807,-0.13178 -3.12701,8.45084 -76.20141,0.19579 z"
       id="path4714"
       inkscape:connector-curvature="0"
       sodipodi:nodetypes="ccccc" />
    <path
       style="fill:none;fill-rule:evenodd;stroke:#000000;stroke-width:0.79632521px;stroke-linecap:butt;stroke-linejoin:miter;stroke-opacity:1"
       d="m 248.92892,449.96474 61.42192,-0.0793 -6.2982,7.62799 -48.33421,0.14713 z"
       id="path4718"
       inkscape:connector-curvature="0"
       sodipodi:nodetypes="ccccc" />
    <path
       style="fill:#000080;fill-rule:evenodd;stroke:#000080;stroke-width:0.79632521px;stroke-linecap:butt;stroke-linejoin:miter;stroke-opacity:1"
       d="m 326.76693,632.00933 c 3.63527,-18.90892 -9.30677,-111.41146 -59.97691,-95.19684 -40.36937,13.27601 -44.01585,91.56029 -44.16143,95.104 l -29.62792,0 c -1.7318,-115.89077 73.02916,-121.83785 73.02916,-121.83785 110.16066,-1.2687 93.33082,119.37616 93.01295,121.58904 0.0338,0.0117 0.0606,0.0296 0.0606,0.0557 l 0,0.13616 c 0,0.0377 -0.0479,0.068 -0.10748,0.068 l -19.26077,0 c -2.20271,0.0185 -4.34657,0.0218 -6.38443,0 l -6.40594,0 c -0.0595,0 -0.10747,-0.0303 -0.10747,-0.068 l 0,-0.12378 c -0.016,-6.3e-4 -0.0348,-8.7e-4 -0.0508,-0.002 z"
       id="path4703-2"
       inkscape:connector-curvature="0"
       sodipodi:nodetypes="ccccccsssccssccc" />
    <path
       style="fill:none;fill-rule:evenodd;stroke:#000000;stroke-width:0.79632521px;stroke-linecap:butt;stroke-linejoin:miter;stroke-opacity:1"
       d="m 223.36975,621.47554 103.86383,0.20694 -0.4755,-9.01845 -102.1376,0.39498 z"
       id="path4708-9"
       inkscape:connector-curvature="0"
       sodipodi:nodetypes="ccccc" />
    <path
       style="fill:none;fill-rule:evenodd;stroke:#000000;stroke-width:0.79632521px;stroke-linecap:butt;stroke-linejoin:miter;stroke-opacity:1"
       d="m 227.2646,597.67447 97.39165,8.6e-4 -2.2813,-9.50716 -92.84893,0.016 z"
       id="path4712-6"
       inkscape:connector-curvature="0"
       sodipodi:nodetypes="ccccc" />
    <path
       style="fill:none;fill-rule:evenodd;stroke:#000000;stroke-width:0.8262592px;stroke-linecap:butt;stroke-linejoin:miter;stroke-opacity:1"
       d="m 234.47528,573.20282 83.16806,0.13177 -3.12702,-8.45084 -76.20139,-0.19579 z"
       id="path4714-5"
       inkscape:connector-curvature="0"
       sodipodi:nodetypes="ccccc" />
    <path
       style="fill:none;fill-rule:evenodd;stroke:#000000;stroke-width:0.79632521px;stroke-linecap:butt;stroke-linejoin:miter;stroke-opacity:1"
       d="m 246.24615,552.40637 61.42192,0.0792 -6.2982,-7.62799 -48.3342,-0.14711 z"
       id="path4718-0"
       inkscape:connector-curvature="0"
       sodipodi:nodetypes="ccccc" />
    <rect
       style="fill:#000080;fill-opacity:0.85350318;fill-rule:evenodd;stroke:#000080;stroke-width:0.88504273;stroke-opacity:1"
       id="rect4907"
       width="25.243816"
       height="95.632637"
       x="-145.25104"
       y="480.99527"
       ry="0.10841297"
       transform="matrix(0.74096117,-0.67154787,0.6698091,0.74253335,0,0)" />
    <rect
       style="fill:#000080;fill-opacity:0.85350318;fill-rule:evenodd;stroke:#000080;stroke-width:0.88243443;stroke-opacity:1"
       id="rect4907-1"
       width="25.164501"
       height="95.369453"
       x="-563.59991"
       y="93.384209"
       ry="0.10811462"
       transform="matrix(-0.7269602,-0.6866796,-0.68060339,0.73265205,0,0)" />
    <rect
       style="fill:#000080;fill-opacity:0.85350318;fill-rule:evenodd;stroke:#000080;stroke-width:0.87723833;stroke-opacity:1"
       id="rect4907-0"
       width="25.006445"
       height="94.845322"
       x="529.89288"
       y="-255.2238"
       ry="0.10752044"
       transform="matrix(0.72279615,0.69106131,0.67617066,-0.73674503,0,0)" />
    <rect
       style="fill:#000080;fill-opacity:0.85350318;fill-rule:evenodd;stroke:#000080;stroke-width:0.87723833;stroke-opacity:1"
       id="rect4907-1-9"
       width="25.006445"
       height="94.845322"
       x="75.895134"
       y="-650.36816"
       ry="0.10752044"
       transform="matrix(-0.76962844,0.63849203,-0.62265683,-0.78249503,0,0)" />
    <path
       style="fill:#000080;fill-rule:evenodd;stroke:#000080;stroke-width:1.01441014px;stroke-linecap:butt;stroke-linejoin:miter;stroke-opacity:1"
       d="m 223.10189,464.92837 c 46.61422,47.83087 2.47391,68.05996 2.47391,68.05996 l 47.71125,-14.55827 -3.57094,-5.67082 -34.24464,-54.3821 z"
       id="path4972"
       inkscape:connector-curvature="0"
       sodipodi:nodetypes="cccccc" />
    <path
       style="fill:#000080;fill-rule:evenodd;stroke:#000080;stroke-width:1.01441014px;stroke-linecap:butt;stroke-linejoin:miter;stroke-opacity:1"
       d="m 331.89961,462.74739 c -46.61422,47.83087 -2.47391,68.05996 -2.47391,68.05996 l -47.71125,-14.55827 3.57094,-5.67082 34.24464,-54.3821 z"
       id="path4972-2"
       inkscape:connector-curvature="0"
       sodipodi:nodetypes="cccccc" />
  </g>
</svg>
