<?xml version="1.0" encoding="UTF-8" standalone="no"?>
<!-- Created with Inkscape (http://www.inkscape.org/) -->

<svg
   xmlns:osb="http://www.openswatchbook.org/uri/2009/osb"
   xmlns:dc="http://purl.org/dc/elements/1.1/"
   xmlns:cc="http://creativecommons.org/ns#"
   xmlns:rdf="http://www.w3.org/1999/02/22-rdf-syntax-ns#"
   xmlns:svg="http://www.w3.org/2000/svg"
   xmlns="http://www.w3.org/2000/svg"
   xmlns:sodipodi="http://sodipodi.sourceforge.net/DTD/sodipodi-0.dtd"
   xmlns:inkscape="http://www.inkscape.org/namespaces/inkscape"
   width="210.55585mm"
   height="210.55585mm"
   viewBox="0 0 746.06403 746.06402"
   id="svg2"
   version="1.1"
   inkscape:version="0.92.2 5c3e80d, 2017-08-06"
   sodipodi:docname="golgiZoom.svg">
  <defs
     id="defs4">
    <inkscape:path-effect
       effect="spiro"
       id="path-effect5489"
       is_visible="true" />
    <inkscape:path-effect
       effect="spiro"
       id="path-effect5485"
       is_visible="true" />
    <linearGradient
       id="linearGradient5692"
       osb:paint="solid">
      <stop
         style="stop-color:#782121;stop-opacity:1;"
         offset="0"
         id="stop5694" />
    </linearGradient>
    <linearGradient
       osb:paint="solid"
       id="linearGradient5198">
      <stop
         id="stop5200"
         offset="0"
         style="stop-color:#000080;stop-opacity:1;" />
    </linearGradient>
    <inkscape:path-effect
       is_visible="true"
       id="path-effect4159"
       effect="spiro" />
    <inkscape:path-effect
       is_visible="true"
       id="path-effect4155"
       effect="spiro" />
    <inkscape:path-effect
       is_visible="true"
       id="path-effect4151"
       effect="spiro" />
    <inkscape:path-effect
       is_visible="true"
       id="path-effect4159-7"
       effect="spiro" />
    <inkscape:path-effect
       is_visible="true"
       id="path-effect4155-9"
       effect="spiro" />
    <inkscape:path-effect
       is_visible="true"
       id="path-effect4151-3"
       effect="spiro" />
  </defs>
  <sodipodi:namedview
     id="base"
     pagecolor="#ffffff"
     bordercolor="#666666"
     borderopacity="1.0"
     inkscape:pageopacity="0.0"
     inkscape:pageshadow="2"
     inkscape:zoom="0.70000001"
     inkscape:cx="335.02849"
     inkscape:cy="386.42777"
     inkscape:document-units="px"
     inkscape:current-layer="layer1"
     showgrid="false"
     inkscape:window-width="1280"
     inkscape:window-height="691"
     inkscape:window-x="-9"
     inkscape:window-y="0"
     inkscape:window-maximized="0"
     fit-margin-top="0"
     fit-margin-left="0"
     fit-margin-right="0"
     fit-margin-bottom="0" />
  <metadata
     id="metadata7">
    <rdf:RDF>
      <cc:Work
         rdf:about="">
        <dc:format>image/svg+xml</dc:format>
        <dc:type
           rdf:resource="http://purl.org/dc/dcmitype/StillImage" />
        <dc:title></dc:title>
      </cc:Work>
    </rdf:RDF>
  </metadata>
  <g
     inkscape:label="Layer 1"
     inkscape:groupmode="layer"
     id="layer1"
     transform="translate(-0.0870418,-307.40907)">
    <circle
       style="fill:#ffdd55;fill-opacity:1;fill-rule:evenodd;stroke:#000000;stroke-opacity:1"
       id="path3344"
       cx="196.47467"
       cy="200.29854"
       r="0" />
    <path
       inkscape:connector-curvature="0"
       style="fill:#ffeeaa;stroke:#000000;stroke-width:2.00383377;stroke-miterlimit:4;stroke-dasharray:none"
       d="M 746.47231,681.20809 A 372.69166,371.26309 0 0 1 373.78064,1052.4712 372.69166,371.26309 0 0 1 1.0889587,681.20809 372.69166,371.26309 0 0 1 373.78064,309.945 372.69166,371.26309 0 0 1 746.47231,681.20809 Z"
       id="path3662" />
    <g
       transform="matrix(2.1780569,0,0,2.1780569,54.563019,-1426.9514)"
       id="layer1-9"
       inkscape:label="Layer 1">
      <g
         transform="translate(-189.48251,592.20191)"
         id="g3350">
        <path
           style="fill:#ffaaaa;stroke:#ffdd55;stroke-width:2;stroke-miterlimit:4;stroke-dasharray:none"
           d="m 338.63867,388.75373 a 133.13495,20.439804 0 0 1 -89.93945,-5.39649 38.393688,16.572815 0 0 1 -18.61328,2.08203 38.393688,16.572815 0 0 1 -38.39453,-16.57226 38.393688,16.572815 0 0 1 38.39453,-16.57227 38.393688,16.572815 0 0 1 15.48828,1.42969 133.13495,20.439804 0 0 1 93.06445,-5.84961 133.13495,20.439804 0 0 1 112.42383,9.50195 24.859222,12.153398 0 0 1 10.76562,-1.21484 24.859222,12.153398 0 0 1 24.85938,12.15234 24.859222,12.153398 0 0 1 -24.85938,12.1543 24.859222,12.153398 0 0 1 -10.8496,-1.22851 133.13495,20.439804 0 0 1 -112.33985,9.51367 z"
           id="path3338"
           inkscape:connector-curvature="0" />
        <path
           style="fill:#ffaaaa;stroke:#ffdd55;stroke-width:2;stroke-miterlimit:4;stroke-dasharray:none"
           d="m 340.23438,342.20685 a 104.29688,13.28125 0 0 1 -77.25196,-4.38086 22.097086,8.5626211 8.052595 0 1 -14.48437,0.0215 22.097086,8.5626211 8.052595 0 1 -20.67969,-11.57422 22.097086,8.5626211 8.052595 0 1 23.07812,-5.38281 22.097086,8.5626211 8.052595 0 1 3.24024,0.56054 104.29688,13.28125 0 0 1 86.09766,-5.80664 104.29688,13.28125 0 0 1 89.89257,6.57227 8.5626211,20.439804 82.47859 0 1 11.2461,-2.99414 8.5626211,20.439804 82.47859 0 1 21.38476,5.8125 8.5626211,20.439804 82.47859 0 1 -19.14258,11.16601 8.5626211,20.439804 82.47859 0 1 -14.04492,-0.44922 104.29688,13.28125 0 0 1 -89.33593,6.45508 z"
           id="path3344-0"
           inkscape:connector-curvature="0" />
        <ellipse
           style="fill:#ffaaaa;stroke:#ffdd55;stroke-width:2;stroke-miterlimit:4;stroke-dasharray:none"
           id="path3346"
           cx="342.96875"
           cy="-300.79971"
           rx="54.6875"
           ry="9.375"
           transform="scale(1,-1)" />
        <ellipse
           style="fill:#ffaaaa;stroke:#ffdd55;stroke-width:2;stroke-miterlimit:4;stroke-dasharray:none"
           id="path3368"
           cx="342.96875"
           cy="-279.31534"
           rx="33.59375"
           ry="5.859375"
           transform="scale(1,-1)" />
        <ellipse
           style="fill:#ffaaaa;stroke:#ffdd55;stroke-width:2;stroke-miterlimit:4;stroke-dasharray:none"
           id="path3372"
           cx="238.28125"
           cy="-301.19034"
           rx="13.28125"
           ry="12.109375"
           transform="scale(1,-1)" />
        <ellipse
           style="fill:#ffaaaa;stroke:#ffdd55;stroke-width:2;stroke-miterlimit:4;stroke-dasharray:none"
           id="path3374"
           cx="427.73438"
           cy="-284.39346"
           rx="14.453125"
           ry="14.0625"
           transform="scale(1,-1)" />
        <circle
           style="fill:#ff8080;stroke:#ffdd55;stroke-width:2;stroke-miterlimit:4;stroke-dasharray:none"
           id="path3378"
           cx="255.07812"
           cy="-448.06534"
           r="6.640625"
           transform="scale(1,-1)" />
        <circle
           style="fill:#ff8080;stroke:#ffdd55;stroke-width:2;stroke-miterlimit:4;stroke-dasharray:none"
           id="path3380"
           cx="310.54688"
           cy="-446.50284"
           r="10.546875"
           transform="scale(1,-1)" />
        <circle
           style="fill:#ff8080;stroke:#ffdd55;stroke-width:2;stroke-miterlimit:4;stroke-dasharray:none"
           id="path3382"
           cx="411.71875"
           cy="-434.39346"
           r="6.25"
           transform="scale(1,-1)" />
        <circle
           style="fill:#ff8080;stroke:#ffdd55;stroke-width:2;stroke-miterlimit:4;stroke-dasharray:none"
           id="path3384"
           cx="360.9375"
           cy="-447.67471"
           r="7.03125"
           transform="scale(1,-1)" />
        <circle
           style="fill:#ff8080;stroke:#ffdd55;stroke-width:2;stroke-miterlimit:4;stroke-dasharray:none"
           id="path3386"
           cx="473.82812"
           cy="-416.81534"
           r="4.296875"
           transform="scale(1,-1)" />
        <circle
           style="fill:#ff8080;stroke:#ffdd55;stroke-width:2;stroke-miterlimit:4;stroke-dasharray:none"
           id="path3388"
           cx="449.53021"
           cy="-434.99594"
           r="6.6250024"
           transform="scale(1,-1)" />
        <circle
           style="fill:#ff8080;stroke:#ffdd55;stroke-width:2;stroke-miterlimit:4;stroke-dasharray:none"
           id="path3390"
           cx="206.64062"
           cy="-426.97159"
           r="6.640625"
           transform="scale(1,-1)" />
        <circle
           style="fill:#ff8080;stroke:#ffdd55;stroke-width:2;stroke-miterlimit:4;stroke-dasharray:none"
           id="path3392"
           cx="211.71875"
           cy="-397.67471"
           r="5.46875"
           transform="scale(1,-1)" />
        <path
           inkscape:connector-curvature="0"
           style="fill:#ffaaaa;stroke:#ffd42a;stroke-width:2;stroke-miterlimit:4;stroke-dasharray:none"
           d="m 341.67578,397.22461 a 101.32914,10.17866 0 0 0 -85.66406,4.76562 7.4577666,19.887379 75.73894 0 0 -16.4375,0.94727 7.4577666,19.887379 75.73894 0 0 -17.4375,12.12695 7.4577666,19.887379 75.73894 0 0 21.11133,2.33008 7.4577666,19.887379 75.73894 0 0 11.77343,-4.73437 101.32914,10.17866 0 0 0 86.6543,4.92187 101.32914,10.17866 0 0 0 83.66992,-4.4375 19.058737,7.4577666 10.51504 0 0 13.30078,4.90625 19.058737,7.4577666 10.51504 0 0 20.09961,-3.85547 19.058737,7.4577666 10.51504 0 0 -17.37695,-10.81054 19.058737,7.4577666 10.51504 0 0 -10.11523,-0.72461 101.32914,10.17866 0 0 0 -89.57813,-5.43555 z"
           id="path3449" />
      </g>
    </g>
  </g>
</svg>
