<?xml version="1.0" encoding="UTF-8" standalone="no"?>
<!-- Created with Inkscape (http://www.inkscape.org/) -->

<svg
   xmlns:dc="http://purl.org/dc/elements/1.1/"
   xmlns:cc="http://creativecommons.org/ns#"
   xmlns:rdf="http://www.w3.org/1999/02/22-rdf-syntax-ns#"
   xmlns:svg="http://www.w3.org/2000/svg"
   xmlns="http://www.w3.org/2000/svg"
   xmlns:sodipodi="http://sodipodi.sourceforge.net/DTD/sodipodi-0.dtd"
   xmlns:inkscape="http://www.inkscape.org/namespaces/inkscape"
   width="42.182957mm"
   height="41.690525mm"
   viewBox="0 0 149.46709 147.72225"
   id="svg4145"
   version="1.1"
   inkscape:version="0.91 r13725"
   sodipodi:docname="nuclearMembrane.svg">
  <defs
     id="defs4147" />
  <sodipodi:namedview
     id="base"
     pagecolor="#ffffff"
     bordercolor="#666666"
     borderopacity="1.0"
     inkscape:pageopacity="0.0"
     inkscape:pageshadow="2"
     inkscape:zoom="2.8"
     inkscape:cx="121.41645"
     inkscape:cy="75.330404"
     inkscape:document-units="px"
     inkscape:current-layer="layer1"
     showgrid="false"
     inkscape:window-width="1248"
     inkscape:window-height="691"
     inkscape:window-x="53"
     inkscape:window-y="0"
     inkscape:window-maximized="0"
     showguides="true"
     fit-margin-top="0"
     fit-margin-left="0"
     fit-margin-right="0"
     fit-margin-bottom="0" />
  <metadata
     id="metadata4150">
    <rdf:RDF>
      <cc:Work
         rdf:about="">
        <dc:format>image/svg+xml</dc:format>
        <dc:type
           rdf:resource="http://purl.org/dc/dcmitype/StillImage" />
        <dc:title />
      </cc:Work>
    </rdf:RDF>
  </metadata>
  <g
     inkscape:label="Layer 1"
     inkscape:groupmode="layer"
     id="layer1"
     transform="translate(-133.98868,-744.93181)">
    <path
       style="fill:none;stroke:#ff9955;stroke-width:1.99999881;stroke-miterlimit:4;stroke-dasharray:none"
       d="M 78.033203 1.0839844 A 73.571496 73.571496 0 0 0 56.162109 3.3457031 L 57.666016 3.828125 A 71.939388 71.939388 0 0 1 74.822266 1.6757812 A 71.939388 71.939388 0 0 1 129.37891 26.853516 L 131.02344 27.380859 A 73.571496 73.571496 0 0 0 78.033203 1.0839844 z M 51.238281 4.8046875 A 73.571496 73.571496 0 0 0 3.9316406 54.048828 L 6.4257812 51.453125 A 71.939388 71.939388 0 0 1 49.919922 6.1777344 L 51.238281 4.8046875 z M 133.7207 30.478516 L 134.57812 33.660156 A 71.939388 71.939388 0 0 1 146.76172 73.615234 A 71.939388 71.939388 0 0 1 146.54297 78.001953 L 147.95117 83.224609 A 73.236131 73.236131 0 0 0 133.7207 30.478516 z M 2.2773438 60.332031 A 72.85721 72.85721 0 0 0 58.347656 145.04492 L 57.167969 143.26172 A 71.939388 71.939388 0 0 1 2.8828125 73.615234 A 71.939388 71.939388 0 0 1 3.8125 62.652344 L 2.2773438 60.332031 z M 146.39062 89.472656 L 144.60547 90.726562 A 71.939388 71.939388 0 0 1 74.822266 145.55469 A 71.939388 71.939388 0 0 1 67.199219 145.12891 L 65.763672 146.13867 A 73.214357 73.214357 0 0 0 146.39062 89.472656 z "
       transform="translate(133.98868,744.9318)"
       id="path3336" />
  </g>
</svg>
