<?xml version="1.0" encoding="UTF-8" standalone="no"?>
<!-- Created with Inkscape (http://www.inkscape.org/) -->

<svg
   xmlns:osb="http://www.openswatchbook.org/uri/2009/osb"
   xmlns:dc="http://purl.org/dc/elements/1.1/"
   xmlns:cc="http://creativecommons.org/ns#"
   xmlns:rdf="http://www.w3.org/1999/02/22-rdf-syntax-ns#"
   xmlns:svg="http://www.w3.org/2000/svg"
   xmlns="http://www.w3.org/2000/svg"
   xmlns:sodipodi="http://sodipodi.sourceforge.net/DTD/sodipodi-0.dtd"
   xmlns:inkscape="http://www.inkscape.org/namespaces/inkscape"
   width="56mm"
   height="58mm"
   viewBox="0 0 198.42508 205.51169"
   id="svg4648"
   version="1.1"
   inkscape:version="0.91 r13725"
   sodipodi:docname="plasmid.svg">
  <defs
     id="defs4650">
    <linearGradient
       id="linearGradient5198"
       osb:paint="solid">
      <stop
         style="stop-color:#000080;stop-opacity:1;"
         offset="0"
         id="stop5200" />
    </linearGradient>
  </defs>
  <sodipodi:namedview
     id="base"
     pagecolor="#ffffff"
     bordercolor="#666666"
     borderopacity="1.0"
     inkscape:pageopacity="0.0"
     inkscape:pageshadow="2"
     inkscape:zoom="0.9050967"
     inkscape:cx="360.54925"
     inkscape:cy="259.0659"
     inkscape:document-units="px"
     inkscape:current-layer="layer1"
     showgrid="false"
     inkscape:window-width="1168"
     inkscape:window-height="689"
     inkscape:window-x="58"
     inkscape:window-y="0"
     inkscape:window-maximized="0" />
  <metadata
     id="metadata4653">
    <rdf:RDF>
      <cc:Work
         rdf:about="">
        <dc:format>image/svg+xml</dc:format>
        <dc:type
           rdf:resource="http://purl.org/dc/dcmitype/StillImage" />
        <dc:title></dc:title>
      </cc:Work>
    </rdf:RDF>
  </metadata>
  <g
     inkscape:label="Layer 1"
     inkscape:groupmode="layer"
     id="layer1"
     transform="translate(0,-846.851)">
    <path
       style="fill:#3939ff;fill-opacity:1;fill-rule:nonzero;stroke:#00008a;stroke-width:4.4000001;stroke-linecap:butt;stroke-miterlimit:4;stroke-dasharray:none;stroke-opacity:1"
       d="m 100.44928,849.67308 a 96.875,100 0 0 0 -96.8750008,100 96.875,100 0 0 0 96.8750008,99.99992 96.875,100 0 0 0 96.875,-99.99992 96.875,100 0 0 0 -96.875,-100 z m 0,26.5625 a 70.3125,71.875 0 0 1 70.3125,71.875 70.3125,71.875 0 0 1 -70.3125,71.87492 70.3125,71.875 0 0 1 -70.312501,-71.87492 70.3125,71.875 0 0 1 70.312501,-71.875 z"
       id="path5196"
       inkscape:connector-curvature="0" />
  </g>
</svg>
