<?xml version="1.0" encoding="UTF-8" standalone="no"?>
<!-- Created with Inkscape (http://www.inkscape.org/) -->

<svg
   xmlns:osb="http://www.openswatchbook.org/uri/2009/osb"
   xmlns:dc="http://purl.org/dc/elements/1.1/"
   xmlns:cc="http://creativecommons.org/ns#"
   xmlns:rdf="http://www.w3.org/1999/02/22-rdf-syntax-ns#"
   xmlns:svg="http://www.w3.org/2000/svg"
   xmlns="http://www.w3.org/2000/svg"
   xmlns:sodipodi="http://sodipodi.sourceforge.net/DTD/sodipodi-0.dtd"
   xmlns:inkscape="http://www.inkscape.org/namespaces/inkscape"
   width="210mm"
   height="297mm"
   viewBox="0 0 744.09448819 1052.3622047"
   id="svg4648"
   version="1.1"
   inkscape:version="0.91 r13725"
   sodipodi:docname="plasmid.svg">
  <defs
     id="defs4650">
    <linearGradient
       id="linearGradient5198"
       osb:paint="solid">
      <stop
         style="stop-color:#000080;stop-opacity:1;"
         offset="0"
         id="stop5200" />
    </linearGradient>
  </defs>
  <sodipodi:namedview
     id="base"
     pagecolor="#ffffff"
     bordercolor="#666666"
     borderopacity="1.0"
     inkscape:pageopacity="0.0"
     inkscape:pageshadow="2"
     inkscape:zoom="1.8101934"
     inkscape:cx="394.02012"
     inkscape:cy="619.55133"
     inkscape:document-units="px"
     inkscape:current-layer="layer1"
     showgrid="false"
     inkscape:window-width="1280"
     inkscape:window-height="691"
     inkscape:window-x="43"
     inkscape:window-y="37"
     inkscape:window-maximized="0" />
  <metadata
     id="metadata4653">
    <rdf:RDF>
      <cc:Work
         rdf:about="">
        <dc:format>image/svg+xml</dc:format>
        <dc:type
           rdf:resource="http://purl.org/dc/dcmitype/StillImage" />
        <dc:title></dc:title>
      </cc:Work>
    </rdf:RDF>
  </metadata>
  <g
     inkscape:label="Layer 1"
     inkscape:groupmode="layer"
     id="layer1">
    <path
       style="fill:#3939ff;fill-opacity:1;fill-rule:nonzero;stroke:#00008a;stroke-width:4.4;stroke-linecap:butt;stroke-miterlimit:4;stroke-dasharray:none;stroke-opacity:1"
       d="M 265.625 332.04883 A 96.875 100 0 0 0 168.75 432.04883 A 96.875 100 0 0 0 265.625 532.04883 A 96.875 100 0 0 0 362.5 432.04883 A 96.875 100 0 0 0 265.625 332.04883 z M 265.625 358.61133 A 70.3125 71.875 0 0 1 335.9375 430.48633 A 70.3125 71.875 0 0 1 265.625 502.36133 A 70.3125 71.875 0 0 1 195.3125 430.48633 A 70.3125 71.875 0 0 1 265.625 358.61133 z "
       id="path5196" />
  </g>
</svg>
