<?xml version="1.0" encoding="UTF-8" standalone="no"?>
<!-- Created with Inkscape (http://www.inkscape.org/) -->

<svg
   xmlns:dc="http://purl.org/dc/elements/1.1/"
   xmlns:cc="http://creativecommons.org/ns#"
   xmlns:rdf="http://www.w3.org/1999/02/22-rdf-syntax-ns#"
   xmlns:svg="http://www.w3.org/2000/svg"
   xmlns="http://www.w3.org/2000/svg"
   xmlns:sodipodi="http://sodipodi.sourceforge.net/DTD/sodipodi-0.dtd"
   xmlns:inkscape="http://www.inkscape.org/namespaces/inkscape"
   width="210mm"
   height="297mm"
   viewBox="0 0 744.09448819 1052.3622047"
   id="svg2"
   version="1.1"
   inkscape:version="0.91 r13725"
   sodipodi:docname="tRNA.svg">
  <defs
     id="defs4" />
  <sodipodi:namedview
     id="base"
     pagecolor="#ffffff"
     bordercolor="#666666"
     borderopacity="1.0"
     inkscape:pageopacity="0.0"
     inkscape:pageshadow="2"
     inkscape:zoom="0.49497475"
     inkscape:cx="340.55733"
     inkscape:cy="558.99297"
     inkscape:document-units="px"
     inkscape:current-layer="layer1"
     showgrid="false"
     inkscape:window-width="1280"
     inkscape:window-height="691"
     inkscape:window-x="0"
     inkscape:window-y="1"
     inkscape:window-maximized="1"
     inkscape:object-paths="false"
     inkscape:snap-intersection-paths="false"
     inkscape:object-nodes="false"
     inkscape:snap-smooth-nodes="false"
     inkscape:snap-midpoints="false" />
  <metadata
     id="metadata7">
    <rdf:RDF>
      <cc:Work
         rdf:about="">
        <dc:format>image/svg+xml</dc:format>
        <dc:type
           rdf:resource="http://purl.org/dc/dcmitype/StillImage" />
        <dc:title />
      </cc:Work>
    </rdf:RDF>
  </metadata>
  <g
     inkscape:label="Layer 1"
     inkscape:groupmode="layer"
     id="layer1">
    <g
       id="g4290"
       transform="matrix(0.84303672,0,0,0.84303672,38.131967,321.44413)">
      <rect
         ry="0.115806"
         rx="0.115806"
         y="158.3772"
         x="121.21831"
         height="59.598999"
         width="21.213203"
         id="rect4218"
         style="opacity:0;fill:#ff00ff;stroke:#000080;stroke-width:12.10000038;stroke-miterlimit:4;stroke-dasharray:none" />
      <rect
         ry="0.12860142"
         rx="0.11543271"
         y="67.489525"
         x="265.69617"
         height="293.90231"
         width="16.110344"
         id="rect4182"
         style="fill:#000080;stroke:#000080;stroke-width:1.05209816" />
      <rect
         ry="0.13764557"
         rx="0.11514042"
         y="-23.825125"
         x="323.93488"
         height="387.81149"
         width="15.065203"
         id="rect4184"
         style="fill:#000080;stroke:#000080;stroke-width:1.0870862" />
      <rect
         transform="matrix(0,1,-1,0,0,0)"
         ry="0.115806"
         rx="0.115806"
         y="-432.34528"
         x="196.763"
         height="264.65997"
         width="16.162441"
         id="rect4182-2"
         style="fill:#000080;stroke:#000080" />
      <rect
         transform="matrix(0,1,-1,0,0,0)"
         ry="0.115806"
         rx="0.115806"
         y="-433.35544"
         x="255.35185"
         height="264.65997"
         width="16.162441"
         id="rect4182-2-4"
         style="fill:#000080;stroke:#000080" />
      <path
         id="path4216"
         d="m 130.23438,184.81641 a 48.728172,49.712578 0 0 0 -48.728521,49.71289 48.728172,49.712578 0 0 0 48.728521,49.71289 48.728172,49.712578 0 0 0 41.34374,-23.45703 l -5.0996,0 A 45.000004,45.000004 0 0 1 130,279.50586 a 45.000004,45.000004 0 0 1 -45,-45 45.000004,45.000004 0 0 1 45,-45 45.000004,45.000004 0 0 1 36.05273,18.14844 l 5.11915,0 a 48.728172,49.712578 0 0 0 -40.9375,-22.83789 z"
         style="fill:none;stroke:#000080;stroke-width:11.79161644;stroke-miterlimit:4;stroke-dasharray:none"
         inkscape:connector-curvature="0" />
      <path
         id="path4216-7"
         d="m 471.46659,184.79217 a 48.728172,49.712578 0 0 1 48.72852,49.71289 48.728172,49.712578 0 0 1 -48.72852,49.71289 48.728172,49.712578 0 0 1 -41.34374,-23.45703 l 5.0996,0 a 45.000004,45.000004 0 0 0 36.47852,18.7207 45.000004,45.000004 0 0 0 45,-45 45.000004,45.000004 0 0 0 -45,-45 45.000004,45.000004 0 0 0 -36.05273,18.14844 l -5.11915,0 a 48.728172,49.712578 0 0 1 40.9375,-22.83789 z"
         style="fill:none;stroke:#000080;stroke-width:11.79161644;stroke-miterlimit:4;stroke-dasharray:none"
         inkscape:connector-curvature="0" />
      <path
         id="path4216-9"
         d="m 252.98527,397.24125 a 49.712578,48.728172 0 0 0 49.71288,48.72852 49.712578,48.728172 0 0 0 49.7129,-48.72852 49.712578,48.728172 0 0 0 -23.45704,-41.34374 l 0,5.0996 a 45.000004,45.000004 0 0 1 18.72071,36.47852 45.000004,45.000004 0 0 1 -45.00001,45 45.000004,45.000004 0 0 1 -44.99999,-45 45.000004,45.000004 0 0 1 18.14844,-36.05273 l 0,-5.11915 a 49.712578,48.728172 0 0 0 -22.83789,40.9375 z"
         style="fill:none;stroke:#000080;stroke-width:11.79161644;stroke-miterlimit:4;stroke-dasharray:none"
         inkscape:connector-curvature="0" />
    </g>
  </g>
</svg>
